<svg width="24" height="24" viewBox="0 0 24 24" fill="none" xmlns="http://www.w3.org/2000/svg">
<path d="M4 19.35V17.25H6V9.9C6 8.451 6.42 7.1595 7.25 6.0255C8.08 4.8915 9.17 4.1565 10.5 3.81V3.075C10.5 2.634 10.65 2.2665 10.94 1.962C11.23 1.6575 11.59 1.5 12 1.5C12.41 1.5 12.77 1.6575 13.06 1.962C13.35 2.2665 13.5 2.6445 13.5 3.075V3.81C14.83 4.1565 15.92 4.902 16.75 6.0255C17.58 7.149 18 8.4405 18 9.9V17.25H20V19.35H4ZM12 22.5C11.45 22.5 10.98 22.29 10.59 21.8805C10.2 21.471 10 20.9775 10 20.4H14C14 20.9775 13.8 21.471 13.41 21.8805C13.02 22.29 12.55 22.5 12 22.5ZM8 17.25H16V9.9C16 8.745 15.61 7.758 14.82 6.9285C14.03 6.099 13.09 5.6895 11.99 5.6895C10.89 5.6895 9.95 6.099 9.16 6.9285C8.37 7.758 7.98 8.745 7.98 9.9V17.25H8Z" fill="#8E8E8E"/>
</svg>
