<svg width="18" height="18" viewBox="0 0 18 18" fill="none" xmlns="http://www.w3.org/2000/svg">
<path d="M8.48047 16.3125C9.30547 16.3125 9.98047 15.6375 9.98047 14.8125H6.98047C6.98047 15.6375 7.65547 16.3125 8.48047 16.3125ZM8.48047 4.6875C10.348 4.6875 11.4805 6.2025 11.4805 8.0625V8.1375L12.9805 9.6375V8.0625C12.9805 5.76 11.758 3.8325 9.60547 3.3225V2.8125C9.60547 2.19 9.10297 1.6875 8.48047 1.6875C7.85797 1.6875 7.35547 2.19 7.35547 2.8125V3.3225C7.17547 3.3675 7.00297 3.435 6.83797 3.495L8.06797 4.725C8.20297 4.71 8.33797 4.6875 8.48047 4.6875ZM3.53797 2.325L2.48047 3.3825L4.58797 5.49C4.19797 6.24 3.98047 7.1175 3.98047 8.0625V11.8125L2.48047 13.3125V14.0625H13.1605L14.4655 15.3675L15.523 14.31L3.53797 2.325ZM11.4805 12.5625H5.48047V8.0625C5.48047 7.5525 5.57047 7.0725 5.73547 6.6375L11.4805 12.3825V12.5625Z" fill="#494949"/>
</svg>
