<svg width="18" height="18" viewBox="0 0 18 18" fill="none" xmlns="http://www.w3.org/2000/svg">
<path d="M2 15.3V13.5H3.75V7.2C3.75 5.958 4.1175 4.851 4.84375 3.879C5.57 2.907 6.52375 2.277 7.6875 1.98V1.35C7.6875 0.972 7.81875 0.657 8.0725 0.396C8.32625 0.135 8.64125 0 9 0C9.35875 0 9.67375 0.135 9.9275 0.396C10.1813 0.657 10.3125 0.981 10.3125 1.35V1.98C11.4762 2.277 12.43 2.916 13.1562 3.879C13.8825 4.842 14.25 5.949 14.25 7.2V13.5H16V15.3H2ZM9 18C8.51875 18 8.1075 17.82 7.76625 17.469C7.425 17.118 7.25 16.695 7.25 16.2H10.75C10.75 16.695 10.575 17.118 10.2337 17.469C9.8925 17.82 9.48125 18 9 18ZM5.5 13.5H12.5V7.2C12.5 6.21 12.1587 5.364 11.4675 4.653C10.7762 3.942 9.95375 3.591 8.99125 3.591C8.02875 3.591 7.20625 3.942 6.515 4.653C5.82375 5.364 5.4825 6.21 5.4825 7.2V13.5H5.5Z" fill="#8E8E8E"/>
<path fill-rule="evenodd" clip-rule="evenodd" d="M12 12C15.3137 12 18 9.31371 18 6C18 2.68629 15.3137 0 12 0C8.68629 0 6 2.68629 6 6C6 9.31371 8.68629 12 12 12ZM10.9825 8.39961H10V3.65779H10.8205L13.0175 6.5087V3.59961H14V8.34143H13.1795L10.9825 5.49052V8.39961Z" fill="#F27575"/>
</svg>
