<svg width="18" height="18" viewBox="0 0 18 18" fill="none" xmlns="http://www.w3.org/2000/svg">
<path d="M4.44844 15.5C4.09094 15.5 3.78544 15.37 3.53194 15.1165C3.27844 14.863 3.14844 14.5575 3.14844 14.2V5.1C3.14844 4.7425 3.27844 4.437 3.53194 4.1835C3.78544 3.93 4.09094 3.8 4.44844 3.8H5.09844V2.5H6.39844V3.8H11.5984V2.5H12.8984V3.8H13.5484C13.9059 3.8 14.2114 3.93 14.4649 4.1835C14.7184 4.437 14.8484 4.7425 14.8484 5.1V14.2C14.8484 14.5575 14.7184 14.863 14.4649 15.1165C14.2114 15.37 13.9059 15.5 13.5484 15.5H4.44844ZM4.44844 14.2H13.5484V7.7H4.44844V14.2Z" fill="#8E8E8E"/>
</svg>
