<svg width="41" height="33" viewBox="0 0 41 33" fill="none" xmlns="http://www.w3.org/2000/svg">
<path d="M5.47713 33H35.5236C39.151 33 41 31.2 41 27.6354V9.5177C41 5.95308 39.151 4.17078 35.5236 4.17078H31.4431C30.0829 4.17078 29.6648 3.89391 28.8798 3.02859L27.4668 1.47074C26.6126 0.519778 25.7234 0 23.9093 0H16.9686C15.1724 0 14.2825 0.519778 13.4112 1.47074L11.9982 3.02859C11.2311 3.87619 10.795 4.17078 9.43487 4.17078H5.47639C1.84903 4.17078 0 5.95308 0 9.5177V27.6354C0 31.2 1.84977 33 5.47713 33ZM5.52847 30.2136C3.80222 30.2136 2.80814 29.2966 2.80814 27.4966V9.67348C2.80814 7.87346 3.80222 6.95646 5.52847 6.95646H10.1321C11.7021 6.95646 12.5391 6.66261 13.4112 5.69393L14.7885 4.17078C15.7826 3.06329 16.2885 2.78642 17.8407 2.78642H23.0373C24.5894 2.78642 25.0954 3.06329 26.0895 4.17078L27.4668 5.69319C28.3388 6.66261 29.1759 6.95646 30.7459 6.95646H35.4715C37.1978 6.95646 38.1926 7.87346 38.1926 9.67348V27.4966C38.1926 29.2966 37.1985 30.2136 35.4715 30.2136H5.52847ZM20.4918 27.4626C21.7447 27.4661 22.9858 27.2236 24.1437 26.7489C25.3017 26.2743 26.3535 25.5769 27.2385 24.697C28.1236 23.8172 28.8244 22.7722 29.3006 21.6223C29.7768 20.4725 30.0189 19.2405 30.013 17.9973C30.013 12.736 25.7926 8.53204 20.4911 8.53204C15.2245 8.53204 10.987 12.736 10.987 17.9973C10.987 23.2571 15.2245 27.4626 20.4911 27.4626M33.0295 13.7741C34.2155 13.7741 35.1918 12.8232 35.1918 11.6463C35.1918 11.0772 34.9639 10.5315 34.5584 10.1291C34.1529 9.72676 33.6029 9.50072 33.0295 9.50072C32.456 9.50072 31.906 9.72676 31.5005 10.1291C31.095 10.5315 30.8672 11.0772 30.8672 11.6463C30.8672 12.8232 31.8434 13.7741 33.0295 13.7741ZM20.4918 24.8327C16.7075 24.8327 13.621 21.7871 13.621 17.9973C13.621 14.2075 16.6903 11.1627 20.4918 11.1627C21.3967 11.1616 22.2929 11.3377 23.1291 11.6807C23.9653 12.0238 24.7251 12.5272 25.365 13.1621C26.0048 13.7969 26.5122 14.5508 26.8581 15.3805C27.2039 16.2102 27.3814 17.0994 27.3805 17.9973C27.3815 18.8953 27.2041 19.7846 26.8583 20.6144C26.5125 21.4442 26.0051 22.1981 25.3652 22.833C24.7253 23.468 23.9655 23.9714 23.1293 24.3146C22.293 24.6577 21.3967 24.8338 20.4918 24.8327Z" fill="#999999"/>
</svg>
