<svg width="49" height="32" viewBox="0 0 49 32" fill="none" xmlns="http://www.w3.org/2000/svg">
<g clip-path="url(#clip0_3246_28423)">
<path d="M45.0655 30.3692L44.5255 30.7203L42.9141 28.8044L43.7111 28.2861L45.0655 30.3692Z" fill="#A0616A"/>
<path d="M45.4513 30.9203L43.7906 32.0002L43.777 31.9792C43.6655 31.8077 43.6267 31.599 43.6691 31.399C43.7115 31.199 43.8316 31.024 44.003 30.9125L44.1567 30.4851L44.8724 30.3472L45.0173 30.2529L45.4513 30.9203Z" fill="#2F2E41"/>
<path d="M35.8138 31.2894L35.1697 31.2893L34.8633 28.8047L35.814 28.8048L35.8138 31.2894Z" fill="#A0616A"/>
<path d="M35.8364 31.9613L33.8555 31.9612V31.9361C33.8555 31.7317 33.9367 31.5355 34.0813 31.391C34.2259 31.2464 34.422 31.1651 34.6265 31.1651L34.9884 30.8906L35.6635 31.1652H35.8364L35.8364 31.9613Z" fill="#2F2E41"/>
<path d="M42.4805 16.0901L36.704 16.2171L36.1315 16.9328C36.1315 16.9328 36.181 16.6804 36.1369 16.9576C36.0928 17.2348 34.9784 22.7608 35.1891 22.9461C35.3998 23.1314 34.7896 24.411 34.7448 24.489C34.7 24.5671 34.2171 28.4188 34.7448 28.7355L34.9431 30.08H35.8656C35.8656 30.08 36.7897 29.0105 36.6037 28.8167C36.4177 28.6228 36.9497 27.9782 36.97 27.6325C36.9903 27.2868 37.1845 25.7189 37.0341 25.4675C36.8836 25.2162 36.6802 24.2727 37.0619 23.907C37.4436 23.5412 39.2239 19.0467 39.2239 19.0467C39.2239 19.0467 39.7412 24.3158 39.74 24.7296C39.7384 25.2676 40.0918 25.0013 40.0918 25.4737C40.0918 25.5691 41.2423 28.0218 42.0155 28.7885L43.6144 30.0185L44.3524 29.465V28.6655C44.3524 28.6655 43.6685 27.1821 43.43 26.9435C43.1914 26.7049 42.3105 25.9747 42.3105 25.6407C42.3105 25.3067 41.8958 25.1903 42.1747 24.7475C42.4536 24.3047 42.3582 24.1138 42.2628 23.9229C42.1673 23.7321 42.3483 15.9121 42.3483 15.9121L42.4805 16.0901Z" fill="#2F2E41"/>
<path d="M40.0697 4.49495C41.0338 4.49495 41.8153 3.71345 41.8153 2.74943C41.8153 1.7854 41.0338 1.00391 40.0697 1.00391C39.1057 1.00391 38.3242 1.7854 38.3242 2.74943C38.3242 3.71345 39.1057 4.49495 40.0697 4.49495Z" fill="#A0616A"/>
<path d="M41.4659 16.7574L41.9573 15.2783L42.8414 15.4411L42.2663 16.9864C42.3012 17.0769 42.3102 17.1754 42.2923 17.2708C42.2743 17.3662 42.2301 17.4547 42.1647 17.5263C42.0992 17.598 42.015 17.6499 41.9216 17.6764C41.8282 17.7028 41.7293 17.7027 41.636 17.676C41.5427 17.6493 41.4587 17.5971 41.3934 17.5252C41.3281 17.4534 41.2842 17.3648 41.2665 17.2693C41.2489 17.1739 41.2582 17.0754 41.2934 16.985C41.3286 16.8946 41.3884 16.8157 41.4659 16.7574Z" fill="#A0616A"/>
<path d="M31.2754 13.899L32.4793 12.9092L33.1407 13.518L31.8306 14.5192C31.812 14.6145 31.7671 14.7026 31.7011 14.7738C31.6351 14.8449 31.5505 14.8963 31.457 14.922C31.3634 14.9477 31.2645 14.9469 31.1714 14.9195C31.0782 14.8921 30.9946 14.8392 30.9299 14.7669C30.8651 14.6946 30.8219 14.6057 30.8049 14.5101C30.7879 14.4145 30.798 14.3161 30.8339 14.226C30.8698 14.1358 30.9301 14.0574 31.0081 13.9997C31.0861 13.9419 31.1787 13.907 31.2754 13.899Z" fill="#A0616A"/>
<path d="M37.9805 2.44411C38.1687 2.50253 38.3501 2.53698 38.4725 2.38261C38.5948 2.22825 38.5629 2.05175 38.7449 1.97733C38.8971 1.92628 39.063 1.93396 39.2098 1.99886C39.2363 2.00869 39.2621 2.01976 39.2873 2.03083C39.3015 2.01853 39.3156 2.00685 39.331 1.99578C39.4467 1.9135 39.5895 1.87872 39.7301 1.89861C39.6274 1.94824 39.5428 2.02892 39.4884 2.12923C39.5389 2.15445 39.5899 2.17966 39.6416 2.20119C39.8587 2.28999 40.0935 2.327 40.3273 2.30928C40.5612 2.29156 40.7878 2.2196 40.989 2.0991C40.7873 2.63045 40.9441 2.81987 41.2399 3.30509L41.2516 3.33338C41.2221 3.20608 41.6089 3.0591 41.6089 3.2436C41.5919 3.43262 41.5506 3.61866 41.4859 3.79709C41.8654 3.22576 42.0892 2.55727 41.9422 1.91583C41.9109 1.78115 41.8967 1.63663 41.8112 1.52716C41.7258 1.41831 41.5683 1.35435 41.4441 1.41584C41.4287 1.20727 41.3571 1.00677 41.2368 0.835654C41.1166 0.664538 40.9522 0.529206 40.7612 0.444044C40.5702 0.358882 40.3596 0.327073 40.152 0.352C39.9444 0.376927 39.7473 0.457656 39.5819 0.585607C39.4282 0.704301 39.307 0.859894 39.1699 0.998268C39.0327 1.13664 38.8704 1.26271 38.6785 1.29715C38.5567 1.31868 38.4196 1.30576 38.3224 1.38264C38.2099 1.47181 38.2086 1.62863 38.2092 1.77931C38.3194 1.77617 38.4279 1.80593 38.521 1.86479C38.4071 1.86765 38.2969 1.90639 38.2062 1.97549C38.2044 1.97657 38.2028 1.9778 38.2013 1.97918C38.168 2.23256 38.1816 2.28606 37.9805 2.44411Z" fill="#2F2E41"/>
<path d="M44.1224 8.16559C44.0818 7.97088 44.0014 7.78667 43.8862 7.62449C43.7711 7.46231 43.6237 7.32565 43.4533 7.22307C43.4406 7.15792 43.418 7.11624 43.3833 7.10391C42.8871 6.92753 41.5021 6.11271 41.5021 6.11271L41.386 5.18097L38.8797 5.06055L38.2384 6.11272C38.2384 6.11272 36.5771 6.2797 36.6079 6.88786C36.2056 7.38969 34.4146 9.632 33.3411 11.1149C32.8281 11.8236 32.4788 12.359 32.5236 12.4477C32.6747 12.7463 32.4625 12.5448 32.225 12.5988C31.9876 12.6527 32.1027 12.793 32.1081 12.9999C32.1135 13.2067 31.2969 13.642 31.2969 13.642C31.7951 13.8201 32.4192 14.5521 32.4192 14.5521C32.4192 14.5521 33.0236 13.9154 33.1333 13.8489C33.243 13.7823 33.3042 13.6852 33.6513 13.5647C33.9985 13.4442 33.8528 13.3525 33.878 13.0971C33.9032 12.8416 33.9877 13.0305 34.4751 12.7949C34.9626 12.5593 34.5669 12.6492 34.7018 12.3272C34.8367 12.0053 34.7935 12.1816 35.2324 11.9154C35.4962 11.7554 35.7582 11.5204 36.1228 11.1149C36.3648 10.8457 36.6519 10.5015 37.015 10.0538C37.0174 10.0508 37.0197 10.0476 37.0222 10.0446C37.0466 10.4075 37.0654 10.7706 37.0766 11.1149C37.1083 12.093 37.078 12.9178 36.9356 13.145C36.7358 13.4638 36.3975 14.5307 36.1225 15.4674C36.0693 15.649 36.0599 15.8407 36.0951 16.0267C36.1303 16.2127 36.2091 16.3877 36.3251 16.5374C36.4411 16.687 36.5908 16.807 36.7622 16.8875C36.9335 16.968 37.1215 17.0068 37.3107 17.0006C39.0165 16.9443 41.5128 16.8142 41.9993 16.5287C42.2639 16.5665 42.5254 16.624 42.7815 16.7006C42.7815 16.7006 42.9536 15.8398 43.011 15.725C43.0684 15.6102 43.0684 15.4955 43.298 15.2085C43.5275 14.9216 43.3553 14.9216 43.2406 14.692C43.1258 14.4625 43.298 14.5772 43.5849 14.1181C43.8719 13.659 43.5849 13.946 43.5275 13.6016C43.4701 13.2573 43.5275 13.4295 43.7571 12.9704C43.9473 12.59 44.0587 12.0908 44.1893 11.1149C44.2163 10.913 44.2441 10.6912 44.2736 10.4453C44.371 9.63293 44.2477 8.76538 44.1224 8.16559Z" fill="#6C63FF"/>
<path d="M16.7068 30.6158C16.6686 30.6176 16.6307 30.6075 16.5984 30.5871C16.566 30.5666 16.5407 30.5366 16.526 30.5013C16.5112 30.466 16.5076 30.427 16.5158 30.3895C16.5239 30.3521 16.5434 30.3181 16.5715 30.2921L16.5843 30.2412C16.5826 30.2372 16.5809 30.2331 16.5792 30.229C16.5407 30.138 16.4761 30.0604 16.3936 30.0059C16.3111 29.9515 16.2143 29.9226 16.1155 29.923C16.0166 29.9234 15.9201 29.9529 15.838 30.008C15.7559 30.0631 15.6919 30.1412 15.654 30.2325C15.5027 30.5969 15.3101 30.962 15.2626 31.3473C15.2417 31.5176 15.2505 31.6903 15.2887 31.8576C14.9333 31.0823 14.7487 30.2397 14.7475 29.3869C14.7475 29.1729 14.7593 28.959 14.7831 28.7463C14.8028 28.572 14.8301 28.3989 14.865 28.227C15.0555 27.2944 15.4645 26.4203 16.0584 25.6765C16.3458 25.5197 16.5783 25.2785 16.7244 24.9855C16.7774 24.8802 16.8148 24.7677 16.8355 24.6517C16.8031 24.6559 16.7133 24.1621 16.7377 24.1318C16.6925 24.0632 16.6117 24.0291 16.5623 23.9622C16.3169 23.6295 15.9787 23.6876 15.8022 24.1398C15.425 24.3301 15.4214 24.6458 15.6528 24.9494C15.8 25.1425 15.8202 25.4038 15.9494 25.6106C15.9361 25.6276 15.9223 25.6441 15.909 25.6611C15.6661 25.9735 15.4543 26.3089 15.2768 26.6626C15.32 26.2664 15.2685 25.8656 15.1265 25.4931C14.9827 25.1461 14.713 24.8537 14.4755 24.5537C14.1902 24.1933 13.6053 24.3506 13.555 24.8074C13.5546 24.8119 13.5541 24.8163 13.5536 24.8207C13.5889 24.8406 13.6234 24.8617 13.6572 24.8841C13.6997 24.9124 13.7325 24.9529 13.7516 25.0003C13.7706 25.0477 13.7749 25.0997 13.7638 25.1495C13.7528 25.1994 13.7269 25.2447 13.6897 25.2796C13.6524 25.3145 13.6055 25.3373 13.5551 25.3451L13.5499 25.3459C13.5625 25.473 13.5847 25.599 13.6163 25.7228C13.3117 26.901 13.9694 27.3301 14.9086 27.3494C14.9293 27.36 14.9495 27.3706 14.9703 27.3807C14.7919 27.8861 14.6801 28.4125 14.6375 28.9467C14.6134 29.2619 14.6148 29.5785 14.6417 29.8935L14.6401 29.8823C14.5721 29.5321 14.3853 29.2161 14.1112 28.9877C13.7042 28.6533 13.1292 28.5302 12.6901 28.2614C12.6434 28.2315 12.5891 28.2155 12.5337 28.2153C12.4782 28.2152 12.4239 28.2309 12.3771 28.2607C12.3302 28.2904 12.2929 28.3329 12.2695 28.3832C12.246 28.4334 12.2374 28.4893 12.2447 28.5443C12.2453 28.5482 12.2459 28.5521 12.2465 28.556C12.312 28.5827 12.3757 28.6134 12.4373 28.648C12.4726 28.6679 12.5071 28.689 12.5409 28.7114C12.5834 28.7397 12.6162 28.7802 12.6353 28.8276C12.6543 28.875 12.6586 28.927 12.6475 28.9768C12.6365 29.0266 12.6106 29.072 12.5734 29.1069C12.5361 29.1418 12.4892 29.1646 12.4388 29.1724L12.4336 29.1732C12.4299 29.1737 12.4267 29.1742 12.423 29.1748C12.5348 29.4418 12.6918 29.6876 12.887 29.9014C13.0775 30.9299 13.8957 31.0275 14.7709 30.728H14.7714C14.8675 31.1453 15.0066 31.5515 15.1866 31.94H16.6697C16.675 31.9235 16.6798 31.9065 16.6846 31.89C16.5473 31.8987 16.4095 31.8904 16.2742 31.8656C16.3842 31.7306 16.4943 31.5945 16.6043 31.4595C16.6067 31.4569 16.6091 31.4543 16.6112 31.4515C16.667 31.3824 16.7234 31.3138 16.7792 31.2447L16.7792 31.2446C16.7822 31.0328 16.7578 30.8214 16.7068 30.6158Z" fill="#F2F2F2"/>
<path d="M5.29688 28.3733L5.70608 28.8058L7.60616 27.3981L7.00223 26.7598L5.29688 28.3733Z" fill="#C78F8F"/>
<path d="M5.96735 28.6121L5.50409 28.1769L5.39033 28.0703L4.21094 29.0132L4.51773 29.3375L4.87885 29.1059L4.71295 29.5439L5.52636 30.4036C5.56534 30.4448 5.61647 30.4725 5.6723 30.4826C5.72813 30.4927 5.78573 30.4847 5.8367 30.4598C5.88766 30.4349 5.92933 30.3943 5.95561 30.344C5.98189 30.2937 5.99141 30.2364 5.98278 30.1803L5.80723 29.0446L6.11657 28.752L5.96735 28.6121Z" fill="#2F2E41"/>
<path d="M14.2897 12.6264L14.16 14.0427C14.16 14.0427 13.9336 15.1098 14.0904 15.0233C14.2472 14.9369 13.966 15.3261 14.0401 15.6637C14.1141 16.0013 13.4076 18.5187 13.7276 18.2579C14.0476 17.9971 13.5427 19.7986 13.2233 20.6874C13.1255 20.9622 13.0251 21.2403 12.9239 21.5164C12.904 21.5723 12.884 21.6275 12.8634 21.6834C12.7323 22.0426 12.6013 22.3965 12.4756 22.7305C12.4576 22.7771 12.4403 22.8236 12.423 22.8695C12.4223 22.8708 12.4223 22.8722 12.4217 22.8722C12.0079 23.9612 11.6533 24.8181 11.5116 24.9598C11.4377 25.0336 10.2662 25.8799 9.08535 26.7274C7.84596 27.6169 6.59657 28.5083 6.59657 28.5083L5.42969 27.2843C5.42969 27.2843 5.45762 27.2763 5.51018 27.2603C5.60731 27.2323 5.78695 27.1798 6.02245 27.1099C7.00438 26.8205 5.757 26.3702 6.64848 26.0482C6.89994 25.9577 7.06759 25.8872 7.1055 25.8499C7.32704 25.6337 7.62443 25.1181 7.76479 25.3343C7.90515 25.5506 8.54184 23.9439 8.72543 23.7849C8.82389 23.6991 9.14522 23.298 9.42065 22.9454C9.65746 22.642 9.86104 22.3739 9.86104 22.3739C9.86104 22.3739 9.86503 22.2302 9.87101 22.0013C9.87968 21.6627 9.89232 21.1365 9.90564 20.6096C9.90495 20.6089 9.90495 20.6089 9.90564 20.6089C9.91028 20.4107 9.91493 20.2124 9.91961 20.0242C9.92292 19.8785 9.92623 19.7381 9.92958 19.6084C9.93822 19.2199 9.9442 18.9258 9.9442 18.8526C9.9442 18.6125 9.9442 18.7994 10.1338 18.6544C10.1621 18.6321 10.189 18.6081 10.2143 18.5825C10.2548 18.546 10.2922 18.5062 10.3261 18.4634C10.3401 18.4335 10.2529 18.4741 10.1398 18.4515C10.0785 18.4392 10.0219 18.4102 9.97613 18.3676C9.73796 18.1534 9.99478 17.4948 9.99478 17.4948C9.45324 16.4118 9.49251 15.5236 9.74595 14.8391C9.93547 14.3478 10.2363 13.9072 10.6248 13.5518C10.7726 13.4109 10.9337 13.2846 11.1058 13.1745L11.1224 13.0848L11.3054 12.0942C11.4027 12.0407 11.5038 11.9947 11.6081 11.9565C11.933 11.8399 12.2817 11.8051 12.6232 11.8553C12.9627 11.9045 13.2914 12.0109 13.5952 12.17C13.8436 12.2948 14.0766 12.4479 14.2897 12.6264Z" fill="#2F2E41"/>
<path d="M9.18359 30.5798L9.77641 30.635L10.276 28.3236L9.40094 28.2422L9.18359 30.5798Z" fill="#C78F8F"/>
<path d="M10.89 31.4858L10.0092 30.7481L10.0491 30.3236L9.8442 30.317L9.20953 30.2963H9.20885L9.05319 30.291L8.78906 31.7772L9.23412 31.8185L9.35188 31.406L9.51621 31.8451L9.75172 31.8671L10.6944 31.9549C10.7024 31.9555 10.711 31.9562 10.719 31.9562C10.7565 31.9562 10.7936 31.9483 10.8277 31.933C10.8619 31.9176 10.8924 31.8951 10.9173 31.8671C10.9559 31.8248 10.9795 31.771 10.9844 31.714C10.9883 31.6712 10.9818 31.628 10.9653 31.5883C10.9489 31.5486 10.923 31.5134 10.89 31.4858Z" fill="#2F2E41"/>
<path d="M12.4789 22.7298C12.2534 23.9572 11.2987 26.8351 10.7213 28.5196C10.4585 29.2893 10.2749 29.8102 10.2749 29.8102L9.97555 29.7158H9.97487L9.46861 29.5561L9.28433 29.4975H9.28364L9.06012 29.4264C9.06012 29.4264 9.08608 28.0519 9.08874 26.7267C9.09072 26.1712 9.08806 25.6237 9.07744 25.1899C9.06545 24.7169 9.04482 24.3783 9.01091 24.3111C8.87051 24.0357 9.10537 24.0064 9.35352 23.9372C9.60231 23.8674 9.40806 23.7623 9.31158 23.5387C9.24642 23.3897 9.37479 23.1908 9.46594 23.0777C9.49109 23.0459 9.51796 23.0154 9.54644 22.9865C9.54644 22.9865 9.50252 22.9712 9.42404 22.9446C9.66085 22.6413 9.86442 22.3732 9.86442 22.3732C9.86442 22.3732 9.86842 22.2295 9.8744 22.0006C9.88307 21.662 9.89571 21.1358 9.90902 20.6089C9.90834 20.6082 9.90834 20.6082 9.90902 20.6082C9.91367 20.41 9.91832 20.2117 9.923 20.0234C10.3035 20.3155 10.6734 20.6016 11.0087 20.8664C11.0091 20.8667 11.0094 20.8671 11.0097 20.8675C11.0099 20.868 11.01 20.8685 11.01 20.869C11.8157 21.5057 12.4204 22.0166 12.5056 22.1789C12.5441 22.2521 12.5308 22.4477 12.4789 22.7298Z" fill="#2F2E41"/>
<path d="M48.0145 31.9993H0.0665269C0.0488828 31.9993 0.0319614 31.9923 0.0194852 31.9798C0.00700901 31.9673 0 31.9504 0 31.9327C0 31.9151 0.00700901 31.8982 0.0194852 31.8857C0.0319614 31.8732 0.0488828 31.8662 0.0665269 31.8662H48.0145C48.0321 31.8662 48.049 31.8732 48.0615 31.8857C48.074 31.8982 48.081 31.9151 48.081 31.9327C48.081 31.9504 48.074 31.9673 48.0615 31.9798C48.049 31.9923 48.0321 31.9993 48.0145 31.9993Z" fill="#E6E6E6"/>
<path d="M10.9727 10.2314L11.0973 11.3878L11.024 12.9042L14.3826 12.5051L14.6982 10.2314L14.2961 10.2354L10.9727 10.2314Z" fill="#FFB6B6"/>
<path d="M13.8281 6.49644L12.5641 5.49854L11.9006 5.45996L10.916 6.09069L10.675 7.32059L10.1048 8.70556L10.9411 12.4432C10.9411 12.4432 11.0195 12.7114 10.814 12.7436C10.6084 12.7758 10.6331 13.1711 10.6331 13.1711C10.6331 13.1711 10.6749 13.5138 10.4754 13.5439C10.2758 13.5741 9.74359 13.5741 10.2093 14.1729C10.675 14.7716 14.3583 12.5071 14.3583 12.5071L14.8932 9.70001C14.8932 9.70001 15.9307 8.30653 14.8134 7.50845L13.8281 6.49644Z" fill="#6C63FF"/>
<path d="M8.3096 14.9831C8.2539 14.9136 8.21412 14.8327 8.19306 14.7462C8.172 14.6597 8.17017 14.5696 8.1877 14.4822C8.20522 14.3949 8.24168 14.3125 8.29451 14.2408C8.34733 14.1691 8.41524 14.1098 8.49344 14.0672L10.0834 8.73145L11.0775 9.23197L9.34607 14.3462C9.40897 14.4824 9.41975 14.6368 9.37637 14.7804C9.33299 14.9239 9.23847 15.0465 9.11071 15.125C8.98295 15.2035 8.83083 15.2325 8.68318 15.2063C8.53553 15.1801 8.40261 15.1007 8.3096 14.9831Z" fill="#C78F8F"/>
<path d="M11.1436 6.04146C11.1436 6.04146 10.8594 5.89042 10.665 6.544C10.5094 7.06724 9.24662 10.1839 9.23051 10.9416C9.12659 10.9636 9.03295 11.0196 8.96434 11.1007C8.89573 11.1818 8.85606 11.2834 8.85156 11.3896L10.4129 11.5988C10.6857 11.3687 10.7573 11.0579 10.6517 10.9657L10.9907 10.0398L12.405 7.09402L11.351 6.14698L11.1436 6.04146Z" fill="#6C63FF"/>
<path d="M19.4867 13.2292C19.5068 13.1424 19.5077 13.0523 19.4893 12.9652C19.4709 12.878 19.4336 12.796 19.38 12.7248C19.3264 12.6537 19.2579 12.5951 19.1793 12.5533C19.1006 12.5115 19.0138 12.4875 18.9248 12.4828L15.2776 8.31738L14.5039 9.24057L18.2767 13.1032C18.2789 13.2531 18.336 13.397 18.4371 13.5077C18.5383 13.6184 18.6766 13.6881 18.8257 13.7036C18.9749 13.7191 19.1245 13.6794 19.2464 13.592C19.3682 13.5045 19.4537 13.3754 19.4867 13.2292Z" fill="#C78F8F"/>
<path d="M13.065 6.39259C13.065 6.39259 13.2559 6.13351 13.7138 6.63875C14.0804 7.04323 16.5668 9.30732 16.909 9.98358C17.0122 9.95849 17.1208 9.96846 17.2177 10.0119C17.3147 10.0554 17.3944 10.1299 17.4444 10.2236L16.1271 11.0874C15.7816 10.9979 15.5826 10.7487 15.6379 10.6198L14.9319 9.93162L12.3828 7.88712L12.9236 6.57741L13.065 6.39259Z" fill="#6C63FF"/>
<path d="M30.6278 15.109C30.5225 15.0726 30.4356 14.9966 30.3855 14.8971C30.3354 14.7976 30.3261 14.6825 30.3596 14.5763C30.3667 14.5548 30.3756 14.5339 30.3862 14.5139L29.3789 13.4136L29.7574 12.7061L30.9743 14.3625C31.0539 14.4128 31.1146 14.4881 31.1469 14.5766C31.1793 14.665 31.1814 14.7617 31.153 14.8515C31.1364 14.9024 31.1099 14.9496 31.075 14.9903C31.0401 15.031 30.9976 15.0644 30.9498 15.0886C30.902 15.1129 30.8499 15.1275 30.7965 15.1316C30.743 15.1357 30.6893 15.1293 30.6384 15.1126C30.6348 15.1115 30.6313 15.1102 30.6278 15.109Z" fill="#FFB6B6"/>
<path d="M24.1685 6.75252C24.1352 6.90789 24.1317 7.06815 24.1581 7.22484C24.1651 7.26917 24.1747 7.31305 24.1869 7.35624C24.232 7.51766 24.2748 7.66641 24.3162 7.80061C24.3405 7.88397 24.3655 7.96251 24.3894 8.03542C24.5272 8.46103 24.6349 8.702 24.7112 8.75271C24.7482 8.77751 24.7854 8.80023 24.8213 8.8224C25.006 8.93539 25.1398 9.01728 25.0503 9.2258C25.0373 9.2556 25.0219 9.28427 25.0042 9.31152C24.9745 9.35733 24.9418 9.40104 24.9061 9.44234C24.8858 9.4657 24.867 9.49038 24.8499 9.5162C24.8276 9.54919 24.818 9.57697 24.83 9.60213C24.8451 9.63309 24.8871 9.64849 24.9772 9.65283C24.9915 9.65347 25.0079 9.65435 25.0255 9.6543C25.0311 9.65466 25.0371 9.65442 25.0436 9.65448C25.0552 9.65464 25.0683 9.65474 25.0817 9.65424C25.193 9.65211 25.3366 9.71071 25.4903 9.80017C25.9439 10.0644 26.4785 10.5962 26.485 10.6028L29.8226 14.0155L29.8876 13.972L30.0421 13.8682L30.0955 13.8325L30.1565 13.7915L30.4219 13.6139L30.5561 13.5242L29.6952 11.9437L29.6015 11.7719L29.5211 11.6236L27.8777 8.6054L27.2249 7.56777L27.0791 7.33659L26.4584 6.35073C26.3707 6.21123 26.2564 6.09037 26.1221 5.99504C25.9877 5.8997 25.8359 5.83177 25.6752 5.79512C25.5146 5.75846 25.3484 5.7538 25.1859 5.7814C25.0235 5.80901 24.8681 5.86833 24.7286 5.95599C24.7192 5.9619 24.7099 5.96793 24.7006 5.97409C24.429 6.15475 24.2382 6.43386 24.1685 6.75252Z" fill="#6C63FF"/>
<path d="M24.39 30.6004L23.7785 30.5952L23.5078 28.1816L24.4103 28.1893L24.39 30.6004Z" fill="#FFB6B6"/>
<path d="M24.5545 30.3192L24.3948 30.3085L23.7435 30.264L23.534 30.25L23.53 30.6871L22.5534 31.3497C22.5051 31.3824 22.4686 31.4298 22.4492 31.4848C22.4298 31.5397 22.4284 31.5995 22.4454 31.6553C22.4623 31.7111 22.4967 31.76 22.5434 31.7949C22.5901 31.8298 22.6467 31.8489 22.705 31.8493L23.9205 31.8593L24.1334 31.4282L24.2112 31.8619L24.6702 31.8659L24.5545 30.3192Z" fill="#2F2E41"/>
<path d="M30.8288 30.1543L30.2444 30.334L29.2578 28.1148L30.1205 27.8496L30.8288 30.1543Z" fill="#FFB6B6"/>
<path d="M30.8976 29.8359L30.742 29.8739L30.108 30.0276L29.9038 30.0775L30.0321 30.4959L29.301 31.422C29.2649 31.4677 29.2443 31.5238 29.2423 31.5821C29.2404 31.6403 29.257 31.6977 29.2899 31.7458C29.3228 31.794 29.3702 31.8303 29.4253 31.8496C29.4803 31.8689 29.54 31.8701 29.5958 31.853L30.758 31.4958L30.8305 31.0201L31.036 31.41L31.4745 31.2749L30.8976 29.8359Z" fill="#2F2E41"/>
<path d="M23.1604 10.3066L21.9935 13.6978L21.955 13.9691C21.661 14.2483 22.0303 14.3403 21.8919 14.4139C21.7534 14.4875 21.6602 14.6939 21.8469 14.7308C22.0335 14.7676 22.6352 27.9944 23.4289 28.508C24.2226 29.0216 24.7057 29.393 24.5599 28.6411C24.5011 28.3381 24.5842 26.7136 24.7044 24.8818C24.718 24.6742 24.9331 24.4544 24.7465 24.2526C24.5599 24.0507 24.7695 23.9179 24.7812 23.7504C24.9486 21.3583 25.1419 18.9966 25.1419 18.9966C25.1419 18.9966 26.3789 23.2448 26.7001 22.916C27.0214 22.5871 26.8942 23.3968 26.9924 23.6388C27.0744 23.841 26.7244 24.2381 27.2388 24.2442C27.7532 24.2503 28.9612 28.3796 29.0837 28.3749C29.3265 28.3657 30.009 28.3918 30.4142 28.3084C30.6144 28.2672 29.726 25.1409 28.9842 22.4412C28.925 22.2259 28.603 22.2209 28.8101 21.8053C29.0172 21.3896 27.9869 18.7002 28.0753 18.5758C28.31 18.2457 28.3993 18.1021 28.1679 18.0805C27.9365 18.0589 27.8681 18.1859 27.8556 17.8656C27.8431 17.5453 27.8031 16.7556 27.8031 16.7556C27.8031 16.7556 27.6355 13.6322 26.4616 11.9066L26.3614 10.8813L23.1604 10.3066Z" fill="#2F2E41"/>
<path d="M26.0774 3.83203L24.53 4.05237L24.4366 5.17288L23.673 6.36738C23.673 6.36738 21.9756 7.56187 23.1594 9.4488C22.7089 11.0743 22.261 12.6331 21.834 13.6724C21.5014 15.7347 24.4813 15.9324 27.888 15.2025C27.888 15.2025 27.841 14.3207 27.5318 13.8968C27.2227 13.4728 27.391 13.3803 27.391 13.3803L27.175 12.5883C27.2972 11.4434 26.8845 11.3407 26.6905 10.8118L27.2794 5.32365L26.0774 3.83203Z" fill="#6C63FF"/>
<path d="M18.6496 13.425C18.666 13.3148 18.7248 13.2154 18.8134 13.1479C18.902 13.0803 19.0134 13.05 19.124 13.0634C19.1464 13.0665 19.1685 13.0714 19.1902 13.0782L20.0865 11.8857L20.8516 12.1277L19.4471 13.6284C19.4123 13.7159 19.3494 13.7894 19.2684 13.8374C19.1874 13.8855 19.0928 13.9053 18.9993 13.8939C18.892 13.8798 18.7947 13.8236 18.7288 13.7378C18.663 13.6519 18.6339 13.5434 18.648 13.4361C18.6485 13.4324 18.6491 13.4287 18.6496 13.425Z" fill="#FFB6B6"/>
<path d="M26.6081 6.0003C26.5861 5.97302 26.5622 5.94641 26.5369 5.92046C26.3612 5.73936 26.1349 5.61554 25.8876 5.56521C25.6404 5.51488 25.3837 5.54039 25.1512 5.63839C25.1286 5.64769 25.1059 5.65834 25.084 5.669C24.289 6.05948 23.8599 6.31962 23.808 6.44137C23.79 6.48262 23.7747 6.52319 23.7594 6.56243C23.7448 6.60102 23.7308 6.6376 23.7162 6.67086C23.655 6.81324 23.5845 6.90173 23.4048 6.8618C23.3453 6.84724 23.2878 6.82511 23.2339 6.79596C23.2093 6.78397 23.1866 6.77134 23.1653 6.75935C23.0882 6.71679 23.0323 6.6862 22.9944 6.71413C22.9578 6.74139 22.9565 6.81058 22.9897 6.97092C23.0007 7.03784 22.9989 7.10623 22.9844 7.17248C22.9404 7.36573 22.8715 7.55246 22.7795 7.72798C22.6416 8.00313 22.4865 8.26932 22.3151 8.52498L20.7325 10.7816L20.6254 10.9339L20.5083 11.1009L19.5742 12.4328L19.6294 12.4893L19.861 12.7255L19.9122 12.778L19.9588 12.8259L20.0792 12.949L20.1923 13.0641L22.7156 11.0084L22.997 10.7789L23.5013 10.3678L24.5345 9.52622L26.4897 7.71668C26.6131 7.60336 26.7124 7.46629 26.7815 7.31367C26.8507 7.16106 26.8883 6.99605 26.8922 6.82854C26.8922 6.81723 26.8928 6.80658 26.8928 6.79528C26.8936 6.50518 26.7928 6.22396 26.6081 6.0003Z" fill="#6C63FF"/>
<path d="M25.1471 3.79132C26.1021 3.79132 26.8763 3.01715 26.8763 2.06216C26.8763 1.10718 26.1021 0.333008 25.1471 0.333008C24.1921 0.333008 23.418 1.10718 23.418 2.06216C23.418 3.01715 24.1921 3.79132 25.1471 3.79132Z" fill="#FFB6B6"/>
<path d="M27.4371 4.45976C27.6691 4.79189 27.8244 5.17152 27.8915 5.57109C27.7045 5.69074 27.4868 5.75358 27.2648 5.75201C27.2572 5.72293 27.2497 5.69386 27.2411 5.66478C27.1768 5.43963 27.0811 5.22466 26.9568 5.0262C26.9738 5.24021 26.9448 5.45539 26.8717 5.65725C26.7544 5.60393 26.6287 5.57149 26.5002 5.5614C26.3956 5.5614 26.2923 5.58573 26.1987 5.63247C26.0899 5.27173 25.9898 4.94005 25.9187 4.70206C25.9165 5.29865 25.0421 5.81878 24.088 5.7434C24.0536 5.72186 24.3992 4.74083 24.3658 4.71821C24.2894 4.6676 24.2151 4.61268 24.1408 4.55883C24.4531 4.07639 24.7923 3.55949 24.7341 3.48196C24.7384 3.57781 24.396 4.03871 24.0234 4.47376C23.8166 4.32192 24.9915 1.85158 24.4111 1.65128C24.4014 1.73851 24.2732 1.73851 24.1171 1.7202C24.0759 1.57628 24.0146 1.43889 23.9351 1.31206C23.9454 1.43982 23.9301 1.56835 23.8899 1.69005C23.7357 1.69009 23.5819 1.70633 23.4311 1.73851C23.3962 1.68361 23.3577 1.63108 23.3159 1.58128C23.32 1.64198 23.3182 1.70293 23.3105 1.76327C23.1565 1.79666 23.0294 1.83542 23.0111 1.86666C22.8905 1.8225 23.0962 1.62328 23.0208 1.5199C22.8292 1.26146 23.1135 0.884551 23.2933 0.617482C23.6627 0.0704353 24.4735 -0.119095 25.0475 0.209349C25.0734 0.119966 25.2058 0.060741 25.376 0.0208967C25.4481 0.00500224 25.5219 -0.00187152 25.5956 0.000434921C26.3279 0.0133564 27.3445 0.617481 27.3843 1.34868C27.3876 1.42191 27.3929 1.50159 27.3983 1.58667C27.45 2.40509 27.3865 3.15998 27.9454 3.75872C28.1478 3.97517 28.15 5.00035 28.0724 5.52802C27.8711 5.31588 27.7278 4.49099 27.4371 4.45976Z" fill="#2F2E41"/>
<path d="M10.7517 2.78116C10.5998 3.15944 10.1713 3.90335 10.1133 4.30916L10.1394 4.28347C10.1892 4.3686 10.2459 4.44956 10.3087 4.52558C10.4214 4.40723 10.5575 4.31365 10.7084 4.2508C10.626 4.41981 10.5783 4.60359 10.5681 4.79132C10.7298 5.29821 11.4773 5.07248 11.9154 5.01713C12.3528 5.51747 12.9347 5.64803 13.6968 5.36038C13.9099 5.38232 14.1485 5.39564 14.2978 5.2697C14.4472 5.14377 14.3582 4.91054 14.4386 4.73414C15.0109 3.47765 14.4827 3.02432 14.0339 2.45458C13.9352 2.3292 13.9356 2.1421 13.8154 2.02247C13.6487 1.85666 13.3931 1.80566 13.1574 1.7648C13.2187 1.76802 13.2797 1.75544 13.3346 1.72825C13.3896 1.70106 13.4366 1.66019 13.4711 1.60957C13.5015 1.55856 13.5171 1.50018 13.5164 1.44085C13.5156 1.38151 13.4985 1.32354 13.4669 1.27333C13.3826 1.13361 13.2075 1.05236 13.0385 1.03206C12.8721 1.02075 12.7049 1.03513 12.5428 1.07467C12.4378 1.08848 12.3361 1.12098 12.2426 1.17063C12.1984 1.19417 12.1625 1.23063 12.1397 1.27513C12.1168 1.31962 12.1081 1.37003 12.1147 1.41962C12.1287 1.46541 12.153 1.50744 12.1856 1.54256C12.2181 1.57768 12.2582 1.60499 12.3029 1.62246C12.3709 1.65121 12.4424 1.6708 12.5156 1.68069C12.1795 1.63707 11.838 1.69684 11.5366 1.85205C11.159 2.05349 10.9041 2.40308 10.7517 2.78116Z" fill="#2F2E41"/>
<path d="M12.7953 4.90218C13.5409 4.90218 14.1453 4.29775 14.1453 3.55216C14.1453 2.80657 13.5409 2.20215 12.7953 2.20215C12.0497 2.20215 11.4453 2.80657 11.4453 3.55216C11.4453 4.29775 12.0497 4.90218 12.7953 4.90218Z" fill="#C78F8F"/>
<path d="M11.4992 2.828C11.5774 3.06457 11.8011 3.1408 12.0079 3.18835C12.0731 3.20354 12.1387 3.2177 12.2048 3.2303C12.2293 3.19976 12.2552 3.16984 12.2824 3.14155C12.3951 3.02321 12.5312 2.92963 12.682 2.86678C12.6168 3.00028 12.5734 3.14339 12.5536 3.29064C12.6786 3.30878 12.8043 3.32359 12.9306 3.3351C13.0376 3.35786 13.1491 3.33867 13.2423 3.2815C13.3355 3.22433 13.4031 3.13355 13.4313 3.02792C13.5463 3.21605 13.6824 3.39322 13.8684 3.46796C13.9748 3.50618 14.0906 3.50932 14.1989 3.47692C14.3072 3.44453 14.4022 3.37829 14.4701 3.28793C14.5774 3.14052 14.6518 2.97181 14.6882 2.7932C14.741 2.5837 14.7703 2.34238 14.6667 2.20946C14.5836 2.10189 14.4404 2.09996 14.3082 2.1095C14.0165 2.13188 13.7279 2.1842 13.4469 2.26566L13.4231 2.31914C13.4714 2.02903 13.3667 1.74991 13.1729 1.65064C13.0421 1.58427 12.8849 1.5954 12.732 1.60886C12.5357 1.61762 12.3418 1.65513 12.1564 1.72018C11.9437 1.802 11.7615 1.94753 11.6347 2.13687C11.499 2.34282 11.4316 2.6237 11.4992 2.828Z" fill="#2F2E41"/>
<path d="M13.4205 1.56605C13.4072 1.56212 13.4417 1.56717 13.4297 1.56749C13.4356 1.56715 13.4416 1.56632 13.4474 1.56502C13.4484 1.56482 13.4618 1.56053 13.4529 1.56368C13.4729 1.55769 13.4908 1.54601 13.5044 1.53007C13.5361 1.49086 13.561 1.44658 13.578 1.3991C13.5994 1.33635 13.6339 1.27885 13.6791 1.23037C13.692 1.21748 13.7077 1.20779 13.725 1.2021C13.7423 1.1964 13.7607 1.19487 13.7786 1.19761C13.7966 1.20036 13.8137 1.20731 13.8285 1.2179C13.8433 1.22849 13.8554 1.24242 13.8638 1.25857C13.8809 1.32084 13.8751 1.38718 13.8474 1.44551C13.828 1.50486 13.7992 1.5607 13.7621 1.61088C13.6999 1.69293 13.6151 1.75511 13.5182 1.78984C13.4059 1.8306 13.2836 1.83409 13.1692 1.79981C13.1541 1.79354 13.1411 1.78302 13.1319 1.76951C13.1227 1.75601 13.1176 1.74011 13.1172 1.72376C13.1169 1.70741 13.1213 1.6913 13.1299 1.67741C13.1385 1.66352 13.151 1.65243 13.1658 1.64551L13.3566 1.56744C13.3666 1.56298 13.3774 1.56054 13.3884 1.56027C13.3994 1.55999 13.4103 1.56188 13.4205 1.56583C13.4308 1.56977 13.4401 1.5757 13.4481 1.58327C13.456 1.59085 13.4624 1.59991 13.4669 1.60995C13.4713 1.61999 13.4737 1.6308 13.474 1.64178C13.4743 1.65276 13.4724 1.66368 13.4684 1.67392C13.4644 1.68415 13.4585 1.69351 13.4509 1.70145C13.4433 1.70939 13.4342 1.71576 13.4242 1.72019L13.4238 1.72035L13.2331 1.79842L13.2297 1.64412C13.2535 1.65099 13.278 1.65518 13.3028 1.6566C13.3291 1.65925 13.3558 1.65812 13.3818 1.65327C13.4068 1.64999 13.4313 1.64401 13.455 1.63542C13.4702 1.62989 13.485 1.62359 13.4996 1.61654C13.5048 1.61398 13.5101 1.61132 13.5152 1.60856C13.5149 1.60876 13.5371 1.59584 13.5273 1.60191C13.552 1.58615 13.5751 1.56812 13.5965 1.54806C13.604 1.54095 13.6109 1.53323 13.6172 1.52498C13.6281 1.51164 13.6381 1.49766 13.6474 1.48314C13.6662 1.45238 13.681 1.4194 13.6917 1.38497C13.6965 1.37049 13.7006 1.35578 13.7039 1.34088C13.7049 1.3327 13.7063 1.32459 13.7084 1.31662C13.7154 1.29761 13.707 1.32771 13.7152 1.33595L13.7503 1.36186C13.7569 1.36383 13.7639 1.36428 13.7707 1.36319C13.7775 1.3621 13.784 1.3595 13.7896 1.35557C13.7938 1.34971 13.7929 1.35068 13.7869 1.35848C13.7799 1.36767 13.7736 1.37729 13.7678 1.38728C13.7552 1.41081 13.7438 1.43496 13.7337 1.45965C13.7127 1.51214 13.6861 1.56225 13.6545 1.60911C13.6235 1.65651 13.5784 1.69291 13.5255 1.71314C13.4726 1.73337 13.4146 1.73638 13.3599 1.72175C13.3394 1.71357 13.3229 1.69765 13.314 1.67743C13.3051 1.6572 13.3045 1.63428 13.3124 1.61362C13.3208 1.59327 13.3367 1.57694 13.3568 1.56808C13.377 1.55921 13.3998 1.55848 13.4205 1.56605Z" fill="#2F2E41"/>
</g>
<defs>
<clipPath id="clip0_3246_28423">
<rect width="48.081" height="32" fill="white"/>
</clipPath>
</defs>
</svg>
