<svg width="16" height="32" viewBox="0 0 16 32" fill="none" xmlns="http://www.w3.org/2000/svg">
<g clip-path="url(#clip0_3246_27967)">
<path d="M8.98923 28.5332L8.12891 28.5332L8.40621 30.7816L8.98912 30.7816L8.98923 28.5332Z" fill="#A0616A"/>
<path d="M8.21078 30.8336C8.09449 30.9573 7.18195 31.4249 7.22827 31.6412C7.22827 31.7117 7.25783 31.7753 7.30563 31.8201C7.34948 31.8625 7.4091 31.8881 7.47463 31.8881H8.57195L8.60595 31.8176L8.76116 31.4974L8.82128 31.8176L8.83458 31.8881H9.24847L9.24256 31.8171L9.13219 30.4937L8.98782 30.4848L8.36402 30.4478L8.21078 30.4385L8.21078 30.8336Z" fill="#2F2E41"/>
<path d="M5.343 22.7998L4.78906 23.4581L6.68798 24.6935L7.0633 24.2475L5.343 22.7998Z" fill="#A0616A"/>
<path d="M6.60315 24.8761C6.62292 25.0447 6.39319 26.044 6.58852 26.1478C6.64243 26.1932 6.7101 26.2115 6.77519 26.2038C6.83584 26.1975 6.89384 26.1684 6.93603 26.1182L7.64252 25.2786L7.6105 25.2072L7.46536 24.8823L7.74913 25.0425L7.81161 25.0777L8.07809 24.761L8.01999 24.7198L6.93624 23.9521L6.83651 24.0569L6.40661 24.5104L6.30078 24.6217L6.60315 24.8761Z" fill="#2F2E41"/>
<path d="M8.37574 14.5631L4.45703 12.893C5.30372 11.8087 4.93079 10.0774 4.94028 8.27441L8.8998 8.39087C8.83109 9.79131 8.4692 11.2306 9.56644 12.893L9.88968 13.8061L8.37574 14.5631Z" fill="#A0616A"/>
<path d="M4.45703 12.8936L4.47445 15.6117L7.25932 17.5285L7.96815 28.5966L9.13271 28.6548L9.54031 25.2776L10.7344 18.6882C10.7344 18.6882 10.6466 18.2902 10.8053 18.2969C10.9639 18.3037 10.7049 17.8826 10.8807 17.8805C10.9357 17.8799 10.9789 17.7547 11.0124 17.583C11.1199 17.0315 11.0535 16.4602 10.8373 15.9416L9.56644 12.8936C7.90323 13.7261 6.19614 13.6436 4.45703 12.8936Z" fill="#2F2E41"/>
<path d="M5.38267 15.0703L7.65495 17.1755C7.65495 17.1755 5.17268 18.2317 5.39921 18.3837C5.62574 18.5356 5.11359 18.485 5.11359 18.485L3.56522 19.6657L2.67708 20.0999L5.86139 22.8229L4.61332 23.8628L0.875012 21.0065C0.345808 20.7902 0 20.2753 0 19.7036C0 19.1962 0.273105 18.6699 0.714806 18.4202L4.47394 15.6115L5.38267 15.0703Z" fill="#2F2E41"/>
<path d="M4.8092 10.7925C4.62211 10.748 4.76337 10.7204 4.79986 10.7152C4.83635 10.7101 4.8216 10.5457 4.78628 10.6028C4.75095 10.66 4.45729 7.88118 4.45729 7.88118C4.24011 7.32324 3.5899 6.21701 4.12286 5.94569L5.98617 5.07227L7.73301 5.13049L9.59631 5.88746C9.93081 6.21837 9.58865 7.08094 9.40497 7.63024L9.23677 8.80921C9.23677 8.80921 8.89758 10.1964 9.02666 10.282C9.15574 10.3676 9.01017 10.3975 9.01017 10.3975C9.01017 10.3975 8.78112 10.3128 8.9871 10.5593C8.79842 10.8897 9.39763 12.8612 9.61507 12.8149C8.5045 13.9286 6.27057 13.5722 4.60744 12.4656C4.60744 12.4656 4.99629 10.8369 4.8092 10.7925Z" fill="white"/>
<path d="M10.8587 9.1264L8.25391 9.37221L8.28367 10.2878L11.5744 9.98119C11.9709 9.94425 12.2513 9.57623 12.1808 9.18428C12.0392 8.39722 10.6257 6.62993 10.3889 6.27254C10.0251 5.72333 9.53168 7.51631 9.53168 7.51631L10.8587 9.1264Z" fill="#A0616A"/>
<path d="M7.94129 10.3806C8.29504 10.3806 8.5818 10.0939 8.5818 9.74012C8.5818 9.38638 8.29504 9.09961 7.94129 9.09961C7.58755 9.09961 7.30078 9.38638 7.30078 9.74012C7.30078 10.0939 7.58755 10.3806 7.94129 10.3806Z" fill="#A0616A"/>
<path d="M4.78763 5.80418C4.78763 5.80418 4.80004 7.2531 4.21446 6.9513C3.8334 6.7549 1.13864 6.16852 0.630985 5.55064C0.378177 5.24294 0.443283 4.78489 0.771342 4.55913L3.4939 2.68555L3.9667 3.47012L1.81313 4.95595L4.78763 5.80418Z" fill="#A0616A"/>
<path d="M4.05848 3.63649C4.41222 3.63649 4.69899 3.34972 4.69899 2.99598C4.69899 2.64224 4.41222 2.35547 4.05848 2.35547C3.70474 2.35547 3.41797 2.64224 3.41797 2.99598C3.41797 3.34972 3.70474 3.63649 4.05848 3.63649Z" fill="#A0616A"/>
<path d="M2.63056 5.07227L5.07555 5.77939L4.56026 7.3565C4.27716 7.46073 3.96413 7.36927 3.78151 7.12905L2.45312 6.57459L2.63056 5.07227Z" fill="white"/>
<path d="M9.07937 5.7793L9.51028 5.82186C9.79357 5.71763 10.1065 5.80915 10.289 6.04931L11.5948 7.71931L9.88961 8.39118L8.58203 6.77013L9.07937 5.7793Z" fill="white"/>
<path d="M4.01877 30.9465C4.05442 31.0917 4.07245 31.2413 4.06998 31.3914L4.06995 31.3914C4.03047 31.4403 3.9906 31.4888 3.95111 31.5377C3.94961 31.5396 3.9481 31.5415 3.94622 31.5434C3.86837 31.6389 3.79052 31.7352 3.71267 31.8307C3.8082 31.8484 3.90598 31.854 4.00301 31.848C3.99963 31.8597 3.99624 31.8717 3.99248 31.8834H2.9432C2.81608 31.6088 2.71716 31.3207 2.64947 31.0259H2.64909C2.02988 31.2378 1.45101 31.1687 1.31624 30.4411C1.17783 30.2902 1.06727 30.1154 0.987913 29.9269C0.990542 29.9266 0.992799 29.9262 0.995431 29.9258L0.999089 29.9253C1.1605 29.9003 1.20758 29.6892 1.07135 29.5991C1.04747 29.5833 1.02302 29.5683 0.998066 29.5542C0.954439 29.5298 0.909309 29.508 0.863051 29.4892L0.861781 29.4809C0.83568 29.3075 1.02732 29.1892 1.17687 29.2807C1.48754 29.4709 1.89439 29.558 2.18237 29.7946C2.37568 29.9533 2.50882 30.1823 2.55658 30.4275L2.55771 30.4354C2.5389 30.2128 2.53739 29.9886 2.5547 29.7656C2.56861 29.5888 2.59343 29.4128 2.62916 29.2387C2.66902 29.0416 2.72281 28.8472 2.79013 28.6576C2.77546 28.6505 2.76117 28.643 2.7465 28.6355C2.08203 28.6218 1.61668 28.3182 1.83223 27.4846C1.80967 27.397 1.79425 27.3079 1.78522 27.218L1.78887 27.2174C1.95028 27.1925 1.99736 26.9813 1.86114 26.8912C1.83726 26.8754 1.81281 26.8605 1.78785 26.8464C1.78818 26.8433 1.78851 26.8401 1.78886 26.837C1.82441 26.5138 2.23826 26.4025 2.44008 26.6575C2.6081 26.8698 2.7989 27.0766 2.90069 27.3222C2.99012 27.5377 3.04257 27.872 3.00704 28.1496C3.13276 27.8998 3.28188 27.6621 3.4543 27.441C3.4637 27.429 3.47348 27.4173 3.48288 27.4053C3.39149 27.259 3.37718 27.0741 3.27302 26.9374C3.10931 26.7226 3.11189 26.4993 3.37871 26.3646C3.5036 26.0447 3.74286 26.0036 3.91651 26.239C3.95143 26.2864 4.00865 26.3105 4.04062 26.359C4.02332 26.3804 4.08688 26.7298 4.10982 26.7268C4.09628 26.8084 4.0677 26.8885 4.03122 26.963C3.92968 27.1695 3.76157 27.3417 3.55998 27.4519C3.14064 27.9743 2.84992 28.5997 2.71567 29.2564C2.69084 29.3779 2.67166 29.5005 2.65774 29.6238C2.64082 29.7746 2.63255 29.9258 2.63255 30.077C2.63255 30.6787 2.76455 31.2771 3.01541 31.8251C2.9887 31.707 2.98193 31.5844 2.99698 31.464C3.03054 31.1914 3.16684 30.9331 3.2739 30.6753C3.39452 30.3847 3.80681 30.3827 3.92846 30.6728C3.92967 30.6757 3.93087 30.6786 3.93206 30.6815L3.92301 30.7175C3.832 30.8046 3.89848 30.954 4.01877 30.9465Z" fill="#F2F2F2"/>
<path d="M12.2668 31.0627C12.2312 31.2079 12.2132 31.3575 12.2156 31.5076L12.2157 31.5076C12.2551 31.5565 12.295 31.6051 12.3345 31.6539C12.336 31.6558 12.3375 31.6577 12.3394 31.6596C12.4172 31.7551 12.4951 31.8514 12.5729 31.9469C12.4774 31.9646 12.3796 31.9702 12.2826 31.9642C12.286 31.9759 12.2894 31.9879 12.2931 31.9996H13.3424C13.4695 31.725 13.5684 31.4369 13.6361 31.1421H13.6365C14.2557 31.354 14.8346 31.285 14.9694 30.5573C15.1078 30.4065 15.2183 30.2316 15.2977 30.0432C15.2951 30.0428 15.2928 30.0424 15.2902 30.042L15.2865 30.0415C15.1251 30.0165 15.078 29.8054 15.2143 29.7153C15.2381 29.6995 15.2626 29.6845 15.2875 29.6704C15.3312 29.646 15.3763 29.6242 15.4226 29.6054L15.4238 29.5971C15.4499 29.4237 15.2583 29.3054 15.1087 29.3969C14.7981 29.5871 14.3912 29.6742 14.1032 29.9108C13.9099 30.0695 13.7768 30.2985 13.729 30.5437L13.7279 30.5516C13.7467 30.329 13.7482 30.1048 13.7309 29.8818C13.717 29.705 13.6922 29.529 13.6564 29.3549C13.6166 29.1578 13.5628 28.9634 13.4955 28.7739C13.5101 28.7667 13.5244 28.7592 13.5391 28.7517C14.2036 28.738 14.6689 28.4344 14.4534 27.6008C14.4759 27.5132 14.4914 27.4241 14.5004 27.3342L14.4967 27.3336C14.3353 27.3087 14.2882 27.0975 14.4245 27.0074C14.4483 26.9916 14.4728 26.9767 14.4978 26.9626L14.4967 26.9532C14.4612 26.63 14.0473 26.5187 13.8455 26.7737C13.6775 26.986 13.4867 27.1928 13.3849 27.4384C13.2955 27.6539 13.243 27.9882 13.2786 28.2658C13.1528 28.0161 13.0037 27.7784 12.8313 27.5572C12.8219 27.5452 12.8121 27.5335 12.8027 27.5215C12.8941 27.3752 12.9084 27.1903 13.0126 27.0536C13.1763 26.8388 13.1737 26.6155 12.9069 26.4808C12.782 26.1609 12.5427 26.1198 12.3691 26.3552C12.3342 26.4026 12.277 26.4267 12.245 26.4752C12.2623 26.4966 12.1987 26.846 12.1758 26.843C12.1893 26.9246 12.2179 27.0047 12.2544 27.0792C12.3559 27.2857 12.524 27.4579 12.7256 27.5681C13.145 28.0905 13.4357 28.7159 13.5699 29.3726C13.5948 29.4941 13.6139 29.6167 13.6279 29.74C13.6448 29.8908 13.6531 30.042 13.6531 30.1932C13.6531 30.795 13.5211 31.3933 13.2702 31.9413C13.2969 31.8232 13.3037 31.7006 13.2886 31.5802C13.2551 31.3076 13.1188 31.0493 13.0117 30.7915C12.8911 30.501 12.4788 30.499 12.3571 30.789C12.3559 30.7919 12.3547 30.7948 12.3535 30.7977L12.3626 30.8337C12.4536 30.9208 12.3871 31.0702 12.2668 31.0627Z" fill="#F2F2F2"/>
<path d="M15.7828 31.8379H1.03414C0.995706 31.8379 0.964844 31.8688 0.964844 31.9072C0.964844 31.9456 0.995706 31.9765 1.03414 31.9765H15.7828C15.8212 31.9765 15.8521 31.9456 15.8521 31.9072C15.8521 31.8687 15.8212 31.8379 15.7828 31.8379Z" fill="#CCCCCC"/>
<path d="M7.10437 4.82435C6.55197 4.62015 5.43263 5.31032 5.52931 4.62943C5.60607 4.0867 5.17818 6.94079 5.07203 6.90776C4.88552 6.84951 5.40552 3.01402 5.2961 2.76681C5.28205 2.73485 5.26572 2.7011 5.24645 2.66594C5.22652 2.62829 5.20399 2.58886 5.17851 2.54731C5.17786 2.54624 5.17688 2.54518 5.17622 2.54411C5.08803 1.57693 6.03362 0.782017 7.23268 0.88147H7.23366C7.35549 0.89106 7.48125 0.911306 7.60765 0.940432H8.20342C8.26777 0.940432 8.33081 0.944339 8.39319 0.951443C8.63327 0.979502 8.85701 1.06155 9.05331 1.18445C9.31723 1.34996 9.48152 1.64406 9.50733 1.93603C9.52758 2.15944 9.4665 2.38179 9.30776 2.54411L9.3058 2.54447C9.3267 2.63433 9.3414 2.72632 9.35022 2.82009C9.35708 2.88758 9.36002 2.95613 9.36002 3.02503C9.36002 3.03924 9.36002 3.05381 9.35904 3.06766C9.34303 3.92224 8.82369 4.65074 8.09139 4.9562C8.08519 4.9588 8.07861 4.96144 8.07173 4.96411C7.87566 5.04021 7.76097 5.01726 7.55783 4.96775C7.40149 4.92965 7.25127 4.87865 7.10437 4.82435Z" fill="#2F2E41"/>
<path d="M7.09001 4.55893C7.86891 4.55893 8.50033 3.9275 8.50033 3.1486C8.50033 2.3697 7.86891 1.73828 7.09001 1.73828C6.31111 1.73828 5.67969 2.3697 5.67969 3.1486C5.67969 3.9275 6.31111 4.55893 7.09001 4.55893Z" fill="#A0616A"/>
<path d="M5.86328 2.55188C5.86328 2.52706 5.86394 2.50289 5.86557 2.47806C5.90313 1.76176 6.48878 1.45016 7.21749 1.42109C7.23676 1.42011 7.25603 1.41946 7.2753 1.41946H7.79856C7.79856 1.36328 7.81718 1.31167 7.84952 1.27051C7.86846 1.24504 7.89263 1.22381 7.91974 1.2078C7.92039 1.2078 7.92039 1.20747 7.92072 1.20747C7.95796 1.18559 8.00075 1.17285 8.0468 1.17285C8.05399 1.17285 8.06183 1.17351 8.06999 1.17383C8.18235 1.18428 8.2921 1.20127 8.40021 1.22381C8.45313 1.23491 8.50604 1.24765 8.55765 1.2617C8.5619 1.26267 8.56549 1.26366 8.56973 1.26463C8.74024 1.31167 8.90453 1.37308 9.06033 1.44885C9.23443 1.55403 9.38631 1.69056 9.50847 1.85061C9.52872 2.05606 9.46764 2.26053 9.3089 2.4098L9.30694 2.41012C9.32784 2.49276 9.34254 2.57736 9.35136 2.66359C9.35822 2.72565 9.36116 2.78869 9.36116 2.85205C9.36116 2.86512 9.36116 2.87851 9.36018 2.89125C9.34417 3.67712 8.71247 6.65957 7.98017 6.94047C8.02296 6.75135 8.17288 4.29118 8.19476 4.22194C8.53054 3.1679 8.2823 2.87296 7.79856 2.55188H7.32887C7.23741 2.4147 7.19234 2.24681 7.20442 2.08219C7.13942 2.2308 7.10349 2.39085 7.09696 2.55188C6.86375 2.85957 6.4793 2.83572 6.00732 2.62178C5.9825 2.61068 5.95801 2.59891 5.93351 2.58716C5.90999 2.57573 5.8868 2.56429 5.86328 2.55188Z" fill="#2F2E41"/>
<path d="M8.95647 2.60826C9.46962 2.60826 9.8856 2.19227 9.8856 1.67913C9.8856 1.16599 9.46962 0.75 8.95647 0.75C8.44333 0.75 8.02734 1.16599 8.02734 1.67913C8.02734 2.19227 8.44333 2.60826 8.95647 2.60826Z" fill="#2F2E41"/>
<path d="M8.3586 0.125021C8.75565 0.450086 9.3603 0.306454 9.48316 0.804673C9.60602 1.30289 9.30173 1.80637 8.80351 1.92923C8.30529 2.05209 7.7845 1.75175 7.67895 1.24958C7.53659 0.572364 7.79692 -0.33483 8.3586 0.125021Z" fill="#2F2E41"/>
</g>
<defs>
<clipPath id="clip0_3246_27967">
<rect width="15.8527" height="32" fill="white"/>
</clipPath>
</defs>
</svg>
