<svg width="35" height="32" viewBox="0 0 35 32" fill="none" xmlns="http://www.w3.org/2000/svg">
<g clip-path="url(#clip0_3246_28465)">
<path d="M31.5453 25.6372L28.7344 21.4619C28.7344 21.4619 32.9913 22.948 32.5082 25.6372H31.5453Z" fill="#E5E5E5"/>
<path d="M2.4114 25.6646L2.30469 25.6625C2.34596 24.476 2.47255 23.294 2.68349 22.1258C3.14492 19.6244 3.91221 17.9817 4.96404 17.2432L5.02531 17.3305C2.56823 19.0557 2.41265 25.5987 2.4114 25.6646Z" fill="#E5E5E5"/>
<path d="M3.74343 25.639L3.63672 25.6369C3.63901 25.5187 3.70571 22.7337 4.80213 21.9639L4.86341 22.0512C3.81122 22.7899 3.74395 25.6106 3.74343 25.639Z" fill="#E5E5E5"/>
<path d="M5.6312 17.3405C5.92588 17.3405 6.16475 17.1017 6.16475 16.807C6.16475 16.5123 5.92588 16.2734 5.6312 16.2734C5.33653 16.2734 5.09766 16.5123 5.09766 16.807C5.09766 17.1017 5.33653 17.3405 5.6312 17.3405Z" fill="white"/>
<path d="M5.36558 21.9284C5.66025 21.9284 5.89913 21.6895 5.89913 21.3949C5.89913 21.1002 5.66025 20.8613 5.36558 20.8613C5.07091 20.8613 4.83203 21.1002 4.83203 21.3949C4.83203 21.6895 5.07091 21.9284 5.36558 21.9284Z" fill="white"/>
<path d="M3.49333 17.6597C3.5936 18.3002 3.33226 18.8731 3.33226 18.8731C3.33226 18.8731 2.90834 18.4075 2.80807 17.767C2.70779 17.1266 2.96914 16.5537 2.96914 16.5537C2.96914 16.5537 3.39306 17.0193 3.49333 17.6597Z" fill="#E5E5E5"/>
<path d="M5.23845 19.2157C4.62524 19.4261 4.01562 19.2685 4.01562 19.2685C4.01562 19.2685 4.4002 18.77 5.01341 18.5596C5.62661 18.3493 6.23623 18.5068 6.23623 18.5068C6.23623 18.5068 5.85165 19.0054 5.23845 19.2157Z" fill="#E5E5E5"/>
<path d="M5.25945 23.2791C4.98191 23.3662 4.68636 23.379 4.40234 23.3161C4.58268 23.0865 4.82555 22.9139 5.10171 22.8192C5.37786 22.7245 5.67552 22.7116 5.95881 22.7822C5.77322 23.0062 5.53205 23.1775 5.25945 23.2791Z" fill="#E5E5E5"/>
<path d="M34.5739 25.7434H0.0533548C0.0392042 25.7434 0.025634 25.7378 0.015628 25.7278C0.00562206 25.7178 0 25.7042 0 25.6901C0 25.6759 0.00562206 25.6623 0.015628 25.6523C0.025634 25.6423 0.0392042 25.6367 0.0533548 25.6367H34.5739C34.588 25.6367 34.6016 25.6423 34.6116 25.6523C34.6216 25.6623 34.6272 25.6759 34.6272 25.6901C34.6272 25.7042 34.6216 25.7178 34.6116 25.7278C34.6016 25.7378 34.588 25.7434 34.5739 25.7434Z" fill="#CBCBCB"/>
<path d="M21.8661 28.2032L21.4296 29.3393L16.8398 28.1963L17.484 26.5195L21.8661 28.2032Z" fill="#FFB7B7"/>
<path d="M23.078 28.3371L21.6705 32.0004L21.6242 31.9826C21.246 31.8373 20.9411 31.5477 20.7764 31.1776C20.6118 30.8075 20.6009 30.3871 20.7461 30.009L20.7461 30.0089L21.6058 27.7715L23.078 28.3371Z" fill="#2F2E41"/>
<path d="M14.8885 13.9785L12.8883 14.1658L12.7891 20.1171C12.8156 20.4088 12.9553 20.6785 13.1782 20.8684C13.4011 21.0583 13.6895 21.1534 13.9817 21.1333L15.2499 21.0459L14.8885 13.9785Z" fill="#E5E5E5"/>
<path d="M21.9418 13.6856L20.5733 13.668L20.4922 20.7394C20.7946 20.7495 21.0959 20.6971 21.3772 20.5856C21.6585 20.4741 21.9138 20.3059 22.1272 20.0913C22.3406 19.8768 22.5075 19.6206 22.6175 19.3387C22.7275 19.0568 22.7782 18.7553 22.7665 18.4529L21.9418 13.6856Z" fill="#E5E5E5"/>
<path d="M14.0008 23.2512C13.9684 23.4564 13.9213 23.6589 13.86 23.8573C13.7909 24.0515 13.6843 24.2311 13.6212 24.4273C13.4199 25.0527 13.6989 25.7499 14.1446 26.2327C14.5311 26.6496 15.0299 26.9458 15.581 27.0856C15.983 27.1867 16.401 27.2013 16.8153 27.2153C17.9626 27.2542 19.1394 27.289 20.2265 26.9203C20.57 26.801 20.9017 26.6502 21.2176 26.4701C21.3173 26.4226 21.4051 26.3534 21.4747 26.2676C21.5576 26.1496 21.5682 25.9965 21.5675 25.8522C21.5651 25.3659 21.4665 24.882 21.4899 24.3962C21.5028 24.1271 21.5532 23.8582 21.5284 23.59C21.4941 23.2853 21.3665 22.9987 21.163 22.7694C20.9595 22.54 20.6901 22.3792 20.3917 22.3088C20.0834 22.2426 19.7635 22.2787 19.4495 22.3089C18.6345 22.3872 17.8161 22.4238 16.9974 22.4185C16.1608 22.4132 15.3295 22.2855 14.4971 22.2721C14.251 22.2682 14.2559 22.3441 14.1776 22.5823C14.1054 22.8016 14.0464 23.0249 14.0008 23.2512Z" fill="#2F2E41"/>
<path d="M10.7301 22.8559C10.5052 22.7994 10.2734 22.7747 10.0416 22.7827C9.79802 22.7962 9.56013 22.8613 9.3437 22.9739C9.12728 23.0864 8.9373 23.2437 8.78638 23.4353C8.63546 23.627 8.52706 23.8485 8.4684 24.0853C8.40974 24.3221 8.40216 24.5686 8.44615 24.8085C8.50233 25.0684 8.59414 25.3193 8.71899 25.5541C8.90159 25.9246 9.12059 26.2943 9.45863 26.5318C9.65637 26.6707 9.88523 26.7573 10.1114 26.8425L11.8918 27.5132C12.1537 27.6119 12.4156 27.7106 12.6801 27.8021C14.009 28.2614 15.3944 28.5368 16.7979 28.6207C17.2254 28.6461 17.6594 28.6532 18.0764 28.5559C18.1754 28.5328 18.281 28.4984 18.3383 28.4144C18.3722 28.3553 18.3922 28.2892 18.3968 28.2212L18.5063 27.4542C18.5217 27.3463 18.5366 27.2326 18.497 27.1309C18.4468 27.002 18.321 26.9209 18.2011 26.8521C17.0306 26.1798 15.6639 25.8089 14.6787 24.8862C14.4468 24.669 14.2527 24.3247 13.9709 24.1772C13.6514 24.0099 13.275 23.9144 12.9447 23.7602C12.2226 23.4231 11.5127 23.0358 10.7301 22.8559Z" fill="#2F2E41"/>
<path opacity="0.1" d="M12.5082 23.8901C13.1375 24.0873 15.7943 25.4534 16.2497 25.9304C16.1887 25.9524 14.1176 24.7917 14.0555 24.7731C13.4906 24.6035 12.9225 24.4329 12.3861 24.1848C12.2781 24.1349 11.685 23.9003 11.7118 23.7641C11.7421 23.6104 12.3965 23.8551 12.5082 23.8901Z" fill="black"/>
<path d="M16.3061 11.9785L14.6117 13.2649C14.6117 13.2649 12.8239 13.3209 12.8843 14.4637C12.9447 15.6066 13.6603 21.0177 13.6603 21.0177L13.8155 22.8796L16.7603 23.7186C18.3514 24.172 20.0325 24.208 21.6415 23.8232L21.2916 21.9554C21.2916 21.9554 22.7086 13.4724 21.855 13.0989C21.0013 12.7255 20.4677 12.8322 20.4677 12.8322L19.3977 11.8984L16.3061 11.9785Z" fill="#E5E5E5"/>
<path d="M21.3202 9.8999C21.3202 11.57 19.7759 11.3174 17.871 11.3174C15.9661 11.3174 14.4219 11.57 14.4219 9.8999C14.4219 8.22984 15.1762 5.26953 17.871 5.26953C20.6587 5.26953 21.3202 8.22984 21.3202 9.8999Z" fill="#2F2E41"/>
<path d="M19.6618 10.4664C20.5682 9.55997 20.5682 8.09042 19.6618 7.18403C18.7554 6.27764 17.2858 6.27764 16.3794 7.18403C15.4731 8.09042 15.4731 9.55997 16.3794 10.4664C17.2858 11.3727 18.7554 11.3727 19.6618 10.4664Z" fill="#FFB7B7"/>
<path d="M15.1758 8.7665H16.0938L16.4987 7.63253L16.5797 8.7665H17.0185L17.2547 8.10502L17.302 8.7665H20.5621C20.5621 8.11488 20.3033 7.48995 19.8425 7.02919C19.3818 6.56843 18.7568 6.30957 18.1052 6.30957H17.6327C16.9811 6.30957 16.3562 6.56843 15.8954 7.02919C15.4346 7.48995 15.1758 8.11488 15.1758 8.7665Z" fill="#2F2E41"/>
<path d="M20.2005 12.2451H15.5586V17.8474H20.2005V12.2451Z" fill="white"/>
<path d="M15.8125 28.1505L16.249 29.2866L20.8388 28.1436L20.1946 26.4668L15.8125 28.1505Z" fill="#FFB7B7"/>
<path d="M16.0738 27.7178L16.9334 29.9552L16.9334 29.9552C17.0787 30.3334 17.0678 30.7538 16.9031 31.1239C16.7384 31.494 16.4335 31.7836 16.0554 31.9289L16.009 31.9467L14.6016 28.2834L16.0738 27.7178Z" fill="#2F2E41"/>
<path d="M24.9884 22.4214C25.3572 22.329 25.7394 22.3029 26.1173 22.3443C26.419 22.3775 26.73 22.4615 26.9503 22.6704C27.2185 22.9246 27.3046 23.3178 27.3118 23.6873C27.3236 24.4231 27.0795 25.1403 26.6213 25.7162C26.5094 25.8619 26.3764 25.99 26.2265 26.0962C26.0649 26.1973 25.8927 26.2803 25.7129 26.3437L21.7258 27.9164C20.6769 28.3301 19.6243 28.745 18.5302 29.0178C18.4707 29.0465 18.4023 29.0504 18.3399 29.0286C18.2775 29.0069 18.2264 28.9612 18.1977 28.9017C18.1968 28.8999 18.1959 28.8981 18.1951 28.8963C17.8458 28.3973 17.5527 27.8612 17.3212 27.2977C17.3103 27.2844 17.3027 27.2685 17.2992 27.2516C17.2956 27.2347 17.2962 27.2171 17.3009 27.2004C17.3055 27.1838 17.3142 27.1685 17.326 27.1559C17.3378 27.1432 17.3525 27.1337 17.3688 27.1279L20.1889 25.5076C20.3909 25.3915 20.5952 25.2738 20.7629 25.1121C20.8848 24.994 20.9846 24.855 21.0576 24.7018C21.1161 24.5797 21.1215 24.2916 21.1962 24.2013C21.2693 24.113 21.5194 24.1059 21.6349 24.0712C21.7978 24.0213 21.9573 23.961 22.1125 23.8906C22.7433 23.6084 23.3051 23.1984 23.9098 22.8679C24.249 22.674 24.6114 22.524 24.9884 22.4214Z" fill="#2F2E41"/>
<path opacity="0.1" d="M23.3898 23.6311C22.9053 23.995 22.278 24.3295 21.7978 24.703C21.6339 24.8304 18.9019 26.3664 18.8633 26.5704C19.3113 26.6459 22.165 24.6494 22.5733 24.4502C22.9816 24.251 23.3436 23.9701 23.7022 23.6912C23.7936 23.6202 24.181 23.4065 23.9186 23.3271C23.7708 23.2824 23.499 23.5583 23.3898 23.6311Z" fill="black"/>
<path d="M32.0969 9.58836C33.0177 9.58836 33.7641 8.84191 33.7641 7.92113C33.7641 7.00035 33.0177 6.25391 32.0969 6.25391C31.1761 6.25391 30.4297 7.00035 30.4297 7.92113C30.4297 8.84191 31.1761 9.58836 32.0969 9.58836Z" fill="#F1F1F1"/>
<path d="M29.0133 9.88694C29.6592 9.88694 30.1828 9.36332 30.1828 8.7174C30.1828 8.07147 29.6592 7.54785 29.0133 7.54785C28.3674 7.54785 27.8438 8.07147 27.8438 8.7174C27.8438 9.36332 28.3674 9.88694 29.0133 9.88694Z" fill="#F1F1F1"/>
<path d="M7.5862 9.12455C8.10411 9.12455 8.52397 8.7047 8.52397 8.18679C8.52397 7.66887 8.10411 7.24902 7.5862 7.24902C7.06829 7.24902 6.64844 7.66887 6.64844 8.18679C6.64844 8.7047 7.06829 9.12455 7.5862 9.12455Z" fill="#F1F1F1"/>
<path d="M9.13049 9.75512C9.4938 9.75512 9.78833 9.4606 9.78833 9.09729C9.78833 8.73398 9.4938 8.43945 9.13049 8.43945C8.76718 8.43945 8.47266 8.73398 8.47266 9.09729C8.47266 9.4606 8.76718 9.75512 9.13049 9.75512Z" fill="#F1F1F1"/>
<path d="M18.2286 1.43367C18.6245 1.43367 18.9454 1.11273 18.9454 0.716836C18.9454 0.320938 18.6245 0 18.2286 0C17.8327 0 17.5117 0.320938 17.5117 0.716836C17.5117 1.11273 17.8327 1.43367 18.2286 1.43367Z" fill="#F1F1F1"/>
<path opacity="0.17" d="M13.957 15.8198L14.0211 15.3252C14.0211 15.3252 16.4114 15.4997 16.0379 16.0866C15.6644 16.6735 14.7574 16.7268 14.7574 16.7268L13.957 15.8198Z" fill="#2F2E41"/>
<path d="M15.7613 13.6697C15.8982 13.6848 16.0301 13.73 16.1475 13.802C16.2649 13.8741 16.3648 13.9713 16.4402 14.0866C16.5089 14.1918 16.5556 14.3098 16.5776 14.4335C16.5995 14.5572 16.5962 14.684 16.5679 14.8064C16.5396 14.9289 16.4868 15.0443 16.4128 15.1458C16.3387 15.2473 16.2449 15.3328 16.137 15.3971C16.0975 15.4205 16.0561 15.4408 16.0135 15.4578L14.5443 19.9518C14.5017 20.0404 14.442 20.1198 14.3687 20.1854C14.2953 20.2509 14.2097 20.3013 14.1169 20.3336C14.024 20.366 13.9256 20.3796 13.8274 20.3738C13.7292 20.368 13.6331 20.3429 13.5447 20.2998C13.4563 20.2568 13.3772 20.1967 13.3121 20.123C13.2469 20.0493 13.197 19.9634 13.1652 19.8703C13.1333 19.7773 13.1202 19.6788 13.1266 19.5807C13.1329 19.4825 13.1586 19.3866 13.2021 19.2984L14.7645 14.8543C14.722 14.7073 14.7163 14.552 14.7481 14.4023C14.7798 14.2525 14.848 14.1129 14.9465 13.9958C15.0451 13.8786 15.171 13.7876 15.3131 13.7307C15.4552 13.6739 15.6092 13.6529 15.7613 13.6697Z" fill="#FFB7B7"/>
<path d="M13.9783 15.3672C13.9783 15.3672 14.8201 16.8055 16.0372 16.0864L14.8577 20.6002H13.864L12.8359 20.4082L13.1238 18.5433L13.9783 15.3672Z" fill="#E5E5E5"/>
<path d="M19.9904 16.3508L19.293 15.3934C19.293 15.3934 19.6282 14.4003 20.9278 14.7635C20.9278 14.7635 21.7549 16.6147 19.9904 16.3508Z" fill="#E5E5E5"/>
<path opacity="0.17" d="M19.9904 16.3508L19.293 15.3934C19.293 15.3934 19.6282 14.4003 20.9278 14.7635C20.9278 14.7635 21.7549 16.6147 19.9904 16.3508Z" fill="#2F2E41"/>
<path d="M20.1731 13.0049C20.3743 13.0984 20.5352 13.2611 20.6266 13.4632C20.718 13.6654 20.7338 13.8937 20.6711 14.1065L22.2336 18.5506C22.2771 18.6388 22.3028 18.7347 22.3091 18.8329C22.3155 18.931 22.3023 19.0295 22.2705 19.1225C22.2387 19.2156 22.1888 19.3015 22.1236 19.3752C22.0585 19.4489 21.9794 19.509 21.891 19.5521C21.8025 19.5951 21.7065 19.6203 21.6083 19.6261C21.5101 19.6319 21.4117 19.6182 21.3188 19.5859C21.2259 19.5535 21.1403 19.5031 21.067 19.4376C20.9936 19.372 20.9339 19.2926 20.8914 19.204L19.4222 14.71C19.3795 14.693 19.3382 14.6727 19.2986 14.6493C19.1907 14.585 19.0969 14.4995 19.0229 14.398C18.9488 14.2965 18.8961 14.181 18.8677 14.0586C18.8394 13.9362 18.8361 13.8094 18.8581 13.6857C18.88 13.5619 18.9267 13.444 18.9954 13.3388C19.0708 13.2235 19.1708 13.1263 19.2882 13.0542C19.4056 12.9821 19.5374 12.937 19.6744 12.9219C19.8451 12.9025 20.0178 12.9313 20.1731 13.0049Z" fill="#FFB7B7"/>
<path d="M19.293 15.3926C19.293 15.3926 20.4436 16.0908 20.9278 14.7627L22.5492 19.0318L22.0674 19.8744L21.9977 19.8802C21.7103 19.9042 21.4214 19.858 21.1557 19.7457C20.8901 19.6334 20.6557 19.4583 20.4727 19.2354C20.0993 18.7808 19.8452 18.2403 19.7332 17.6628L19.293 15.3926Z" fill="#E5E5E5"/>
</g>
<defs>
<clipPath id="clip0_3246_28465">
<rect width="34.6272" height="32" fill="white"/>
</clipPath>
</defs>
</svg>
