<svg width="40" height="32" viewBox="0 0 40 32" fill="none" xmlns="http://www.w3.org/2000/svg">
<g clip-path="url(#clip0_3246_28762)">
<path d="M38.2974 27.9883H0V28.4106H38.2974V27.9883Z" fill="#3F3D56"/>
<path d="M38.2974 31.5781H0V32.0004H38.2974V31.5781Z" fill="#3F3D56"/>
<path d="M34.9938 28.3772C34.9709 28.3398 34.4313 27.4387 34.2442 25.5675C34.0726 23.8507 34.1829 20.9571 35.6836 16.9206C38.5266 9.27381 35.0284 3.10397 34.9927 3.04251L35.1653 2.94238C35.1743 2.95797 36.077 4.53104 36.6103 7.03591C37.3148 10.3568 37.0583 13.8098 35.8706 16.9901C33.0324 24.6239 35.1425 28.2376 35.1641 28.2733L34.9938 28.3772Z" fill="#3F3D56"/>
<path d="M33.8825 2.59311C34.5986 2.59311 35.1791 2.01263 35.1791 1.29656C35.1791 0.580489 34.5986 0 33.8825 0C33.1664 0 32.5859 0.580489 32.5859 1.29656C32.5859 2.01263 33.1664 2.59311 33.8825 2.59311Z" fill="#3F3D56"/>
<path d="M37.9723 7.38022C38.6884 7.38022 39.2689 6.79974 39.2689 6.08367C39.2689 5.3676 38.6884 4.78711 37.9723 4.78711C37.2563 4.78711 36.6758 5.3676 36.6758 6.08367C36.6758 6.79974 37.2563 7.38022 37.9723 7.38022Z" fill="#3F3D56"/>
<path d="M35.1794 10.5716C35.8954 10.5716 36.4759 9.99114 36.4759 9.27507C36.4759 8.559 35.8954 7.97852 35.1794 7.97852C34.4633 7.97852 33.8828 8.559 33.8828 9.27507C33.8828 9.99114 34.4633 10.5716 35.1794 10.5716Z" fill="#6C63FF"/>
<path d="M38.57 13.265C39.2861 13.265 39.8666 12.6845 39.8666 11.9684C39.8666 11.2524 39.2861 10.6719 38.57 10.6719C37.8539 10.6719 37.2734 11.2524 37.2734 11.9684C37.2734 12.6845 37.8539 13.265 38.57 13.265Z" fill="#6C63FF"/>
<path d="M34.1794 17.4535C34.8954 17.4535 35.4759 16.873 35.4759 16.1569C35.4759 15.4408 34.8954 14.8604 34.1794 14.8604C33.4633 14.8604 32.8828 15.4408 32.8828 16.1569C32.8828 16.873 33.4633 17.4535 34.1794 17.4535Z" fill="#3F3D56"/>
<path d="M35.7778 28.424C35.7778 28.424 34.4812 25.2325 38.3709 22.8389L35.7778 28.424Z" fill="#3F3D56"/>
<path d="M34.1806 28.367C34.1806 28.367 33.5905 24.9731 29.0234 25.0021L34.1806 28.367Z" fill="#3F3D56"/>
<path d="M6.36566 19.9882C7.42193 19.9882 8.2782 19.1319 8.2782 18.0756C8.2782 17.0194 7.42193 16.1631 6.36566 16.1631C5.3094 16.1631 4.45312 17.0194 4.45312 18.0756C4.45312 19.1319 5.3094 19.9882 6.36566 19.9882Z" fill="#A0616A"/>
<path d="M6.71521 15.6971C6.34945 15.6073 5.95615 15.5923 5.6018 15.7199C5.23687 15.8514 4.93647 16.1262 4.71552 16.445C4.49457 16.7638 4.34618 17.1266 4.21326 17.491C4.13573 17.6897 4.07573 17.8948 4.03393 18.1039C3.98626 18.3827 3.99544 18.6683 4.0609 18.9434C4.12637 19.2186 4.24677 19.4777 4.41489 19.7051C4.35888 19.5575 4.49989 19.3965 4.65455 19.3645C4.80921 19.3325 4.96676 19.3866 5.11929 19.4276C5.38805 19.4997 5.66586 19.5323 5.94401 19.5245C6.05056 19.5215 6.16227 19.5108 6.25088 19.4515C6.5285 19.2659 6.38155 18.7862 6.61257 18.545C6.69501 18.4589 6.81266 18.4186 6.91892 18.3647C7.30145 18.1703 7.55351 17.778 7.67252 17.3658C7.74711 17.1074 7.93222 16.3653 7.77445 16.1251C7.63187 15.908 6.95737 15.7566 6.71521 15.6971Z" fill="#2F2E41"/>
<path d="M11.5725 15.9666C11.4312 15.917 11.2815 15.8958 11.132 15.9041C10.9825 15.9124 10.8361 15.9502 10.7012 16.0152C10.2023 16.2492 9.32009 16.816 9.35362 17.8889C9.40027 19.3816 9.91339 20.3612 9.91339 20.3612L9.8201 23.3933L9.35362 28.8977C9.35362 28.8977 7.06791 30.7636 7.95421 31.23C8.8405 31.6965 10.3332 28.991 10.3332 28.991L11.4994 25.8656L11.9192 22.8335C11.9192 22.8335 12.6189 19.6615 11.9192 18.2621C11.9192 18.2621 12.7275 16.3883 11.5725 15.9666Z" fill="#A0616A"/>
<path d="M17.1428 20.7812C17.1428 20.7812 16.3498 24.1399 19.1486 25.0728C21.9475 26.0057 25.6326 27.5917 25.6326 27.5917L26.0991 28.3847L27.172 26.9387L26.9854 25.8192L25.1661 25.306C25.1661 25.306 21.7609 22.6938 20.2682 22.5072L20.4548 20.7812H17.1428Z" fill="#A0616A"/>
<path d="M24.5966 18.0859L25.5852 19.7085C25.5852 19.7085 28.8505 21.5744 29.6901 22.8338C30.5298 24.0933 32.5356 25.4461 32.5356 25.4461L31.6493 27.5452C31.6493 27.5452 29.1304 24.6064 28.0575 24.3265C26.9846 24.0467 22.2266 20.2216 22.2266 20.2216L24.5966 18.0859Z" fill="#A0616A"/>
<path d="M15.7939 12.3996C15.4298 12.4568 15.0654 12.5141 14.7057 12.5943C13.8698 12.7807 13.0661 13.0896 12.2816 13.4328C11.1836 13.9132 10.1172 14.4627 9.08869 15.0779C8.81132 15.2363 8.54668 15.416 8.29714 15.6154C8.13109 15.7537 7.97476 15.9122 7.88569 16.1091C7.82914 16.2466 7.79254 16.3914 7.77702 16.5393C7.70469 17.058 7.70806 17.5932 7.8486 18.0978C7.98914 18.6023 8.27419 19.0752 8.69377 19.3887C8.8048 19.4743 8.92811 19.5427 9.05954 19.5915C9.23634 19.6454 9.4194 19.6761 9.60411 19.6828C10.1927 19.7296 10.8075 19.7725 11.3522 19.5445C11.6983 19.3997 11.9913 19.1548 12.3098 18.9564C13.6584 18.1164 15.372 18.1522 16.8467 17.5607C16.9901 17.5032 17.1361 17.4362 17.2363 17.3187C17.3122 17.218 17.3694 17.1044 17.4052 16.9834C17.5916 16.4674 17.7781 15.9514 17.9645 15.4353C18.0827 15.1083 18.2009 14.7812 18.3 14.4479C18.4038 14.0994 18.4864 13.745 18.569 13.3908C18.6401 13.0861 18.7133 12.7669 18.686 12.4518C18.6457 11.9871 18.5383 11.9683 18.1115 12.0355C17.339 12.1573 16.5665 12.2786 15.7939 12.3996Z" fill="#6C63FF"/>
<path d="M10.174 15.9666C10.0328 15.917 9.88307 15.8958 9.73357 15.9041C9.58406 15.9124 9.43767 15.9502 9.30278 16.0152C8.8039 16.2492 7.92166 16.816 7.95519 17.8889C8.00183 19.3816 8.51495 20.3612 8.51495 20.3612L8.42166 23.3933L7.95519 28.8977C7.95519 28.8977 5.66947 30.7636 6.55577 31.23C7.44207 31.6965 8.93478 28.991 8.93478 28.991L10.101 25.8656L10.5208 22.8335C10.5208 22.8335 11.2205 19.6615 10.5208 18.2621C10.5208 18.2621 11.3291 16.3883 10.174 15.9666Z" fill="#A0616A"/>
<path d="M18.2684 12.0134C18.2684 12.0134 22.4126 11.6381 22.226 14.2037C22.0394 16.7693 20.64 21.2008 20.64 21.2008L17.0481 21.3874C17.0481 21.3874 16.5817 18.3553 17.2347 17.3291L18.2684 12.0134Z" fill="#2F2E41"/>
<path d="M21.1554 12.8516C21.1554 12.8516 22.1816 13.5046 22.7414 14.8107C23.3011 16.1169 24.9804 18.6825 24.9804 18.6825L22.2283 20.6417L20.1758 18.5425L21.1554 12.8516Z" fill="#2F2E41"/>
<path d="M26.0975 27.4055C26.0975 27.4055 25.2112 27.732 25.8176 28.3851C26.1901 28.7903 26.5042 29.2456 26.7506 29.7378C26.7506 29.7378 26.564 30.9507 27.357 30.904C28.15 30.8574 28.4765 29.2247 28.2899 28.6649C28.1033 28.1052 27.8701 25.4463 27.8701 25.4463C27.8701 25.4463 26.2375 25.5862 26.2841 25.8195C26.3308 26.0527 26.564 27.2189 26.0975 27.4055Z" fill="#2F2E41"/>
<path d="M31.6513 26.472C31.6513 26.472 30.8116 26.8918 31.0448 27.265C31.2781 27.6382 32.0244 28.711 32.0244 28.711C32.0244 28.711 31.7445 30.1105 32.5375 30.2504C33.3306 30.3903 33.797 28.5711 33.6571 28.1979C33.5171 27.8247 33.5171 26.3787 33.5171 26.3787C33.5171 26.3787 33.5638 24.9326 33.0973 24.9326C32.6308 24.9326 31.8378 25.1192 31.8378 25.1192C31.8378 25.1192 32.0244 26.4253 31.6513 26.472Z" fill="#2F2E41"/>
<path d="M5.82933 28.8223H4.47656V31.1832H5.82933V28.8223Z" fill="#6C63FF"/>
</g>
<defs>
<clipPath id="clip0_3246_28762">
<rect width="39.8661" height="32" fill="white"/>
</clipPath>
</defs>
</svg>
