<svg width="47" height="32" viewBox="0 0 47 32" fill="none" xmlns="http://www.w3.org/2000/svg">
<g clip-path="url(#clip0_3246_28120)">
<path d="M27.5269 23.4756C34.0095 23.4756 39.2647 18.2204 39.2647 11.7378C39.2647 5.25519 34.0095 0 27.5269 0C21.0443 0 15.7891 5.25519 15.7891 11.7378C15.7891 18.2204 21.0443 23.4756 27.5269 23.4756Z" fill="#F2F2F2"/>
<path d="M6.62168 28.3799C6.94051 28.492 7.28283 28.5201 7.61566 28.4614C7.94849 28.4028 8.26061 28.2595 8.52195 28.0452C9.18753 27.4865 9.39621 26.5662 9.566 25.714L10.0682 23.1934L9.01677 23.9173C8.26063 24.438 7.48746 24.9753 6.96391 25.7295C6.44037 26.4836 6.21184 27.5131 6.63249 28.3291" fill="#E6E6E6"/>
<path d="M6.70874 31.4314C6.60232 30.6563 6.49289 29.8711 6.56754 29.0877C6.63384 28.3919 6.84612 27.7122 7.2783 27.155C7.5077 26.8598 7.78684 26.6068 8.10316 26.4075C8.18565 26.3555 8.26157 26.4862 8.17944 26.538C7.63211 26.8839 7.20876 27.3947 6.97045 27.9968C6.70724 28.6662 6.66497 29.396 6.71033 30.1072C6.73776 30.5373 6.79589 30.9646 6.85447 31.3913C6.85909 31.4106 6.85621 31.4309 6.84641 31.4481C6.83662 31.4654 6.82063 31.4783 6.80169 31.4842C6.78237 31.4894 6.76178 31.4868 6.74438 31.4769C6.72698 31.467 6.71417 31.4507 6.70874 31.4314Z" fill="#F2F2F2"/>
<path d="M13.7539 30.3633C13.8784 30.5103 14.0386 30.6228 14.2191 30.6899C14.3997 30.757 14.5945 30.7765 14.7847 30.7464C15.273 30.6636 15.6409 30.2713 15.97 29.9012L16.9435 28.8066L16.2179 28.8595C15.696 28.8976 15.161 28.9389 14.6862 29.1587C14.2114 29.3786 13.8023 29.8189 13.7739 30.3414" fill="#E6E6E6"/>
<path d="M12.9155 31.8905C13.0866 31.4787 13.2591 31.0611 13.5216 30.6974C13.7548 30.3744 14.0551 30.1014 14.4282 29.952C14.6261 29.873 14.8363 29.8291 15.0492 29.8223C15.1048 29.8205 15.1044 29.9066 15.0491 29.9084C14.6803 29.9207 14.3249 30.0499 14.0342 30.2772C13.7118 30.5305 13.4807 30.8771 13.298 31.2398C13.1875 31.4592 13.0929 31.686 12.9987 31.9127C12.9954 31.9236 12.9881 31.9327 12.9783 31.9384C12.9686 31.944 12.957 31.9458 12.946 31.9432C12.935 31.9402 12.9256 31.933 12.9199 31.9231C12.9142 31.9132 12.9126 31.9015 12.9155 31.8905Z" fill="#F2F2F2"/>
<path d="M7.73438 30.0596C7.87112 30.2674 8.05907 30.4365 8.28014 30.5506C8.50121 30.6647 8.74794 30.72 8.99655 30.711C9.63549 30.6807 10.1682 30.2348 10.6477 29.8114L12.0659 28.5592L11.1273 28.5142C10.4522 28.4819 9.7598 28.4518 9.11686 28.66C8.47392 28.8681 7.88096 29.3691 7.76339 30.0346" fill="#E6E6E6"/>
<path d="M6.40839 31.8771C6.9206 30.9708 7.51473 29.9635 8.57634 29.6415C8.87152 29.5523 9.18103 29.5204 9.48821 29.5474C9.58503 29.5557 9.56085 29.705 9.46421 29.6966C8.94931 29.6539 8.4354 29.7899 8.009 30.0816C7.59869 30.3609 7.27921 30.7492 7.00881 31.161C6.84319 31.4132 6.69483 31.6761 6.54644 31.9387C6.49902 32.0226 6.36041 31.962 6.40839 31.8771Z" fill="#F2F2F2"/>
<path d="M28.5287 16.4065C29.5471 15.8468 30.8147 15.9591 31.912 16.3418C33.0094 16.7245 34.0038 17.3515 35.0694 17.8153C38.3258 19.2324 42.2506 19.0039 45.3205 17.2184C45.6108 17.8938 45.2993 18.6663 44.9572 19.3169C44.615 19.9676 44.2251 20.6728 44.3659 21.3943C44.5462 22.3175 45.5142 22.8711 45.9064 23.7261C46.2787 24.5377 46.0789 25.4909 45.7933 26.337C45.5076 27.183 45.1369 28.0354 45.1855 28.9271C45.234 29.8188 45.8818 30.7616 46.7748 30.7623C45.4514 30.968 44.102 31.1737 42.7795 30.963C41.4569 30.7523 40.1413 30.0528 39.5272 28.8626C39.2203 28.2678 39.102 27.5838 38.7495 27.0147C38.1491 26.0454 36.9968 25.5896 35.9096 25.2461C34.8224 24.9025 33.659 24.5716 32.8935 23.7266C32.1642 22.9215 31.9331 21.7999 31.5467 20.7846C30.8959 19.0849 29.7656 17.6108 28.293 16.5413" fill="white"/>
<path d="M29.7082 12.1887C29.3507 12.0224 28.9117 11.9679 28.5479 12.1224C28.1841 12.277 27.9361 12.6731 28.0538 13.0237C28.1071 13.1827 28.2286 13.339 28.1812 13.4995C28.1448 13.6231 28.0177 13.7047 27.893 13.7627C27.7682 13.8207 27.6317 13.8695 27.5414 13.9673C27.4512 14.0651 27.4323 14.2335 27.5451 14.3094C27.5822 14.3344 27.6286 14.3463 27.6647 14.3726C27.6954 14.3975 27.7175 14.4314 27.728 14.4696C27.7385 14.5077 27.7369 14.5482 27.7233 14.5853C27.6933 14.6601 27.6437 14.7253 27.5797 14.7743C27.4517 14.8846 27.2826 15.0109 27.3223 15.1676C27.3371 15.2095 27.3617 15.2472 27.3941 15.2775C27.4265 15.3079 27.4658 15.3299 27.5086 15.3418C27.5974 15.3674 27.6895 15.3796 27.7819 15.3779L31.5585 15.4969C31.6832 15.5062 31.8085 15.4992 31.9314 15.4761C31.9911 15.4652 32.0479 15.4421 32.0983 15.4082C32.1487 15.3744 32.1916 15.3305 32.2242 15.2793C32.2965 15.1455 32.2491 14.9806 32.1597 14.8556C32.0704 14.7306 31.944 14.632 31.8396 14.5172C31.7351 14.4024 31.6497 14.2591 31.6681 14.1108C31.6828 13.992 31.7612 13.8894 31.8174 13.7815C31.8736 13.6736 31.9063 13.5387 31.8334 13.4395C31.7308 13.2996 31.4845 13.3122 31.3678 13.1819C31.2798 13.0835 31.2968 12.9419 31.288 12.8151C31.267 12.51 31.0557 12.2218 30.755 12.088C30.6021 12.0224 30.4358 11.994 30.2698 12.0054C30.1038 12.0167 29.9428 12.0673 29.8002 12.153L29.7082 12.1887Z" fill="#2F2E41"/>
<path d="M27.3219 31.3397L26.7305 31.1619L27.1344 28.7959L28.0074 29.0582L27.3219 31.3397Z" fill="#A0616A"/>
<path d="M27.3017 31.9578L25.3945 31.3848L25.4018 31.3607C25.4311 31.2632 25.4793 31.1724 25.5436 31.0936C25.608 31.0147 25.6873 30.9493 25.7769 30.9011C25.8665 30.8529 25.9648 30.8228 26.0661 30.8125C26.1673 30.8023 26.2696 30.8121 26.3671 30.8414L27.532 31.1914L27.3017 31.9578Z" fill="#2F2E41"/>
<path d="M32.9036 31.3598L32.286 31.3598L31.9922 28.9775L32.9037 28.9776L32.9036 31.3598Z" fill="#A0616A"/>
<path d="M33.0617 31.9576L31.0703 31.9575V31.9323C31.0703 31.8305 31.0904 31.7298 31.1293 31.6357C31.1683 31.5417 31.2254 31.4562 31.2973 31.3842C31.3693 31.3123 31.4548 31.2552 31.5488 31.2162C31.6428 31.1773 31.7436 31.1572 31.8454 31.1572L33.0618 31.1573L33.0617 31.9576Z" fill="#2F2E41"/>
<path d="M32.0463 29.5576C31.9924 29.5575 31.9403 29.5383 31.8993 29.5033C31.8583 29.4684 31.8311 29.4199 31.8225 29.3667L30.9055 23.6462C30.8994 23.6083 30.8812 23.5734 30.8535 23.5469C30.8258 23.5203 30.7902 23.5035 30.7521 23.499C30.714 23.4945 30.6754 23.5026 30.6423 23.522C30.6092 23.5414 30.5833 23.571 30.5686 23.6065L28.1927 29.326C28.1706 29.3789 28.1294 29.4214 28.0773 29.4451C28.0252 29.4689 27.9661 29.4721 27.9117 29.4542L27.0536 29.1681C27.0001 29.1505 26.9552 29.1136 26.9276 29.0645C26.8999 29.0155 26.8916 28.958 26.9041 28.9031L28.8512 20.2876C28.8607 20.2461 28.8816 20.2081 28.9117 20.1779C28.9417 20.1477 28.9796 20.1265 29.021 20.1167L31.6322 19.5106C31.6643 19.5033 31.6976 19.503 31.7298 19.5097C31.762 19.5164 31.7924 19.5299 31.8189 19.5494C33.5383 20.7986 33.3931 24.8803 33.0726 29.3123C33.0686 29.3678 33.0444 29.4198 33.0045 29.4586C32.9646 29.4974 32.9119 29.5201 32.8563 29.5225L32.0562 29.5574C32.0529 29.5575 32.0496 29.5576 32.0463 29.5576Z" fill="#2F2E41"/>
<path d="M29.8506 15.4668C30.5339 15.4668 31.0879 14.9128 31.0879 14.2295C31.0879 13.5461 30.5339 12.9922 29.8506 12.9922C29.1672 12.9922 28.6133 13.5461 28.6133 14.2295C28.6133 14.9128 29.1672 15.4668 29.8506 15.4668Z" fill="#A0616A"/>
<path d="M29.9048 20.6427C29.6078 20.6408 29.3149 20.5732 29.0472 20.4445L29.038 20.4402L29.0343 20.4308L27.9245 17.5554L27.9034 17.0559C27.8963 16.8888 27.9243 16.7221 27.9856 16.5665C28.0469 16.4109 28.14 16.2699 28.2591 16.1525C28.3781 16.035 28.5205 15.9439 28.6769 15.8848C28.8334 15.8257 29.0004 15.8001 29.1674 15.8095L30.3456 15.8759C30.6499 15.8932 30.9362 16.0258 31.1462 16.2468C31.3562 16.4678 31.4741 16.7605 31.4759 17.0653C31.5065 17.1241 31.7238 17.5838 31.2979 18.0157C31.282 18.114 31.133 19.1364 31.6952 19.6986L31.711 19.7144L31.6972 19.732C31.6882 19.7434 30.9662 20.6426 29.9048 20.6427Z" fill="#3F3D56"/>
<path d="M31.5571 20.8595C31.6267 20.8342 31.69 20.794 31.7424 20.7417C31.7948 20.6894 31.8351 20.6262 31.8604 20.5566C31.8858 20.487 31.8956 20.4127 31.8891 20.3389C31.8826 20.2652 31.86 20.1937 31.823 20.1296L32.9997 18.7672L32.072 18.6465L31.0968 19.9587C30.9932 20.0281 30.9187 20.1332 30.8874 20.2538C30.8561 20.3745 30.8701 20.5025 30.9269 20.6135C30.9836 20.7246 31.0791 20.8109 31.1953 20.8563C31.3114 20.9016 31.4402 20.9027 31.5571 20.8595Z" fill="#A0616A"/>
<path d="M32.2917 19.8078C32.2475 19.8078 32.2042 19.7948 32.1673 19.7705L31.5853 19.3888C31.5364 19.3569 31.5017 19.3072 31.4886 19.2502C31.4754 19.1933 31.4849 19.1335 31.5148 19.0833L31.9362 18.3754C31.959 18.3371 31.9734 18.2944 31.9785 18.2502C31.9837 18.2059 31.9794 18.161 31.9659 18.1186C31.9525 18.0761 31.9302 18.0369 31.9006 18.0036C31.8709 17.9703 31.8346 17.9437 31.7939 17.9255L30.5835 17.3828C30.4346 17.3152 30.3131 17.1991 30.2389 17.0534C30.1646 16.9078 30.142 16.7412 30.1748 16.581C30.1974 16.473 30.2447 16.3717 30.3129 16.2849C30.381 16.1981 30.4683 16.1283 30.5679 16.0807C30.6675 16.0332 30.7767 16.0093 30.8871 16.0108C30.9974 16.0124 31.1059 16.0394 31.2041 16.0897L33.0405 17.0307C33.1644 17.0941 33.2731 17.1836 33.3591 17.293C33.4452 17.4024 33.5066 17.5291 33.5392 17.6645C33.5717 17.7998 33.5747 17.9406 33.5478 18.0772C33.5208 18.2137 33.4647 18.3429 33.3833 18.4558L32.4755 19.7137C32.4545 19.7428 32.4269 19.7666 32.395 19.7829C32.363 19.7993 32.3276 19.8078 32.2917 19.8078Z" fill="#3F3D56"/>
<path d="M28.5859 14.0543C28.9767 14.0229 29.3011 13.6326 29.2605 13.2427C29.2559 13.4034 29.3105 13.5602 29.414 13.6832C29.5175 13.8063 29.6626 13.887 29.8217 13.91C30.0009 13.9297 30.1974 13.8755 30.3535 13.9659C30.5262 14.0661 30.5815 14.3093 30.7615 14.3958C30.9355 14.4794 31.1564 14.3654 31.2423 14.1926C31.3282 14.0198 31.3072 13.8122 31.2502 13.6279C31.169 13.3649 31.0211 13.1275 30.821 12.9386C30.6208 12.7498 30.3752 12.616 30.108 12.5502C29.8407 12.4844 29.5611 12.4888 29.2961 12.5631C29.0311 12.6375 28.7899 12.7791 28.5959 12.9742C28.4316 13.1395 28.3011 13.3501 28.28 13.5822C28.2588 13.8143 28.3665 14.0661 28.5749 14.1703L28.5859 14.0543Z" fill="#2F2E41"/>
<path d="M25.707 10.627C25.7722 10.6622 25.8289 10.7112 25.8731 10.7706C25.9173 10.83 25.9479 10.8984 25.9629 10.9709C25.9778 11.0435 25.9766 11.1184 25.9594 11.1904C25.9422 11.2625 25.9095 11.3299 25.8634 11.3879L26.8286 12.9075L25.8932 12.8915L25.1201 11.4509C25.0278 11.3671 24.9694 11.2523 24.9561 11.1283C24.9427 11.0044 24.9753 10.8798 25.0476 10.7783C25.12 10.6767 25.2271 10.6052 25.3486 10.5773C25.4701 10.5495 25.5977 10.5671 25.707 10.627Z" fill="#A0616A"/>
<path d="M26.4842 11.7088L27.7272 14.6459L29.0304 16.8556C29.0854 16.9489 29.1185 17.0535 29.1272 17.1614C29.1358 17.2694 29.1199 17.3779 29.0805 17.4788C29.0411 17.5796 28.9793 17.6702 28.8997 17.7437C28.8202 17.8172 28.725 17.8717 28.6213 17.903C28.4569 17.9518 28.2805 17.9402 28.1238 17.8702C27.9672 17.8003 27.8408 17.6767 27.7674 17.5217L25.2557 12.1549C25.2421 12.1258 25.2348 12.094 25.2344 12.0618C25.234 12.0296 25.2404 11.9977 25.2533 11.9682C25.2661 11.9387 25.2851 11.9123 25.309 11.8907C25.3329 11.8691 25.3611 11.8528 25.3917 11.843L26.2061 11.5814C26.2216 11.5764 26.2375 11.5731 26.2536 11.5715C26.3017 11.5666 26.3501 11.5773 26.3916 11.6021C26.4331 11.6268 26.4656 11.6642 26.4842 11.7088Z" fill="#3F3D56"/>
<path d="M38.1353 32.0002H0.0503768C0.0370161 32.0002 0.0242025 31.9949 0.014755 31.9854C0.00530751 31.976 0 31.9632 0 31.9498C0 31.9364 0.00530751 31.9236 0.014755 31.9142C0.0242025 31.9047 0.0370161 31.8994 0.0503768 31.8994H38.1353C38.1486 31.8994 38.1614 31.9047 38.1709 31.9142C38.1803 31.9236 38.1856 31.9364 38.1856 31.9498C38.1856 31.9632 38.1803 31.976 38.1709 31.9854C38.1614 31.9949 38.1486 32.0002 38.1353 32.0002Z" fill="#CCCCCC"/>
<path d="M30.1164 5.45174V9.58264C30.1164 9.59601 30.1111 9.60882 30.1016 9.61827C30.0922 9.62771 30.0794 9.63302 30.066 9.63302C30.0526 9.63302 30.0398 9.62771 30.0304 9.61827C30.0209 9.60882 30.0156 9.59601 30.0156 9.58264V5.45174C30.0156 5.43838 30.0209 5.42557 30.0304 5.41612C30.0398 5.40668 30.0526 5.40137 30.066 5.40137C30.0794 5.40137 30.0922 5.40668 30.1016 5.41612C30.1111 5.42557 30.1164 5.43838 30.1164 5.45174Z" fill="#CCCCCC"/>
<path d="M34.4913 8.9562L33.0664 10.3811C33.0569 10.3905 33.0441 10.3958 33.0308 10.3957C33.0174 10.3957 33.0047 10.3904 32.9952 10.381C32.9858 10.3716 32.9805 10.3588 32.9805 10.3454C32.9805 10.3321 32.9857 10.3193 32.9951 10.3098L34.42 8.88495C34.4247 8.88026 34.4302 8.87653 34.4364 8.87398C34.4425 8.87144 34.449 8.87012 34.4557 8.87012C34.4623 8.87011 34.4688 8.87141 34.475 8.87394C34.4811 8.87647 34.4867 8.88019 34.4913 8.88487C34.496 8.88956 34.4997 8.89512 34.5023 8.90124C34.5048 8.90736 34.5061 8.91393 34.5061 8.92055C34.5061 8.92718 34.5048 8.93373 34.5022 8.93985C34.4997 8.94597 34.496 8.95152 34.4913 8.9562Z" fill="#CCCCCC"/>
<path d="M25.6437 8.9562L27.0686 10.3811C27.0781 10.3905 27.0909 10.3958 27.1042 10.3958C27.1176 10.3958 27.1304 10.3905 27.1399 10.3811C27.1493 10.3716 27.1546 10.3588 27.1546 10.3454C27.1546 10.3321 27.1493 10.3193 27.1399 10.3098L25.715 8.88495C25.7103 8.88026 25.7048 8.87653 25.6986 8.87398C25.6925 8.87144 25.686 8.87012 25.6793 8.87012C25.6727 8.87011 25.6662 8.87141 25.66 8.87394C25.6539 8.87647 25.6483 8.88019 25.6437 8.88487C25.639 8.88956 25.6353 8.89512 25.6327 8.90124C25.6302 8.90736 25.6289 8.91393 25.6289 8.92055C25.6289 8.92718 25.6302 8.93373 25.6328 8.93985C25.6353 8.94597 25.639 8.95152 25.6437 8.9562Z" fill="#CCCCCC"/>
</g>
<defs>
<clipPath id="clip0_3246_28120">
<rect width="46.7762" height="32" fill="white"/>
</clipPath>
</defs>
</svg>
