<svg width="29" height="32" viewBox="0 0 29 32" fill="none" xmlns="http://www.w3.org/2000/svg">
<g clip-path="url(#clip0_3246_28812)">
<path d="M20.2305 1.03045C20.5089 1.02343 20.7627 1.22127 20.8912 1.46843C21.0197 1.71559 21.043 2.00376 21.0366 2.28225C21.0301 2.56073 20.9964 2.83966 21.021 3.11713C21.0732 3.70743 21.4036 4.26714 21.8952 4.59806C21.7099 4.61243 21.5281 4.5266 21.3881 4.40436C21.2481 4.28213 21.1433 4.12552 21.0402 3.97089C20.953 3.84003 20.8653 3.7083 20.8027 3.56404C20.7109 3.35269 20.6761 3.12177 20.6431 2.89375C20.5619 2.33233 20.4871 1.76999 20.4186 1.20689" fill="#2F2E41"/>
<path d="M15.5119 31.3094L16.4516 31.3093L16.8987 27.6846L15.5117 27.6847L15.5119 31.3094Z" fill="#FFB6B6"/>
<path d="M18.73 31.2878C18.7593 31.3371 18.7747 31.4961 18.7747 31.5534C18.7747 31.7296 18.6319 31.8724 18.4558 31.8724H15.5455C15.4253 31.8724 15.3279 31.775 15.3279 31.6548V31.5336C15.3279 31.5336 15.184 31.1695 15.4804 30.7206C15.4804 30.7206 15.8488 31.0721 16.3992 30.5216L16.5615 30.2275L17.7366 31.0869L18.3879 31.1671C18.5304 31.1846 18.6567 31.1643 18.73 31.2878Z" fill="#2F2E41"/>
<path d="M19.5664 30.6252L20.4799 30.8456L21.7649 27.4269L20.4167 27.1016L19.5664 30.6252Z" fill="#FFB6B6"/>
<path d="M22.7001 31.3597C22.717 31.4145 22.6947 31.5727 22.6813 31.6284C22.6399 31.7997 22.4676 31.905 22.2964 31.8637L19.4674 31.1809C19.3506 31.1527 19.2787 31.0351 19.3069 30.9183L19.3353 30.8005C19.3353 30.8005 19.2808 30.4127 19.6743 30.046C19.6743 30.046 19.9499 30.474 20.6142 30.0681L20.841 29.8203L21.7816 30.9314L22.3959 31.1621C22.5303 31.2126 22.6579 31.2225 22.7001 31.3597Z" fill="#2F2E41"/>
<path d="M25.0156 13.2165C24.8405 13.0745 24.712 12.9047 24.6402 12.7374L22.8867 11.4899L23.5047 10.6729L25.2169 12.0263C25.3955 12.062 25.5882 12.1527 25.7633 12.2947C26.1633 12.6192 26.3202 13.0885 26.1137 13.3431C25.9073 13.5976 25.4156 13.541 25.0156 13.2165Z" fill="#FFB6B6"/>
<path d="M24.6924 11.3789L24.6104 11.5465L24.1857 12.4135L24.06 12.6694L22.8243 11.5598L21.8307 10.6679L19.4951 8.57113C19.3331 8.4257 19.2539 8.22826 19.2539 8.03175C19.2539 7.79657 19.3671 7.56324 19.5857 7.42149C19.721 7.33359 19.8817 7.29355 20.0423 7.30736C20.4215 7.34003 21.1855 7.40998 21.9959 7.50663L22.2748 8.31386L22.1381 9.03917L21.7663 8.92918L22.105 9.21314L24.6924 11.3789Z" fill="white"/>
<path d="M17.3047 10.5236C17.4848 10.5247 17.8624 12.9639 17.5808 13.3309C17.3498 13.6321 21.5833 13.3309 21.5833 13.3309C21.1853 13.25 21.3644 10.6441 21.792 10.5236L19.2376 9.74121L17.3047 10.5236Z" fill="#FFB6B6"/>
<path d="M21.3955 13.002H17.6318C17.6318 13.002 16.0623 15.4941 16.0623 20.3264L15.418 28.1042L17.0287 28.1962L19.6241 17.6529L21.0504 22.8291L20.0662 28.3512H21.6259L23.4723 22.1244L23.1037 18.8537C23.1037 18.8537 22.7192 14.3592 21.3955 13.002Z" fill="#2F2E41"/>
<path d="M22.2771 8.31397L22.1404 9.03929L22.1072 9.21325L21.833 10.668L21.4609 11.2153C21.4609 11.2153 18.8123 10.3942 17.5697 11.4067L16.5703 8.17591L17.6288 5.87479L18.4572 5.41457L18.5953 4.8623H20.3501L20.6203 5.41457L21.4026 5.78275L21.9982 7.50674L22.2771 8.31397Z" fill="white"/>
<path d="M21.7393 5.68729C21.5959 5.86124 21.4251 5.98838 21.2571 6.05889L19.9956 7.80232L19.1836 7.17779L20.5507 5.47649C20.5879 5.29818 20.6801 5.10626 20.8235 4.9323C21.1511 4.5349 21.6217 4.38176 21.8746 4.59024C22.1275 4.79873 22.0669 5.28989 21.7393 5.68729Z" fill="#FFB6B6"/>
<path d="M18.3402 5.90456C18.3402 5.90456 17.0042 5.17008 16.5705 5.90456C16.2004 6.53122 15.8787 9.69758 15.7923 10.6137C15.7771 10.7745 15.8159 10.9352 15.9026 11.0715C16.1594 11.475 16.7294 11.5244 17.0518 11.171L21.1862 6.63903L19.9009 5.99637L17.6975 8.2916L18.3402 5.90456Z" fill="white"/>
<path d="M19.2579 4.51197C20.1857 4.51197 20.9377 3.75989 20.9377 2.83216C20.9377 1.90442 20.1857 1.15234 19.2579 1.15234C18.3302 1.15234 17.5781 1.90442 17.5781 2.83216C17.5781 3.75989 18.3302 4.51197 19.2579 4.51197Z" fill="#FFB6B6"/>
<path d="M20.5508 1.92363C20.2889 2.10046 20.1213 2.3968 20.0787 2.83839C19.9142 2.70775 19.8898 2.4701 19.9524 2.16603C19.838 2.47727 18.9094 4.06127 18.8482 4.56203C18.8093 4.88099 18.9369 5.2025 19.1327 5.45702C19.3158 5.69433 19.5544 5.8806 19.7987 6.05539C19.3394 5.88762 18.9566 5.51827 18.7748 5.06407C18.512 4.40829 18.6683 3.67852 18.875 2.99149C18.8265 3.08271 18.757 3.24921 18.6766 3.31428C18.5733 3.39784 18.4508 3.37169 18.3678 3.47567C18.2671 3.60198 18.2479 3.77868 18.2792 3.93751C18.3111 4.09636 18.3876 4.2418 18.4629 4.38469C17.3978 4.18444 17.0812 2.96722 17.5679 2.13796C17.2566 2.69677 17.189 3.82205 17.5851 4.32346C17.8071 4.60477 18.1286 4.82422 18.2396 5.16486C18.3175 5.40408 18.2747 5.67073 18.1675 5.89846C18.0604 6.12619 17.8926 6.32012 17.7153 6.49874C17.6425 6.5721 17.5679 6.64291 17.4901 6.7118C17.4041 6.62421 17.2581 6.66565 17.2264 6.78421C17.2087 6.85009 17.1809 6.91799 17.1456 6.98738C16.8304 7.05892 16.4049 6.95962 16.3399 7.40266C16.3226 7.52082 16.109 7.46837 15.9903 7.4875C16.0223 7.39855 15.9191 7.31982 15.8436 7.37672C15.745 7.45108 15.64 7.49465 15.5298 7.51302C15.2491 7.49771 14.9742 7.42626 14.7305 7.2872C15.5074 6.80302 16.1891 6.94274 16.4928 6.079C16.5403 5.94389 16.5556 5.66206 16.5548 5.34504C16.5529 4.62625 16.3838 3.92068 16.0927 3.26349C16.0572 3.18331 16.0301 3.10584 16.0184 3.03806C15.9336 2.54878 16.0656 1.87642 16.28 1.56002C16.4943 1.24425 16.8649 1.04012 17.247 1.02991C17.4378 1.02417 17.5513 1.10773 17.7197 1.01779C17.8996 0.921464 17.9417 1.04777 18.0636 0.884464C18.2811 0.592937 18.6517 0.44239 19.0153 0.429632C19.3789 0.416873 19.5824 0.315417 19.9129 0.46788C20.1215 0.564205 20.3617 1.10381 20.5916 1.1071C21.0675 1.11391 21.1588 1.51312 20.5508 1.92363Z" fill="#2F2E41"/>
<path d="M19.8537 6.0933C19.8359 6.08054 19.8186 6.06842 19.8008 6.05566C19.8148 6.06141 19.8288 6.06651 19.8429 6.07097L19.8537 6.0933Z" fill="#2F2E41"/>
<path d="M28.0443 12.9221C27.7792 12.6092 27.3919 12.4297 26.9817 12.4297H25.3695C24.9459 12.4297 24.5505 12.6189 24.2849 12.9489C24.0192 13.2789 23.9186 13.7055 24.009 14.1194L24.3608 15.7304C24.2745 15.9517 24.2266 16.1922 24.2266 16.4441C24.2266 17.5293 25.1063 18.409 26.1914 18.409C27.2766 18.409 28.1563 17.5293 28.1563 16.4441C28.1563 16.2303 28.1217 16.0247 28.0585 15.832L28.3554 14.0512C28.4228 13.6466 28.3094 13.2351 28.0443 12.9221ZM26.1914 14.4792C25.6197 14.4792 25.1053 14.7236 24.7462 15.1133L24.5054 14.011C24.448 13.7481 24.5119 13.4772 24.6807 13.2676C24.8494 13.058 25.1005 12.9378 25.3695 12.9378H26.9817C27.2422 12.9378 27.4882 13.0518 27.6566 13.2506C27.8249 13.4494 27.8969 13.7107 27.8541 13.9677L27.659 15.1382C27.2992 14.734 26.7752 14.4792 26.1914 14.4792Z" fill="#3F3D56"/>
<path d="M9.90844 27.6225C9.70056 27.3771 9.39687 27.2363 9.07524 27.2363H7.81104C7.47885 27.2363 7.16883 27.3847 6.96049 27.6435C6.75215 27.9022 6.67331 28.2368 6.74419 28.5613L7.02007 29.8246C6.95235 29.9981 6.91478 30.1867 6.91478 30.3842C6.91478 31.2352 7.6046 31.925 8.45553 31.925C9.30647 31.925 9.99628 31.2352 9.99628 30.3842C9.99628 30.2166 9.96914 30.0554 9.91963 29.9043L10.1524 28.5079C10.2052 28.1906 10.1163 27.8679 9.90844 27.6225ZM8.45553 28.8435C8.00724 28.8435 7.60381 29.0351 7.32226 29.3407L7.13347 28.4763C7.08847 28.2702 7.13855 28.0577 7.27086 27.8934C7.40318 27.729 7.60007 27.6348 7.81104 27.6348H9.07524C9.2795 27.6348 9.47238 27.7242 9.60442 27.88C9.73645 28.0359 9.79291 28.2409 9.75933 28.4423L9.60636 29.3602C9.32415 29.0433 8.91326 28.8435 8.45553 28.8435Z" fill="#3F3D56"/>
<path d="M17.8875 1.20017L17.7656 1.16242C17.7838 0.734916 17.8994 0.345721 18.1255 0L18.2473 0.0377517L17.8875 1.20017Z" fill="white"/>
<path d="M17.8868 1.0503L17.8085 1.15101L16.8477 0.404428L16.9259 0.303711C17.3501 0.453472 17.6597 0.71256 17.8868 1.0503Z" fill="white"/>
<path d="M23.4474 30.894C23.5792 30.9022 23.652 30.7385 23.5523 30.6431L23.5424 30.6036C23.5437 30.6005 23.545 30.5973 23.5463 30.5942C23.6796 30.2764 24.1313 30.2786 24.2634 30.5968C24.3807 30.8793 24.5301 31.1623 24.5668 31.461C24.5833 31.5928 24.5759 31.7271 24.5466 31.8565C24.8214 31.2562 24.9661 30.6007 24.9661 29.9414C24.9661 29.7758 24.957 29.6102 24.9385 29.4449C24.9232 29.3098 24.9022 29.1755 24.875 29.0424C24.7279 28.323 24.4094 27.6378 23.95 27.0655C23.7292 26.9448 23.545 26.7561 23.4338 26.5299C23.3938 26.4483 23.3625 26.3606 23.3477 26.2712C23.3728 26.2745 23.4424 25.8917 23.4235 25.8682C23.4585 25.8151 23.5212 25.7886 23.5594 25.7368C23.7497 25.4788 24.0118 25.5239 24.1486 25.8744C24.4409 26.0219 24.4438 26.2666 24.2644 26.5019C24.1503 26.6516 24.1346 26.8542 24.0345 27.0144C24.0448 27.0276 24.0555 27.0404 24.0658 27.0536C24.2547 27.2959 24.4181 27.5563 24.5558 27.8298C24.5169 27.5258 24.5743 27.1595 24.6723 26.9234C24.7838 26.6544 24.9928 26.4278 25.1769 26.1952C25.398 25.9158 25.8514 26.0378 25.8904 26.3919C25.8907 26.3953 25.8911 26.3987 25.8915 26.4022C25.8641 26.4176 25.8373 26.434 25.8112 26.4513C25.6619 26.55 25.7135 26.7813 25.8903 26.8086L25.8943 26.8093C25.8845 26.9077 25.8676 27.0054 25.8428 27.1014C26.079 28.0146 25.5692 28.3472 24.8412 28.3622C24.8252 28.3704 24.8095 28.3786 24.7934 28.3865C24.8672 28.5941 24.9261 28.8071 24.9698 29.023C25.0089 29.2138 25.0361 29.4066 25.0514 29.6003C25.0703 29.8446 25.0687 30.0902 25.0481 30.3341L25.0493 30.3254C25.1016 30.0568 25.2475 29.8059 25.4593 29.632C25.7747 29.3728 26.2205 29.2774 26.5608 29.0691C26.7247 28.9688 26.9346 29.0984 26.906 29.2883L26.9046 29.2974C26.8539 29.318 26.8045 29.3419 26.7567 29.3687C26.7294 29.3841 26.7026 29.4005 26.6764 29.4178C26.5272 29.5165 26.5788 29.7479 26.7556 29.7752L26.7596 29.7758C26.7625 29.7762 26.7649 29.7766 26.7678 29.777C26.6809 29.9834 26.5598 30.175 26.4081 30.3403C26.2605 31.1375 25.6263 31.2131 24.9479 30.981H24.9475C24.8734 31.304 24.765 31.6196 24.6257 31.9204H23.4762C23.4721 31.9076 23.4684 31.8944 23.4647 31.8816C23.571 31.8882 23.6781 31.882 23.7828 31.8627C23.6975 31.758 23.6122 31.6525 23.5269 31.5479C23.5248 31.5458 23.5232 31.5438 23.5215 31.5417C23.4783 31.4881 23.4346 31.435 23.3913 31.3814L23.3913 31.3814C23.3886 31.2169 23.4083 31.053 23.4474 30.894Z" fill="#F2F2F2"/>
<path d="M0 31.9245C0 31.9666 0.0338113 32.0005 0.0759155 32.0005H26.823C26.8651 32.0005 26.8989 31.9666 26.8989 31.9245C26.8989 31.8824 26.8651 31.8486 26.823 31.8486H0.0759155C0.0338113 31.8486 0 31.8824 0 31.9245Z" fill="#CCCCCC"/>
</g>
<defs>
<clipPath id="clip0_3246_28812">
<rect width="28.3745" height="32" fill="white"/>
</clipPath>
</defs>
</svg>
