<svg width="46" height="32" viewBox="0 0 46 32" fill="none" xmlns="http://www.w3.org/2000/svg">
<g clip-path="url(#clip0_3246_28581)">
<path d="M5.05749 25.5998C4.08378 25.5998 3.14207 25.2521 2.40205 24.6192C2.15518 24.4079 1.89215 24.0405 1.62027 23.5274C1.44677 23.1969 1.34959 22.8316 1.33589 22.4586C1.32218 22.0855 1.3923 21.7141 1.54108 21.3718C1.39767 21.5176 1.23904 21.6477 1.06792 21.7599L0.981418 21.8174L0.97642 21.7137C0.97314 21.6462 0.97148 21.579 0.97148 21.5138C0.97148 21.13 1.26183 20.7404 1.12792 20.3856C0.563545 18.8901 -1.22651 17.4038 1.36783 15.0893C1.60782 14.8752 1.28723 14.4471 1.28723 14.1232C1.28723 10.9485 4.73667 6.18616 7.04584 8.36567C8.39373 9.63787 11.202 10.5416 12.5131 12.3112L12.5305 12.3636L12.4793 12.3843C12.2174 12.4944 11.9414 12.5678 11.6594 12.6024C11.9601 12.6637 12.2669 12.6894 12.5737 12.679L12.6212 12.6773L12.6328 12.7236C12.7469 13.1814 12.8045 13.6514 12.8045 14.1232L12.8043 14.1742C12.8032 14.5325 12.8777 14.8871 13.0228 15.2147C13.168 15.5423 13.3805 15.8357 13.6467 16.0757C14.0671 16.4589 14.403 16.9256 14.633 17.4459C14.863 17.9662 14.9822 18.5287 14.9828 19.0976C14.9828 19.7706 14.5253 20.6541 14.1416 21.2767C14.0443 21.4353 13.9124 21.5698 13.7558 21.6701C13.5991 21.7705 13.4218 21.8341 13.237 21.8561C13.062 21.8781 12.8844 21.8615 12.7165 21.8073C12.5487 21.7531 12.3948 21.6626 12.2659 21.5423C12.4475 21.9075 12.6842 22.2427 12.9676 22.5359L13.02 22.5899L12.955 22.6278C12.3303 22.992 11.62 23.1839 10.8968 23.1836L10.8545 23.1835C9.75651 23.1835 8.71436 23.6088 7.9952 24.3505C7.61337 24.7438 7.15683 25.057 6.65237 25.2715C6.1479 25.486 5.60567 25.5976 5.05749 25.5998Z" fill="#E6E6E6"/>
<path d="M3.61585 31.9998C3.59817 31.9998 3.58109 31.9934 3.56774 31.9818C3.5544 31.9702 3.54568 31.9542 3.54319 31.9367C3.54007 31.9147 3.23428 29.7093 3.50891 26.7783C3.76254 24.0714 4.57703 20.1725 7.01693 16.9704C7.02277 16.9627 7.03007 16.9563 7.03842 16.9514C7.04676 16.9465 7.05598 16.9434 7.06555 16.9421C7.07512 16.9408 7.08486 16.9414 7.09419 16.9438C7.10353 16.9463 7.11229 16.9506 7.11998 16.9564C7.12766 16.9623 7.13411 16.9696 7.13896 16.978C7.14382 16.9863 7.14698 16.9955 7.14827 17.0051C7.14955 17.0147 7.14894 17.0244 7.14646 17.0337C7.14398 17.0431 7.13969 17.0518 7.13383 17.0595C4.715 20.2339 3.90707 24.1042 3.65524 26.792C3.3822 29.706 3.68559 31.8942 3.68869 31.9159C3.69016 31.9264 3.68938 31.937 3.6864 31.9471C3.68341 31.9572 3.67829 31.9665 3.67139 31.9745C3.66448 31.9824 3.65595 31.9888 3.64637 31.9932C3.63679 31.9975 3.62638 31.9998 3.61585 31.9998Z" fill="#3F3D56"/>
<path d="M5.84307 21.4061C5.82755 21.4061 5.81242 21.4012 5.79986 21.3921C5.7873 21.383 5.77794 21.3701 5.77314 21.3554C5.76834 21.3406 5.76833 21.3247 5.77312 21.31C5.77791 21.2952 5.78726 21.2823 5.79981 21.2732C6.49504 20.8026 7.24608 20.4203 8.03565 20.135C9.26921 19.6834 11.145 19.274 13.0761 19.8886C13.0853 19.8915 13.0938 19.8962 13.1012 19.9025C13.1086 19.9087 13.1147 19.9163 13.1191 19.9249C13.1235 19.9334 13.1262 19.9428 13.127 19.9524C13.1279 19.962 13.1268 19.9717 13.1238 19.9809C13.1209 19.9901 13.1162 19.9986 13.11 20.006C13.1038 20.0134 13.0962 20.0195 13.0876 20.0239C13.079 20.0283 13.0697 20.031 13.06 20.0318C13.0504 20.0327 13.0407 20.0316 13.0315 20.0286C11.14 19.4267 9.29821 19.8293 8.08618 20.2731C7.3093 20.5534 6.57031 20.9293 5.88621 21.3921C5.87368 21.4012 5.85857 21.4061 5.84307 21.4061Z" fill="#3F3D56"/>
<path d="M35.4012 25.5994C34.4275 25.5994 33.4858 25.2517 32.7458 24.6189C32.4989 24.4075 32.2359 24.0402 31.964 23.527C31.7905 23.1965 31.6933 22.8313 31.6796 22.4582C31.6659 22.0851 31.736 21.7138 31.8848 21.3714C31.7414 21.5173 31.5828 21.6474 31.4117 21.7595L31.3252 21.817L31.3202 21.7133C31.3169 21.6458 31.3152 21.5786 31.3152 21.5135C31.3152 21.1296 31.6056 20.7401 31.4717 20.3852C30.9073 18.8897 29.1172 17.4035 31.7116 15.0889C31.9516 14.8748 31.631 14.4467 31.631 14.1228C31.631 10.9481 36.1179 5.45577 37.3896 8.3653C38.9579 11.9535 41.6599 11.5697 42.8569 12.3108L42.8742 12.3633L42.8231 12.384C42.5611 12.4941 42.2852 12.5675 42.0031 12.602C42.3038 12.6634 42.6107 12.6891 42.9174 12.6786L42.965 12.677L42.9765 12.7232C43.0906 13.181 43.1483 13.651 43.1482 14.1228L43.148 14.1738C43.1469 14.5321 43.2214 14.8867 43.3666 15.2143C43.5117 15.542 43.7243 15.8353 43.9904 16.0753C44.4108 16.4586 44.7467 16.9252 44.9768 17.4455C45.2068 17.9658 45.3259 18.5283 45.3265 19.0972C45.3265 19.7702 44.8691 20.6537 44.4853 21.2763C44.3881 21.4349 44.2562 21.5694 44.0995 21.6698C43.9429 21.7701 43.7655 21.8337 43.5808 21.8557C43.4058 21.8778 43.2281 21.8611 43.0603 21.8069C42.8925 21.7527 42.7386 21.6622 42.6096 21.542C42.7912 21.9072 43.0279 22.2423 43.3114 22.5356L43.3637 22.5895L43.2987 22.6274C42.674 22.9917 41.9637 23.1835 41.2406 23.1832L41.1982 23.1831C40.1003 23.1831 39.0581 23.6085 38.339 24.3501C37.9571 24.7435 37.5006 25.0566 36.9961 25.2711C36.4917 25.4856 35.9494 25.5973 35.4012 25.5994Z" fill="#E6E6E6"/>
<path d="M33.9596 31.9998C33.9419 31.9998 33.9248 31.9934 33.9115 31.9818C33.8981 31.9702 33.8894 31.9542 33.8869 31.9367C33.8838 31.9147 33.578 29.7093 33.8527 26.7783C34.1063 24.0714 34.9208 20.1725 37.3607 16.9704C37.3665 16.9627 37.3738 16.9563 37.3822 16.9514C37.3905 16.9465 37.3997 16.9434 37.4093 16.9421C37.4189 16.9408 37.4286 16.9414 37.4379 16.9438C37.4473 16.9463 37.456 16.9506 37.4637 16.9564C37.4714 16.9623 37.4779 16.9696 37.4827 16.978C37.4876 16.9863 37.4907 16.9955 37.492 17.0051C37.4933 17.0147 37.4927 17.0244 37.4902 17.0337C37.4877 17.0431 37.4834 17.0518 37.4776 17.0595C35.0587 20.2339 34.2508 24.1042 33.999 26.792C33.726 29.706 34.0293 31.8942 34.0324 31.9159C34.0339 31.9264 34.0331 31.937 34.0301 31.9471C34.0272 31.9572 34.022 31.9665 34.0151 31.9745C34.0082 31.9824 33.9997 31.9888 33.9901 31.9932C33.9805 31.9975 33.9701 31.9998 33.9596 31.9998Z" fill="#3F3D56"/>
<path d="M35.9876 21.5575C35.9721 21.5575 35.957 21.5526 35.9444 21.5435C35.9318 21.5344 35.9225 21.5215 35.9177 21.5068C35.9129 21.492 35.9129 21.4761 35.9177 21.4613C35.9224 21.4466 35.9318 21.4337 35.9443 21.4246C36.6396 20.954 37.3906 20.5717 38.1802 20.2864C39.4137 19.8348 41.2895 19.4254 43.2206 20.04C43.2298 20.0429 43.2384 20.0476 43.2457 20.0538C43.2531 20.0601 43.2592 20.0677 43.2636 20.0762C43.2681 20.0848 43.2708 20.0942 43.2716 20.1038C43.2724 20.1134 43.2713 20.1231 43.2684 20.1323C43.2655 20.1415 43.2607 20.15 43.2545 20.1574C43.2483 20.1647 43.2407 20.1708 43.2321 20.1753C43.2235 20.1797 43.2142 20.1824 43.2046 20.1832C43.195 20.184 43.1853 20.1829 43.1761 20.18C41.2845 19.578 39.4427 19.9807 38.2307 20.4244C37.4538 20.7048 36.7148 21.0807 36.0307 21.5435C36.0182 21.5526 36.0031 21.5575 35.9876 21.5575Z" fill="#3F3D56"/>
<path d="M32.6252 13.1814C32.6241 13.1659 32.6279 13.1504 32.6361 13.1373C32.6442 13.1241 32.6564 13.1138 32.6708 13.108C32.6851 13.1021 32.701 13.101 32.7161 13.1047C32.7311 13.1084 32.7447 13.1168 32.7547 13.1287C33.2741 13.7882 33.7095 14.5097 34.0509 15.2767C34.5902 16.4746 35.1336 18.316 34.6597 20.2864C34.6574 20.2957 34.6533 20.3046 34.6477 20.3124C34.642 20.3202 34.6348 20.3268 34.6266 20.3319C34.6184 20.3369 34.6092 20.3403 34.5997 20.3418C34.5902 20.3433 34.5804 20.3429 34.571 20.3407C34.5616 20.3384 34.5528 20.3343 34.545 20.3286C34.5372 20.323 34.5306 20.3158 34.5255 20.3076C34.5205 20.2993 34.5171 20.2902 34.5156 20.2806C34.5141 20.2711 34.5145 20.2614 34.5168 20.252C34.981 18.322 34.4467 16.514 33.9169 15.3371C33.5813 14.5824 33.1531 13.8724 32.6423 13.2234C32.6323 13.2115 32.6263 13.1968 32.6252 13.1814Z" fill="#3F3D56"/>
<path d="M2.42988 12.7273C2.42875 12.7118 2.43255 12.6963 2.44074 12.6832C2.44893 12.67 2.46108 12.6597 2.47546 12.6539C2.48983 12.648 2.50569 12.6469 2.52076 12.6506C2.53583 12.6543 2.54934 12.6627 2.55935 12.6745C3.07878 13.3341 3.5142 14.0556 3.85557 14.8226C4.39484 16.0204 4.93828 17.8619 4.46434 19.8322C4.46209 19.8416 4.45802 19.8505 4.45234 19.8583C4.44667 19.8661 4.43951 19.8727 4.43128 19.8778C4.42305 19.8828 4.41391 19.8862 4.40437 19.8877C4.39484 19.8892 4.3851 19.8888 4.37571 19.8866C4.36633 19.8843 4.35748 19.8802 4.34967 19.8745C4.34186 19.8689 4.33525 19.8617 4.33022 19.8535C4.32518 19.8452 4.32181 19.8361 4.32031 19.8265C4.31881 19.817 4.31921 19.8073 4.32147 19.7979C4.78566 17.8679 4.25142 16.0599 3.72155 14.883C3.38597 14.1283 2.95783 13.4183 2.44699 12.7693C2.43698 12.7574 2.43099 12.7427 2.42988 12.7273Z" fill="#3F3D56"/>
<path d="M22.714 5.29885C22.6263 5.20895 22.5185 5.14126 22.3994 5.1014C22.2803 5.06153 22.1535 5.05064 22.0293 5.06962C21.9052 5.08861 21.7874 5.13692 21.6857 5.21055C21.5839 5.28418 21.5013 5.38101 21.4445 5.493C20.2489 6.3251 19.4909 7.44003 19.2049 8.86007L17.0839 6.93565C17.1087 6.77467 17.082 6.60994 17.0075 6.4651C16.9329 6.32026 16.8144 6.20274 16.669 6.12941C16.5235 6.05607 16.3586 6.03068 16.1978 6.05688C16.0371 6.08308 15.8887 6.15952 15.7741 6.27524C15.6594 6.39096 15.5844 6.54001 15.5597 6.70102C15.535 6.86203 15.5619 7.02673 15.6366 7.17148C15.7113 7.31624 15.8299 7.43362 15.9755 7.50679C16.121 7.57997 16.286 7.60517 16.4467 7.57879C16.8361 8.23973 18.6422 11.1625 19.7569 10.4934C20.6938 9.9309 22.3578 7.14408 22.8466 6.21982C22.9248 6.07204 22.9542 5.90324 22.9303 5.73774C22.9065 5.57223 22.8308 5.41855 22.714 5.29885Z" fill="#FFB6B6"/>
<path d="M22.7806 6.57502C22.8871 6.28633 22.9724 5.96811 22.8801 5.67459C22.7785 5.35179 22.4664 5.12065 22.1327 5.06443C21.799 5.0082 21.4522 5.10882 21.1653 5.28826C20.8784 5.4677 20.645 5.72113 20.4377 5.98861L20.4932 5.90023C20.2234 6.25381 19.9535 6.60738 19.6836 6.96096C20.3686 7.43686 21.0536 7.91276 21.7386 8.38866C22.185 7.84674 22.5373 7.23366 22.7806 6.57502Z" fill="white"/>
<path d="M19.8268 30.9301L18.8457 30.93L18.3789 27.1455L19.827 27.1456L19.8268 30.9301Z" fill="#FFB6B6"/>
<path d="M19.8609 31.954L16.8438 31.9539V31.9157C16.8438 31.6043 16.9675 31.3056 17.1877 31.0853C17.408 30.8651 17.7067 30.7414 18.0181 30.7414H18.0182L18.5693 30.3232L19.5976 30.7414L19.861 30.7414L19.8609 31.954Z" fill="#2F2E41"/>
<path d="M34.2201 16.9971L34.6319 17.8876L31.3931 19.9001L30.7852 18.5857L34.2201 16.9971Z" fill="#FFB6B6"/>
<path d="M35.1318 16.5352L36.3984 19.2736L36.3638 19.2896C36.0811 19.4203 35.7581 19.4334 35.4657 19.326C35.1734 19.2186 34.9357 18.9995 34.8049 18.7168L34.8049 18.7167L34.194 18.3921L34.1418 17.2832L34.0312 17.0442L35.1318 16.5352Z" fill="#2F2E41"/>
<path d="M12.5016 1.90101C12.703 1.84053 12.8323 1.67787 12.7902 1.53771C12.7481 1.39754 12.5507 1.33294 12.3492 1.39342C12.1477 1.4539 12.0185 1.61656 12.0606 1.75672C12.1026 1.89689 12.3001 1.96148 12.5016 1.90101Z" fill="#E6E6E6"/>
<path d="M14.9898 1.776C15.1913 1.71553 15.3206 1.55287 15.2785 1.41271C15.2364 1.27254 15.039 1.20794 14.8375 1.26842C14.636 1.3289 14.5068 1.49156 14.5488 1.63172C14.5909 1.77189 14.7884 1.83648 14.9898 1.776Z" fill="#3F3D56"/>
<path d="M12.1266 3.98499C12.328 3.92451 12.4573 3.76186 12.4152 3.62169C12.3731 3.48153 12.1757 3.41693 11.9742 3.47741C11.7727 3.53789 11.6435 3.70054 11.6856 3.8407C11.7276 3.98087 11.9251 4.04547 12.1266 3.98499Z" fill="#FF6584"/>
<path d="M11.3412 4.85616C11.4326 4.84192 11.4901 4.72387 11.4696 4.59251C11.4491 4.46114 11.3584 4.3662 11.267 4.38045C11.1756 4.3947 11.1182 4.51274 11.1387 4.64411C11.1591 4.77547 11.2498 4.87041 11.3412 4.85616Z" fill="#E6E6E6"/>
<path d="M11.2045 6.42452C11.2959 6.41028 11.3533 6.29223 11.3329 6.16087C11.3124 6.0295 11.2217 5.93456 11.1303 5.94881C11.0389 5.96306 10.9814 6.0811 11.0019 6.21247C11.0224 6.34383 11.1131 6.43877 11.2045 6.42452Z" fill="#3F3D56"/>
<path d="M13.6186 3.34249C13.7099 3.32824 13.7674 3.2102 13.7469 3.07883C13.7264 2.94747 13.6358 2.85253 13.5444 2.86678C13.453 2.88103 13.3955 2.99907 13.416 3.13044C13.4365 3.2618 13.5272 3.35674 13.6186 3.34249Z" fill="#E6E6E6"/>
<path d="M12.3451 2.92648C12.4365 2.91223 12.494 2.79418 12.4735 2.66282C12.453 2.53145 12.3623 2.43651 12.2709 2.45076C12.1796 2.46501 12.1221 2.58306 12.1426 2.71442C12.163 2.84579 12.2537 2.94073 12.3451 2.92648Z" fill="#FF6584"/>
<path d="M13.8334 1.58859C13.9248 1.57434 13.9823 1.45629 13.9618 1.32493C13.9413 1.19356 13.8506 1.09862 13.7592 1.11287C13.6678 1.12712 13.6104 1.24516 13.6308 1.37653C13.6513 1.50789 13.742 1.60284 13.8334 1.58859Z" fill="#3F3D56"/>
<path d="M27.7501 26.6083C27.9583 26.578 28.11 26.436 28.0889 26.2912C28.0678 26.1464 27.882 26.0535 27.6738 26.0838C27.4656 26.1141 27.314 26.2561 27.335 26.4009C27.3561 26.5457 27.5419 26.6386 27.7501 26.6083Z" fill="#E6E6E6"/>
<path d="M25.2696 26.3661C25.4778 26.3358 25.6295 26.1938 25.6084 26.049C25.5874 25.9042 25.4015 25.8114 25.1933 25.8416C24.9852 25.8719 24.8335 26.0139 24.8546 26.1587C24.8756 26.3035 25.0615 26.3964 25.2696 26.3661Z" fill="#3F3D56"/>
<path d="M28.4298 24.6014C28.638 24.5711 28.7897 24.4292 28.7686 24.2844C28.7475 24.1395 28.5617 24.0467 28.3535 24.077C28.1453 24.1073 27.9936 24.2492 28.0147 24.3941C28.0358 24.5389 28.2216 24.6317 28.4298 24.6014Z" fill="#FF6584"/>
<path d="M29.2609 23.8112C29.3534 23.8105 29.4276 23.7022 29.4266 23.5692C29.4256 23.4363 29.3498 23.3291 29.2573 23.3298C29.1648 23.3305 29.0907 23.4388 29.0917 23.5718C29.0927 23.7047 29.1685 23.8119 29.2609 23.8112Z" fill="#E6E6E6"/>
<path d="M29.6242 22.281C29.7167 22.2803 29.7909 22.1719 29.7899 22.039C29.7889 21.906 29.7131 21.7988 29.6206 21.7995C29.5281 21.8002 29.4539 21.9086 29.4549 22.0415C29.456 22.1745 29.5317 22.2817 29.6242 22.281Z" fill="#3F3D56"/>
<path d="M26.7844 24.9753C26.8769 24.9746 26.951 24.8663 26.95 24.7333C26.949 24.6004 26.8732 24.4932 26.7807 24.4939C26.6883 24.4946 26.6141 24.6029 26.6151 24.7358C26.6161 24.8688 26.6919 24.976 26.7844 24.9753Z" fill="#E6E6E6"/>
<path d="M27.9836 25.573C28.0761 25.5723 28.1502 25.4639 28.1492 25.331C28.1482 25.198 28.0724 25.0908 27.98 25.0915C27.8875 25.0922 27.8133 25.2006 27.8143 25.3335C27.8153 25.4664 27.8911 25.5737 27.9836 25.573Z" fill="#FF6584"/>
<path d="M26.3156 26.6784C26.4081 26.6777 26.4823 26.5694 26.4813 26.4364C26.4803 26.3035 26.4045 26.1963 26.312 26.197C26.2195 26.1977 26.1453 26.306 26.1464 26.439C26.1474 26.5719 26.2231 26.6791 26.3156 26.6784Z" fill="#3F3D56"/>
<path d="M21.3686 13.8245L20.7723 14.5548C20.7858 14.7525 20.7235 14.8655 20.5383 14.8413C20.5383 14.8413 20.566 15.2034 20.3391 15.0853C20.1122 14.9672 20.1678 15.295 20.1678 15.295L19.9982 15.5027C19.9982 15.5027 19.9929 15.8558 19.8257 15.7139C19.6585 15.5721 19.6049 15.9844 19.6049 15.9844L19.3921 16.245L17.2227 18.9017L18.4388 28.6662L19.8601 28.577L20.2066 20.0167C20.2949 19.7806 20.4291 19.657 20.6341 19.7075C20.726 19.7276 20.7797 19.6724 20.8135 19.5778L20.9769 19.4596L23.1158 17.913L25.9411 22.7549L32.9658 19.0501L32.3105 17.79L27.3824 19.4204L27.2532 17.8786C27.0848 17.7806 27.1131 17.6634 27.2246 17.5381L27.1924 17.1534C27.3595 17.0509 27.2766 16.8884 27.1558 16.7167C26.9034 16.5303 26.9281 16.3181 27.1034 16.0917C27.1034 16.0917 27.3247 13.1957 26.2516 12.7961C25.1784 12.3965 21.3686 13.8245 21.3686 13.8245Z" fill="#2F2E41"/>
<path d="M23.4761 4.31836L22.1293 4.38143L21.4236 5.38956C20.9323 6.47044 20.7974 7.67954 21.0384 8.84212L21.5244 11.1863L21.3957 12.9246C21.0507 13.2029 21.022 13.5301 21.3228 13.9083C20.9524 15.1861 24.1038 14.611 27.0187 14.1603C27.0288 13.5515 26.871 12.9316 26.4643 12.2953L26.8565 7.21645L25.4057 5.49037L24.2954 4.75912L23.4761 4.31836Z" fill="white"/>
<path d="M24.7375 5.71196C24.6298 5.77651 24.539 5.86583 24.4727 5.97249C24.4064 6.07915 24.3666 6.20007 24.3564 6.32523C24.3462 6.45039 24.366 6.57618 24.4142 6.69215C24.4623 6.80812 24.5374 6.91094 24.6333 6.99206C24.7958 8.04636 25.8052 9.06199 27.3924 9.94842L25.0303 11.5679C24.8794 11.5065 24.713 11.4945 24.5548 11.5336C24.3967 11.5727 24.255 11.6608 24.1501 11.7854C24.0451 11.91 23.9823 12.0647 23.9707 12.2271C23.9591 12.3896 23.9992 12.5516 24.0853 12.6898C24.1715 12.8281 24.2992 12.9355 24.4501 12.9967C24.6011 13.0579 24.7676 13.0697 24.9257 13.0305C25.0837 12.9912 25.2253 12.9029 25.3301 12.7782C25.4349 12.6535 25.4975 12.4988 25.509 12.3363C26.242 12.11 29.5027 11.0275 29.109 9.78843C28.778 8.74694 26.4506 6.48459 25.6642 5.79558C25.5384 5.68533 25.381 5.61783 25.2144 5.60281C25.0479 5.58778 24.8809 5.626 24.7375 5.71196Z" fill="#FFB6B6"/>
<path d="M22.1681 10.434C22.0111 10.4337 21.8599 10.3743 21.7448 10.2676C21.6296 10.1609 21.5588 10.0148 21.5465 9.85823L21.4629 8.79186C21.4499 8.62673 21.5031 8.46322 21.6107 8.3373C21.7183 8.21138 21.8715 8.13336 22.0366 8.12041L24.1081 7.95797C24.2732 7.94503 24.4367 7.99821 24.5626 8.10581C24.6885 8.21342 24.7665 8.36663 24.7795 8.53176L24.8631 9.59812C24.8761 9.76325 24.8229 9.92676 24.7153 10.0527C24.6077 10.1786 24.4545 10.2566 24.2893 10.2696L22.2179 10.432C22.2013 10.4333 22.1846 10.434 22.1681 10.434Z" fill="#F2F2F2"/>
<path d="M22.4666 4.063C23.4405 4.063 24.23 3.27349 24.23 2.29957C24.23 1.32565 23.4405 0.536133 22.4666 0.536133C21.4926 0.536133 20.7031 1.32565 20.7031 2.29957C20.7031 3.27349 21.4926 4.063 22.4666 4.063Z" fill="#FFB6B6"/>
<path d="M24.2987 1.17724C24.2151 1.06876 24.1194 0.969135 24.0467 0.85313C23.9766 0.741441 23.9288 0.616071 23.8498 0.510504C23.6162 0.198279 23.1819 0.134431 22.7939 0.0955455C22.5378 0.0698718 22.2816 0.0441973 22.0254 0.0185212C21.8814 -0.00185997 21.7355 -0.00449551 21.5909 0.0106752C21.4533 0.032043 21.3225 0.0849734 21.2088 0.16532C21.0951 0.245666 21.0016 0.351247 20.9355 0.473792C20.8604 0.615822 20.8103 0.792836 20.6639 0.85908C20.595 0.880829 20.5247 0.898293 20.4536 0.911373C20.3844 0.932819 20.3149 0.988065 20.3175 1.06042C20.3223 1.19439 20.5587 1.27108 20.501 1.3921C20.4501 1.49897 20.2461 1.42314 20.2172 1.58448C20.2133 1.60776 20.2143 1.63161 20.2201 1.65449C20.2259 1.67736 20.2365 1.69877 20.2511 1.71733C20.3169 1.80159 20.4248 1.82348 20.526 1.84208L20.3463 2.09904C20.9281 2.33809 21.5757 2.36324 22.1743 2.17C22.2636 2.1404 22.359 2.13369 22.4516 2.15052C22.5442 2.16734 22.6311 2.20714 22.7044 2.26628C22.7776 2.32542 22.8348 2.402 22.8708 2.489C22.9067 2.576 22.9203 2.67063 22.9101 2.76422L22.9093 2.77152C22.9054 2.79974 22.9093 2.82849 22.9204 2.8547C22.9315 2.88092 22.9496 2.90363 22.9726 2.92041C23.0638 2.98238 23.1564 2.89544 23.1977 2.80942C23.2398 2.72192 23.2677 2.61576 23.3695 2.58509C23.411 2.57462 23.4548 2.5779 23.4943 2.59445C23.5338 2.61099 23.5668 2.63991 23.5885 2.67686C23.6676 2.80105 23.6351 2.94928 23.5896 3.08072C23.4842 3.38402 23.3132 3.66032 23.0887 3.88987C23.4718 3.86453 23.3597 3.90293 23.7429 3.8776L23.8497 3.89422C24.1061 3.73428 24.2331 3.42997 24.3007 3.13545C24.4541 2.46736 24.717 1.72024 24.2987 1.17724Z" fill="#2F2E41"/>
<path d="M25.7938 5.56741C25.5391 5.39465 25.2508 5.23536 24.9436 5.25449C24.6059 5.27554 24.3065 5.52294 24.1718 5.83337C24.037 6.14379 24.0514 6.50462 24.1566 6.82624C24.2619 7.14787 24.4518 7.43526 24.6617 7.70076L24.5892 7.62563C24.8676 7.97256 25.146 8.31948 25.4244 8.6664C26.0509 8.11581 26.6774 7.56521 27.304 7.01462C26.8852 6.45104 26.3747 5.96183 25.7938 5.56741Z" fill="white"/>
<path d="M22.418 31.8609L22.4187 31.8258C22.4346 31.2366 22.5787 30.658 22.8408 30.1301C23.1029 29.6022 23.4768 29.1377 23.9366 28.769C24.1961 28.5642 24.4804 28.3928 24.7827 28.2591L24.8116 28.2462L24.8165 28.2774C24.875 28.6494 24.9677 29.0291 25.0109 29.1976L25.3005 28.0678L25.3326 28.0585C25.4802 28.0152 25.6373 28.0171 25.7838 28.0639C25.9302 28.1107 26.0593 28.2002 26.1544 28.3211C26.2537 28.4419 26.3144 28.5897 26.3289 28.7454C26.3434 28.9011 26.3109 29.0576 26.2357 29.1947C26.1682 29.3204 26.1018 29.4516 26.0377 29.5785C25.8172 30.0145 25.5892 30.4653 25.257 30.8156C25.0029 31.0782 24.6934 31.2808 24.3511 31.4085C24.0087 31.5362 23.6421 31.5859 23.2781 31.5538L22.418 31.8609Z" fill="#F2F2F2"/>
<path d="M26.508 31.9628L12.81 31.9783C12.8021 31.9783 12.7943 31.9768 12.787 31.9737C12.7798 31.9707 12.7732 31.9663 12.7676 31.9607C12.762 31.9551 12.7576 31.9485 12.7546 31.9413C12.7516 31.934 12.75 31.9262 12.75 31.9183C12.75 31.9104 12.7516 31.9026 12.7546 31.8953C12.7576 31.888 12.762 31.8814 12.7676 31.8758C12.7732 31.8703 12.7798 31.8659 12.787 31.8628C12.7943 31.8598 12.8021 31.8583 12.81 31.8583L26.508 31.8428C26.5239 31.8428 26.5392 31.8491 26.5504 31.8604C26.5617 31.8716 26.568 31.8869 26.568 31.9028C26.568 31.9187 26.5617 31.934 26.5504 31.9452C26.5392 31.9565 26.5239 31.9628 26.508 31.9628Z" fill="#CACACA"/>
<path d="M39.3128 31.9628L31.4116 31.9783C31.4037 31.9783 31.3959 31.9768 31.3886 31.9737C31.3813 31.9707 31.3747 31.9663 31.3691 31.9607C31.3636 31.9551 31.3591 31.9485 31.3561 31.9413C31.3531 31.934 31.3516 31.9262 31.3516 31.9183C31.3516 31.9104 31.3531 31.9026 31.3561 31.8953C31.3591 31.888 31.3636 31.8814 31.3691 31.8758C31.3747 31.8703 31.3813 31.8659 31.3886 31.8628C31.3959 31.8598 31.4037 31.8583 31.4116 31.8583L39.3128 31.8428C39.3287 31.8428 39.344 31.8491 39.3553 31.8604C39.3665 31.8716 39.3728 31.8869 39.3728 31.9028C39.3728 31.9187 39.3665 31.934 39.3553 31.9452C39.344 31.9565 39.3287 31.9628 39.3128 31.9628Z" fill="#CACACA"/>
<path d="M7.91031 31.9628L0.513144 31.9783C0.505262 31.9783 0.497457 31.9768 0.490175 31.9737C0.482894 31.9707 0.476277 31.9663 0.470704 31.9607C0.465131 31.9552 0.46071 31.9485 0.457694 31.9413C0.454678 31.934 0.453125 31.9262 0.453125 31.9183C0.453125 31.9104 0.454678 31.9026 0.457694 31.8953C0.46071 31.888 0.465131 31.8814 0.470704 31.8758C0.476277 31.8703 0.482894 31.8659 0.490175 31.8628C0.497457 31.8598 0.505262 31.8583 0.513144 31.8583L7.91031 31.8428C7.9182 31.8428 7.92603 31.8443 7.93333 31.8473C7.94063 31.8503 7.94727 31.8547 7.95286 31.8603C7.95845 31.8659 7.96289 31.8725 7.96591 31.8798C7.96894 31.8871 7.9705 31.8949 7.9705 31.9028C7.9705 31.9107 7.96894 31.9185 7.96591 31.9258C7.96289 31.9331 7.95845 31.9397 7.95286 31.9453C7.94727 31.9509 7.94063 31.9553 7.93333 31.9583C7.92603 31.9613 7.9182 31.9628 7.91031 31.9628Z" fill="#CACACA"/>
<path d="M15.9213 5.05371C15.8922 5.05371 15.8634 5.05973 15.8368 5.07141C15.8102 5.08308 15.7863 5.10014 15.7666 5.12152C15.7469 5.1429 15.7318 5.16814 15.7224 5.19563C15.7129 5.22312 15.7093 5.25227 15.7116 5.28125C15.9265 6.29358 16.0209 7.25893 15.9482 8.15901C15.9528 8.21152 15.9768 8.26043 16.0156 8.29615C16.0544 8.33187 16.1051 8.35182 16.1578 8.35209H17.5147C17.5674 8.35182 17.6181 8.33187 17.6569 8.29615C17.6957 8.26043 17.7197 8.21152 17.7243 8.15901C17.6147 7.25113 17.7306 6.28177 17.9608 5.28125C17.9632 5.25227 17.9596 5.22312 17.9501 5.19563C17.9407 5.16814 17.9256 5.1429 17.9059 5.12152C17.8862 5.10014 17.8623 5.08308 17.8357 5.0714C17.8091 5.05973 17.7803 5.05371 17.7512 5.05371H15.9213Z" fill="white"/>
<path d="M18.0683 5.43799L17.9671 4.95711C17.9579 4.91338 17.9339 4.87415 17.8992 4.846C17.8645 4.81784 17.8212 4.80247 17.7765 4.80247H17.1445C17.1421 4.79408 17.138 4.78623 17.1327 4.77933L17.0624 4.69155C17.0558 4.68328 17.0474 4.6766 17.0379 4.67201C17.0283 4.66742 17.0179 4.66504 17.0073 4.66504H16.6171C16.6065 4.66504 16.596 4.66742 16.5865 4.67201C16.5769 4.6766 16.5685 4.68328 16.5619 4.69155L16.4917 4.77933C16.4863 4.78623 16.4823 4.79408 16.4798 4.80247H15.8937C15.849 4.80247 15.8056 4.81784 15.7709 4.846C15.7362 4.87415 15.7123 4.91338 15.7031 4.95711L15.6018 5.43799C15.5959 5.46635 15.5963 5.49568 15.6031 5.52385C15.6099 5.55202 15.6229 5.57832 15.6412 5.60083C15.6594 5.62333 15.6825 5.64148 15.7087 5.65394C15.7348 5.66641 15.7634 5.67288 15.7924 5.67288C16.4544 5.88265 17.1495 5.88265 17.8777 5.67288C17.9067 5.67288 17.9353 5.66641 17.9615 5.65394C17.9877 5.64148 18.0107 5.62333 18.029 5.60083C18.0473 5.57832 18.0603 5.55203 18.0671 5.52385C18.0739 5.49568 18.0743 5.46635 18.0683 5.43799Z" fill="#3F3D56"/>
</g>
<defs>
<clipPath id="clip0_3246_28581">
<rect width="45.3275" height="32" fill="white"/>
</clipPath>
</defs>
</svg>
