<svg width="36" height="32" viewBox="0 0 36 32" fill="none" xmlns="http://www.w3.org/2000/svg">
<g clip-path="url(#clip0_3246_28204)">
<path d="M20.1704 10.9481C20.1704 10.9481 20.1561 11.5703 19.0193 12.4793L18.7618 12.9412L21.1641 14.3278C21.3805 14.3379 21.6236 14.3949 21.8658 14.5026C22.4938 14.7816 22.8772 15.2914 22.7217 15.6418C22.5661 15.9921 21.9309 16.05 21.3025 15.771C21.1651 15.7102 21.0392 15.6379 20.9286 15.5589C20.1053 15.3526 16.4422 14.3661 16.8476 13.2432C17.3038 11.9796 17.7504 10.502 17.7504 10.502L20.1709 10.9481H20.1704Z" fill="#FFB6B6"/>
<path d="M18.1759 8.66837C18.3199 8.19355 18.6665 7.81397 19.1265 7.62682C19.5865 7.44015 20.0991 7.47078 20.5342 7.71011C20.9559 7.94273 21.2527 8.34672 21.3484 8.81819C21.4441 9.29015 21.3283 9.77742 21.031 10.156L20.0287 11.4312L17.5 10.8941L18.1759 8.66837Z" fill="white"/>
<path d="M23.3933 13.3873C22.6634 13.1265 21.8985 12.9982 21.101 12.9905C21.0177 12.9762 20.9383 13.0322 20.9239 13.1155L20.8373 13.6152C20.8229 13.6985 20.8789 13.7779 20.9622 13.7923C21.2733 13.977 21.5897 14.089 21.9104 14.1517L21.5782 16.0711C21.2049 15.9984 20.8622 15.9812 20.5707 16.0563C20.4874 16.042 20.4079 16.098 20.3936 16.1812L20.3069 16.681C20.2926 16.7642 20.3486 16.8437 20.4319 16.8581C21.0819 17.0921 21.8731 17.2008 22.7237 17.2549C22.8069 17.2692 22.8864 17.2132 22.9008 17.1299L22.9874 16.6302C23.0018 16.5469 22.9458 16.4675 22.8625 16.4531C22.5341 16.3339 22.212 16.2258 21.9052 16.1458L22.2421 14.2006C22.5767 14.2331 22.9146 14.2211 23.2545 14.1891C23.3378 14.2034 23.4172 14.1474 23.4316 14.0641L23.5182 13.5644C23.5326 13.4811 23.4766 13.4017 23.3933 13.3873Z" fill="#2F2E41"/>
<path d="M13.1889 29.9039L10.9488 27.6131L12.5676 25.3002L13.0065 25.3289C13.2396 25.3442 13.4411 25.1681 13.4574 24.935L13.5397 23.7518C13.557 23.5067 13.3626 23.298 13.1166 23.298H9.00209C9.0356 23.2181 9.04421 23.1286 9.02459 23.0419L6.57004 12.1784C6.52266 11.9687 6.32593 11.8275 6.11197 11.85L5.14222 11.952C4.88997 11.9788 4.71717 12.2195 4.7727 12.467L7.40243 24.151C7.46178 24.4142 7.73366 24.5372 7.9591 24.4573C7.94666 24.4922 7.93948 24.5272 7.9366 24.5626L7.58767 24.5904L1.65234 31.1958H3.47123L8.06632 26.0742L12.4699 31.1958H13.9059L13.9538 30.3342L13.1879 29.9034H13.1889V29.9039ZM8.88338 25.059L11.2925 25.2169L10.349 26.9994L8.9772 25.5965L8.88386 25.059H8.88338Z" fill="#F2F2F2"/>
<path d="M0 31.2103C0 31.2419 0.0253687 31.2672 0.0569599 31.2672H34.9648C34.9964 31.2672 35.0217 31.2419 35.0217 31.2103C35.0217 31.1787 34.9964 31.1533 34.9648 31.1533H0.0569599C0.0253687 31.1533 0 31.1787 0 31.2103Z" fill="#3F3D56"/>
<path d="M20.857 4.97966C21.9409 4.97966 22.8195 4.10102 22.8195 3.01717C22.8195 1.93332 21.9409 1.05469 20.857 1.05469C19.7732 1.05469 18.8945 1.93332 18.8945 3.01717C18.8945 4.10102 19.7732 4.97966 20.857 4.97966Z" fill="#FFB6B6"/>
<path d="M17.1127 28.0371V29.9996L15.6289 30.0475L15.6907 28.0371H17.1127Z" fill="#FFB6B6"/>
<path d="M16.6792 29.7497L16.674 29.7579L16.6644 29.7598C16.6285 29.7679 15.7846 29.9508 15.5386 29.6066C15.519 29.5793 15.5022 29.5683 15.4878 29.5726C15.327 29.6243 15.1992 30.8506 15.1992 31.3159C15.1992 31.5902 15.8109 31.661 16.5859 31.75C16.9477 31.7917 17.358 31.8391 17.7643 31.9142C18.6479 32.0779 19.376 31.673 19.7316 31.4169C19.7943 31.3714 19.8331 31.301 19.8374 31.224C19.8417 31.1464 19.8111 31.0718 19.7531 31.0196C19.2845 30.5974 17.7342 29.2131 17.4666 29.137C17.4475 29.1318 17.4278 29.1289 17.4077 29.1289C17.0971 29.1289 16.6835 29.743 16.6792 29.7492V29.7497Z" fill="#2F2E41"/>
<path d="M19.8901 28.0371V29.9996L18.4062 30.0475L18.468 28.0371H19.8901Z" fill="#FFB6B6"/>
<path d="M20.4866 13.9888L21.2764 14.5871L21.42 21.3362L20.0798 28.7075L18.3327 28.7793L18.2848 21.743L16.0352 15.3291L16.4899 13.8213L20.4866 13.9888Z" fill="#2F2E41"/>
<path d="M16.8007 15.1377L16.0348 15.3292L15.4844 28.7076L17.4708 28.54L18.7871 19.0866L16.8007 15.1377Z" fill="#2F2E41"/>
<path d="M20.5297 31.9613C20.1247 31.8861 19.7155 31.8392 19.3546 31.7976C18.5251 31.7018 17.9258 31.6324 17.9258 31.3156C17.9258 31.0753 18.0186 29.6001 18.2474 29.5268C18.2728 29.5187 18.3111 29.5216 18.3518 29.5785C18.5662 29.8786 19.3258 29.7336 19.4187 29.7145C19.4761 29.6302 19.9213 28.9955 20.2535 29.0908C20.5096 29.164 21.778 30.2817 22.5118 30.9412C22.5931 31.0145 22.6357 31.1193 22.6286 31.2284C22.6214 31.3366 22.5663 31.4343 22.4768 31.4955C22.1815 31.6985 21.6282 31.9996 20.9471 31.9996C20.8125 31.9996 20.6728 31.9876 20.5297 31.9613Z" fill="#2F2E41"/>
<path d="M18.7109 5.46371L19.1398 4.02344L21.0061 4.49635L20.9305 6.05964L18.7109 5.46371Z" fill="#FFB6B6"/>
<path d="M16.4859 13.8448L16.4648 13.841L16.7937 8.65333C16.8616 7.58162 17.2498 6.57022 17.9161 5.72875L18.7337 4.69629L21.3361 6.14231L21.3462 6.14757L21.9225 9.22197L21.9234 9.22772L21.2997 14.5944L21.2935 14.615L16.4859 13.8453V13.8448Z" fill="white"/>
<path d="M19.1551 4.06765L19.3231 4.10642C19.3231 4.10642 19.6127 2.9744 19.8032 3.20942C19.9942 3.44444 20.4815 3.51624 20.4815 3.51624L20.649 3.14624C20.649 3.14624 21.5565 3.11082 21.7068 2.6963C21.7068 2.6963 23.6344 2.7882 23.0945 1.76388C22.555 0.739558 22.3817 0.958303 22.3817 0.958303C22.3817 0.958303 21.8547 0.645263 21.7365 0.331744C21.6183 0.0182248 20.4556 -0.255087 19.7702 0.40785C17.2592 2.83798 19.1546 4.06717 19.1546 4.06717L19.1551 4.06765Z" fill="#3F3D56"/>
<path d="M23.7125 11.3853L23.3828 11.4453L23.7601 13.5173L24.0897 13.4573L23.7125 11.3853Z" fill="#3F3D56"/>
<path d="M22.8018 13.8135C23.3168 13.4593 24.1717 13.4004 25.0903 13.3971C25.1735 13.3818 25.2535 13.4373 25.2683 13.5206L25.3593 14.0198C25.3746 14.1031 25.3191 14.183 25.2358 14.1979C24.4182 14.4401 23.6385 14.6105 22.9473 14.6143C22.864 14.6296 22.7841 14.5741 22.7693 14.4908L22.6783 13.9916C22.663 13.9083 22.7185 13.8283 22.8018 13.8135Z" fill="#3F3D56"/>
<path d="M22.2432 10.753C22.9942 10.4859 23.7567 10.3427 24.5317 10.3365C24.615 10.3212 24.6949 10.3767 24.7097 10.46L24.8007 10.9593C24.816 11.0425 24.7605 11.1225 24.6772 11.1373C23.9697 11.4757 23.234 11.7117 22.3887 11.5537C22.3054 11.5691 22.2255 11.5135 22.2107 11.4303L22.1197 10.931C22.1044 10.8477 22.1599 10.7678 22.2432 10.753Z" fill="#3F3D56"/>
<path d="M20.6641 9.15527C20.6641 9.15527 20.8647 9.74402 20.1108 10.9895L20.028 11.5117L22.7606 11.986C22.9674 11.9209 23.2153 11.8908 23.4796 11.9085C24.1655 11.954 24.7006 12.301 24.6752 12.6834C24.6499 13.0659 24.0731 13.3392 23.3877 13.2937C23.2378 13.2837 23.0947 13.2593 22.9636 13.2234C22.1192 13.3133 18.3407 13.6484 18.3345 12.4546C18.3278 11.1111 18.2383 9.56979 18.2383 9.56979L20.6641 9.15527Z" fill="#FFB6B6"/>
<path d="M18.0066 7.70204C17.9784 7.20663 18.1732 6.73085 18.5403 6.39723C18.9074 6.06361 19.3995 5.9157 19.8906 5.99085C20.3664 6.06409 20.7842 6.34123 21.0365 6.75095C21.2887 7.16068 21.3481 7.65849 21.1992 8.11656L20.6976 9.65878L18.1387 10.025L18.0071 7.70252L18.0066 7.70204Z" fill="white"/>
<path d="M7.5523 28.1184L7.46484 30.2227L7.79961 30.2366L7.88707 28.1323L7.5523 28.1184Z" fill="#3F3D56"/>
<path d="M6.46573 30.2989C7.04586 30.0662 7.8926 30.1969 8.79008 30.3951C8.87432 30.3984 8.94038 30.4702 8.93703 30.5545L8.91597 31.0613C8.91261 31.1456 8.84082 31.2116 8.75657 31.2083C7.90552 31.2648 7.10761 31.26 6.43222 31.1121C6.34798 31.1087 6.28193 31.0369 6.28528 30.9527L6.30634 30.4458C6.30969 30.3616 6.38149 30.2955 6.46573 30.2989Z" fill="#3F3D56"/>
<path d="M6.59464 27.1905C7.38585 27.0948 8.16128 27.1231 8.91899 27.2868C9.00323 27.2901 9.06928 27.3619 9.06593 27.4461L9.04487 27.953C9.04152 28.0373 8.96972 28.1033 8.88548 28.1C8.12107 28.2747 7.35139 28.3431 6.56113 28.0038C6.47689 28.0004 6.41083 27.9286 6.41418 27.8444L6.43525 27.3375C6.4386 27.2532 6.51039 27.1872 6.59464 27.1905Z" fill="#3F3D56"/>
</g>
<defs>
<clipPath id="clip0_3246_28204">
<rect width="35.0217" height="32" fill="white"/>
</clipPath>
</defs>
</svg>
