<svg width="25" height="24" viewBox="0 0 25 24" fill="none" xmlns="http://www.w3.org/2000/svg">
<path d="M5.49983 11C5.49983 6.58172 9.08125 3 13.4992 3C17.9171 3 21.4985 6.58172 21.4985 11C21.4985 12.15 21.2558 13.2434 20.819 14.2316L21.5 18.9992L17.4146 17.9778C16.2572 18.6287 14.9215 19 13.4992 19M3.50095 16C3.50095 16.7188 3.65258 17.4021 3.9256 18.0198L3.5 20.9995L6.05315 20.3611C6.77643 20.768 7.61115 21 8.50005 21C11.261 21 13.4992 18.7614 13.4992 16C13.4992 13.2386 11.261 11 8.50005 11C5.73912 11 3.50095 13.2386 3.50095 16Z" stroke="white" stroke-width="2" stroke-linecap="round" stroke-linejoin="round"/>
</svg>
