<svg width="18" height="18" viewBox="0 0 18 18" fill="none" xmlns="http://www.w3.org/2000/svg">
<path d="M12.375 2.11914C11.07 2.11914 9.8175 2.72664 9 3.68664C8.1825 2.72664 6.93 2.11914 5.625 2.11914C3.315 2.11914 1.5 3.93414 1.5 6.24414C1.5 9.07914 4.05 11.3891 7.9125 14.8991L9 15.8816L10.0875 14.8916C13.95 11.3891 16.5 9.07914 16.5 6.24414C16.5 3.93414 14.685 2.11914 12.375 2.11914ZM9.075 13.7816L9 13.8566L8.925 13.7816C5.355 10.5491 3 8.41164 3 6.24414C3 4.74414 4.125 3.61914 5.625 3.61914C6.78 3.61914 7.905 4.36164 8.3025 5.38914H9.705C10.095 4.36164 11.22 3.61914 12.375 3.61914C13.875 3.61914 15 4.74414 15 6.24414C15 8.41164 12.645 10.5491 9.075 13.7816Z" fill="#8E8E8E"/>
</svg>
