<svg width="8" height="8" viewBox="0 0 8 8" fill="none" xmlns="http://www.w3.org/2000/svg">
<path d="M3.33203 3.59523C3.33203 3.49148 3.38471 3.39198 3.47848 3.31861C3.57225 3.24525 3.69942 3.20403 3.83203 3.20403C3.96464 3.20403 4.09182 3.24525 4.18558 3.31861C4.27935 3.39198 4.33203 3.49148 4.33203 3.59523V5.94246C4.33203 6.04621 4.27935 6.14571 4.18558 6.21908C4.09182 6.29244 3.96464 6.33366 3.83203 6.33366C3.69942 6.33366 3.57225 6.29244 3.47848 6.21908C3.38471 6.14571 3.33203 6.04621 3.33203 5.94246V3.59523ZM3.83203 1.66699C3.69942 1.66699 3.57225 1.70821 3.47848 1.78157C3.38471 1.85494 3.33203 1.95444 3.33203 2.0582C3.33203 2.16195 3.38471 2.26145 3.47848 2.33482C3.57225 2.40818 3.69942 2.4494 3.83203 2.4494C3.96464 2.4494 4.09182 2.40818 4.18558 2.33482C4.27935 2.26145 4.33203 2.16195 4.33203 2.0582C4.33203 1.95444 4.27935 1.85494 4.18558 1.78157C4.09182 1.70821 3.96464 1.66699 3.83203 1.66699Z" fill="#C1C1C1"/>
<path fill-rule="evenodd" clip-rule="evenodd" d="M3.83333 0C1.71618 0 0 1.7908 0 4C0 6.2092 1.71618 8 3.83333 8C5.95048 8 7.66667 6.2092 7.66667 4C7.66667 1.7908 5.95048 0 3.83333 0ZM0.766667 4C0.766667 4.84869 1.08976 5.66263 1.66487 6.26274C2.23998 6.86286 3.02 7.2 3.83333 7.2C4.64666 7.2 5.42668 6.86286 6.00179 6.26274C6.57691 5.66263 6.9 4.84869 6.9 4C6.9 3.15131 6.57691 2.33737 6.00179 1.73726C5.42668 1.13714 4.64666 0.8 3.83333 0.8C3.02 0.8 2.23998 1.13714 1.66487 1.73726C1.08976 2.33737 0.766667 3.15131 0.766667 4Z" fill="#C1C1C1"/>
</svg>
