<svg width="88" height="13" viewBox="0 0 88 13" fill="none" xmlns="http://www.w3.org/2000/svg">
<path d="M0.796249 12V0.6875H3.765V5.14062H7.93687V0.6875H10.9212V12H7.93687V7.54688H3.765V12H0.796249ZM45.885 12V0.6875H53.7756V3.09375H48.8537V5.14062H53.2756V7.54688H48.8537V12H45.885Z" fill="#6541F2"/>
<path d="M15.8631 12.1719C13.3631 12.1719 11.8319 10.4531 11.8319 7.8125C11.8319 5.20312 13.3944 3.40625 15.7537 3.40625C17.6912 3.40625 19.5194 4.60938 19.5194 7.67188V8.26562H13.4881C13.535 9.875 14.4803 10.7969 15.8787 10.7969C16.8319 10.7969 17.4412 10.3906 17.7225 9.875H19.41C19.035 11.25 17.7225 12.1719 15.8631 12.1719ZM13.5037 7.01562H17.8787C17.8787 5.71875 17.0506 4.78125 15.7694 4.78125C14.4334 4.78125 13.5662 5.8125 13.5037 7.01562ZM20.305 9.60938C20.305 7.67188 21.9456 7.17188 23.4769 7.0625C24.0394 7.02344 25.3128 6.95312 25.7113 6.9375L25.6956 6.26562C25.6956 5.3125 25.1175 4.75 23.9769 4.75C22.9925 4.75 22.3988 5.20312 22.2269 5.82812H20.5706C20.7269 4.42188 22.0394 3.40625 24.0394 3.40625C25.3831 3.40625 27.3675 3.90625 27.3675 6.35938V12H25.7425V10.8438H25.68C25.3519 11.4844 24.5706 12.1875 23.1644 12.1875C21.555 12.1875 20.305 11.2656 20.305 9.60938ZM21.93 9.625C21.93 10.4375 22.6019 10.8594 23.5394 10.8594C24.8988 10.8594 25.7113 9.95312 25.7113 8.9375V8.15625L23.7113 8.29688C22.6175 8.375 21.93 8.78125 21.93 9.625ZM30.575 0.6875V12H28.9031V0.6875H30.575ZM36.095 3.51562V4.84375H34.3606V9.5C34.3606 10.4531 34.845 10.625 35.3762 10.6406C35.6106 10.6406 35.9856 10.6094 36.22 10.5938V12.0469C35.9856 12.0781 35.6262 12.1094 35.1731 12.1094C33.8606 12.1094 32.6887 11.3906 32.7044 9.84375V4.84375H31.4544V3.51562H32.7044V1.48438H34.3606V3.51562H36.095ZM39.0994 6.96875V12H37.4275V0.6875H39.0681V4.90625H39.1775C39.5837 3.98438 40.365 3.40625 41.6931 3.40625C43.4431 3.40625 44.5994 4.48438 44.5994 6.60938V12H42.9275V6.8125C42.9275 5.5625 42.2556 4.84375 41.1306 4.84375C39.9587 4.84375 39.0994 5.60938 39.0994 6.96875Z" fill="#222222"/>
<path d="M54.7331 12V3.51562H56.3425V4.85938H56.4362C56.7487 3.95312 57.5925 3.39062 58.5925 3.39062C58.7956 3.39062 59.1237 3.40625 59.2956 3.42188V5.01562C59.155 4.98438 58.7644 4.92188 58.4206 4.92188C57.2644 4.92188 56.405 5.71875 56.405 6.82812V12H54.7331ZM60.0656 12V3.51562H61.7375V12H60.0656ZM60.9094 2.20312C60.3312 2.20312 59.8469 1.76562 59.8469 1.21875C59.8469 0.671875 60.3312 0.234375 60.9094 0.234375C61.4719 0.234375 61.9562 0.671875 61.9562 1.21875C61.9562 1.76562 61.4719 2.20312 60.9094 2.20312ZM66.945 12.1719C64.445 12.1719 62.9137 10.4531 62.9137 7.8125C62.9137 5.20312 64.4762 3.40625 66.8356 3.40625C68.7731 3.40625 70.6012 4.60938 70.6012 7.67188V8.26562H64.57C64.6169 9.875 65.5622 10.7969 66.9606 10.7969C67.9137 10.7969 68.5231 10.3906 68.8044 9.875H70.4919C70.1169 11.25 68.8044 12.1719 66.945 12.1719ZM64.5856 7.01562H68.9606C68.9606 5.71875 68.1325 4.78125 66.8512 4.78125C65.5153 4.78125 64.6481 5.8125 64.5856 7.01562ZM73.4494 6.96875V12H71.7775V3.51562H73.3869V4.90625H73.4806C73.8869 4 74.715 3.40625 75.9806 3.40625C77.7306 3.40625 78.8712 4.5 78.8712 6.60938V12H77.215V6.8125C77.215 5.57812 76.5431 4.84375 75.4181 4.84375C74.2775 4.84375 73.4494 5.60938 73.4494 6.96875ZM83.5944 12.1719C81.5475 12.1719 80.0475 10.5156 80.0475 7.78125C80.0475 5.01562 81.5631 3.40625 83.61 3.40625C85.1881 3.40625 85.7663 4.35938 86.0631 4.89062H86.1413V0.6875H87.8131V12H86.1881V10.6719H86.0631C85.7506 11.2344 85.1413 12.1719 83.5944 12.1719ZM83.9694 10.75C85.3913 10.75 86.1881 9.53125 86.1881 7.75C86.1881 5.98438 85.4069 4.82812 83.9694 4.82812C82.485 4.82812 81.7506 6.07812 81.7506 7.75C81.7506 9.45312 82.5163 10.75 83.9694 10.75Z" fill="black"/>
</svg>
