<svg width="16" height="16" viewBox="0 0 16 16" fill="none" xmlns="http://www.w3.org/2000/svg">
<path d="M4.66667 8.33333C4.66667 8.68696 4.52619 9.02609 4.27614 9.27614C4.02609 9.52619 3.68696 9.66667 3.33333 9.66667C2.97971 9.66667 2.64057 9.52619 2.39052 9.27614C2.14048 9.02609 2 8.68696 2 8.33333C2 7.97971 2.14048 7.64057 2.39052 7.39052C2.64057 7.14048 2.97971 7 3.33333 7C3.68696 7 4.02609 7.14048 4.27614 7.39052C4.52619 7.64057 4.66667 7.97971 4.66667 8.33333ZM9.33333 8.33333C9.33333 8.68696 9.19286 9.02609 8.94281 9.27614C8.69276 9.52619 8.35362 9.66667 8 9.66667C7.64638 9.66667 7.30724 9.52619 7.05719 9.27614C6.80714 9.02609 6.66667 8.68696 6.66667 8.33333C6.66667 7.97971 6.80714 7.64057 7.05719 7.39052C7.30724 7.14048 7.64638 7 8 7C8.35362 7 8.69276 7.14048 8.94281 7.39052C9.19286 7.64057 9.33333 7.97971 9.33333 8.33333ZM14 8.33333C14 8.68696 13.8595 9.02609 13.6095 9.27614C13.3594 9.52619 13.0203 9.66667 12.6667 9.66667C12.313 9.66667 11.9739 9.52619 11.7239 9.27614C11.4738 9.02609 11.3333 8.68696 11.3333 8.33333C11.3333 7.97971 11.4738 7.64057 11.7239 7.39052C11.9739 7.14048 12.313 7 12.6667 7C13.0203 7 13.3594 7.14048 13.6095 7.39052C13.8595 7.64057 14 7.97971 14 8.33333Z" fill="#ADB5BD"/>
</svg>
