<svg width="14" height="14" viewBox="0 0 14 14" fill="none" xmlns="http://www.w3.org/2000/svg">
<path d="M6.56038 13.1672C7.25618 13.1672 7.82547 12.5979 7.82547 11.9021H5.29528C5.29528 12.5979 5.86458 13.1672 6.56038 13.1672ZM6.56038 3.36271C8.13542 3.36271 9.09057 4.64046 9.09057 6.20917V6.27243L10.3557 7.53752V6.20917C10.3557 4.26725 9.32461 2.64161 7.5092 2.21147V1.78134C7.5092 1.25633 7.08539 0.83252 6.56038 0.83252C6.03537 0.83252 5.61156 1.25633 5.61156 1.78134V2.21147C5.45975 2.24943 5.31426 2.30636 5.1751 2.35696L6.21248 3.39434C6.32634 3.38169 6.4402 3.36271 6.56038 3.36271ZM2.39189 1.37018L1.5 2.26208L3.27746 4.03954C2.94853 4.67208 2.76509 5.41216 2.76509 6.20917V9.37191L1.5 10.637V11.2696H10.5075L11.6081 12.3702L12.5 11.4783L2.39189 1.37018ZM9.09057 10.0045H4.03019V6.20917C4.03019 5.77904 4.1061 5.37421 4.24526 5.00733L9.09057 9.85265V10.0045Z" fill="#8E8E8E"/>
</svg>
