<svg width="24" height="24" viewBox="0 0 24 24" fill="none" xmlns="http://www.w3.org/2000/svg">
<rect width="24" height="24" rx="0.5" fill="white"/>
<g clip-path="url(#clip0_2704_4056)">
<path d="M5 19.7V16.9H19V19.7H5ZM7.8 14.1H8.78L14.24 8.65405L13.729 8.14305L13.239 7.65305L7.793 13.113L7.793 14.093L7.8 14.1ZM6.4 15.5L6.4 12.525L14.24 4.70605C14.366 4.58005 14.52 4.47505 14.688 4.40505C14.856 4.33505 15.038 4.30005 15.22 4.30005C15.402 4.30005 15.591 4.33505 15.766 4.40505C15.941 4.47505 16.102 4.58005 16.242 4.72005L17.208 5.70005C17.348 5.82605 17.453 5.98005 17.516 6.15505C17.579 6.33005 17.614 6.51205 17.614 6.70105C17.614 6.87605 17.579 7.05105 17.516 7.21905C17.453 7.38705 17.348 7.54105 17.208 7.68105L9.375 15.5H6.4ZM14.24 8.66105L13.729 8.15005L13.239 7.66005L14.24 8.66105Z" fill="#6541F2"/>
</g>
<defs>
<clipPath id="clip0_2704_4056">
<rect width="14" height="15.4" fill="white" transform="translate(5 4.30005)"/>
</clipPath>
</defs>
</svg>
