<svg width="20" height="20" viewBox="0 0 20 20" fill="none" xmlns="http://www.w3.org/2000/svg">
<path d="M9.999 18.7341H18.999M14.375 2.35611C14.7731 1.95802 15.313 1.73437 15.876 1.73438C16.439 1.73438 16.9789 1.95802 17.377 2.35611C17.7751 2.7542 17.9987 3.29413 17.9987 3.85711C17.9987 4.42009 17.7751 4.96002 17.377 5.35811L5.367 17.3691C5.1291 17.607 4.83502 17.781 4.512 17.8751L1.64 18.7131C1.55395 18.7382 1.46274 18.7397 1.37591 18.7175C1.28908 18.6952 1.20983 18.65 1.14645 18.5867C1.08307 18.5233 1.03789 18.444 1.01564 18.3572C0.993398 18.2704 0.994903 18.1792 1.02 18.0931L1.858 15.2211C1.95222 14.8984 2.12625 14.6047 2.364 14.3671L14.375 2.35611Z" stroke="#C2C2C2" stroke-width="2" stroke-linecap="round" stroke-linejoin="round"/>
</svg>
