<svg width="24" height="24" viewBox="0 0 24 24" fill="none" xmlns="http://www.w3.org/2000/svg">
<g clip-path="url(#clip0_2228_6834)">
<path d="M12 19C10.0487 19 8.38625 18.3175 7.03 16.9613C5.67375 15.605 5 13.9513 5 12C5 10.0488 5.6825 8.395 7.03875 7.03875C8.395 5.6825 10.0487 5 12 5C13.0063 5 13.9688 5.21 14.8875 5.62125C15.8063 6.0325 16.5938 6.6275 17.25 7.40625V5H19V11.125L12.875 11.125V9.375L16.55 9.375C16.0863 8.56125 15.4475 7.91375 14.6337 7.45C13.82 6.98625 12.945 6.75 12 6.75C10.5388 6.75 9.305 7.2575 8.28125 8.28125C7.2575 9.305 6.75 10.5388 6.75 12C6.75 13.4613 7.2575 14.695 8.28125 15.7188C9.305 16.7425 10.5388 17.25 12 17.25C13.12 17.25 14.135 16.9263 15.045 16.2875C15.9462 15.6488 16.585 14.8 16.9525 13.75H18.79C18.3787 15.2988 17.5475 16.5588 16.2962 17.5388C15.045 18.5188 13.61 19.0088 12.0087 19.0088L12 19Z" fill="#8E8E8E"/>
</g>
<defs>
<clipPath id="clip0_2228_6834">
<rect width="14" height="14" fill="white" transform="translate(5 5)"/>
</clipPath>
</defs>
</svg>
