<svg width="14" height="14" viewBox="0 0 14 14" fill="none" xmlns="http://www.w3.org/2000/svg">
<path d="M7.38489 8.29668C7.18972 8.49196 7.18976 8.80847 7.38499 9.00369L7.50285 9.12156C7.6981 9.3168 8.01465 9.31682 8.20992 9.1216L9.97839 7.35354C10.1737 7.15828 10.1737 6.84167 9.97844 6.64639L8.18228 4.85023C7.99839 4.66635 7.70425 4.65412 7.50574 4.8221L7.40281 4.9092C7.18418 5.0942 7.16533 5.42469 7.3615 5.63335L8.09786 6.41665H4.20128C3.92514 6.41665 3.70128 6.64051 3.70128 6.91665V7.08332C3.70128 7.35946 3.92514 7.58332 4.20128 7.58332H8.09786L7.38489 8.29668Z" fill="black"/>
<path fill-rule="evenodd" clip-rule="evenodd" d="M11.5385 11.5373C14.0445 9.03133 14.0445 4.969 11.5385 2.463C9.03247 -0.0430039 4.97013 -0.0430039 2.46414 2.463C-0.0418653 4.969 -0.0418653 9.03133 2.46414 11.5373C4.97013 14.0433 9.03247 14.0433 11.5385 11.5373ZM10.7136 10.7125C11.6982 9.72793 12.2513 8.39256 12.2513 7.00016C12.2513 5.60777 11.6982 4.2724 10.7136 3.28783C9.72906 2.30326 8.3937 1.75013 7.0013 1.75013C5.60891 1.75013 4.27354 2.30326 3.28897 3.28783C2.3044 4.2724 1.75127 5.60777 1.75127 7.00016C1.75127 8.39256 2.3044 9.72793 3.28897 10.7125C4.27354 11.6971 5.60891 12.2502 7.0013 12.2502C8.3937 12.2502 9.72906 11.6971 10.7136 10.7125Z" fill="black"/>
</svg>
