<svg width="18" height="18" viewBox="0 0 18 18" fill="none" xmlns="http://www.w3.org/2000/svg">
<path fill-rule="evenodd" clip-rule="evenodd" d="M5.24967 12.0683L8.09063 9.22737C8.27911 9.03889 8.58758 9.03893 8.77612 9.22746C8.96465 9.416 8.9647 9.72447 8.77621 9.91295L5.94211 12.7471L7.71799 16.1062C7.99225 16.6203 8.54411 16.9255 9.12334 16.8741C9.706 16.8262 10.1995 16.4356 10.3845 15.8872L13.5947 6.24625C13.7694 5.72188 13.6322 5.14605 13.2449 4.7587C12.8575 4.37134 12.2817 4.23417 11.7573 4.40889C9.25198 5.24141 4.7691 6.73516 2.11295 7.6225C1.56116 7.80408 1.1705 8.29758 1.12259 8.88024C1.07469 9.45604 1.37638 10.0113 1.89054 10.2856L5.24967 12.0683Z" fill="url(#paint0_linear_2496_3524)"/>
<defs>
<linearGradient id="paint0_linear_2496_3524" x1="-0.969299" y1="10.4849" x2="12.8591" y2="-2.72969" gradientUnits="userSpaceOnUse">
<stop stop-color="#6441F2"/>
<stop offset="1" stop-color="#1E90FF"/>
</linearGradient>
</defs>
</svg>
