<svg width="18" height="18" viewBox="0 0 18 18" fill="none" xmlns="http://www.w3.org/2000/svg">
<path d="M8.81861 0.390592C8.89029 0.236246 9.10971 0.236246 9.18139 0.390593L11.5029 5.38957C11.5321 5.45232 11.5916 5.49555 11.6603 5.50387L17.132 6.16703C17.3009 6.18751 17.3687 6.3962 17.2441 6.51206L13.2072 10.2648C13.1565 10.3119 13.1338 10.3818 13.1471 10.4497L14.2072 15.8585C14.24 16.0255 14.0624 16.1545 13.9137 16.0718L9.09723 13.3921C9.03678 13.3585 8.96322 13.3585 8.90276 13.3921L4.08627 16.0718C3.93755 16.1545 3.76003 16.0255 3.79277 15.8585L4.85291 10.4497C4.86622 10.3818 4.84349 10.3119 4.79282 10.2648L0.755913 6.51206C0.631271 6.3962 0.699079 6.18751 0.868021 6.16703L6.33973 5.50387C6.40841 5.49555 6.46791 5.45232 6.49706 5.38956L8.81861 0.390592Z" fill="#FFDD44"/>
</svg>
