<svg width="14" height="14" viewBox="0 0 14 14" fill="none" xmlns="http://www.w3.org/2000/svg">
<path d="M13.892 13.3707C13.9612 13.4399 14 13.5336 14 13.6314C14 13.7291 13.9612 13.8229 13.892 13.892C13.8229 13.9612 13.7291 14 13.6314 14C13.5336 14 13.4399 13.9612 13.3707 13.892L7 7.5213L0.629266 13.892C0.560137 13.9612 0.466378 14 0.368615 14C0.270852 14 0.177094 13.9612 0.107965 13.892C0.0388363 13.8229 1.92714e-09 13.7291 0 13.6314C-1.92714e-09 13.5336 0.0388359 13.4399 0.107965 13.3707L6.4787 7L0.107965 0.629266C0.0388359 0.560137 0 0.466378 0 0.368615C0 0.270852 0.0388359 0.177093 0.107965 0.107965C0.177093 0.0388359 0.270852 0 0.368615 0C0.466378 0 0.560137 0.0388359 0.629266 0.107965L7 6.4787L13.3707 0.107965C13.405 0.0737356 13.4456 0.0465836 13.4903 0.028059C13.535 0.00953434 13.583 9.54222e-10 13.6314 0C13.6798 -9.54221e-10 13.7277 0.00953434 13.7724 0.028059C13.8172 0.0465836 13.8578 0.0737356 13.892 0.107965C13.9263 0.142194 13.9534 0.18283 13.9719 0.227552C13.9905 0.272275 14 0.320208 14 0.368615C14 0.417022 13.9905 0.464956 13.9719 0.509678C13.9534 0.554401 13.9263 0.595036 13.892 0.629266L7.5213 7L13.892 13.3707Z" fill="#AEAEAE"/>
</svg>
